<svg width="120" height="120" viewBox="0 0 120 120" fill="none" xmlns="http://www.w3.org/2000/svg">
<path fill-rule="evenodd" clip-rule="evenodd" d="M53.7539 0.0236982C53.6155 0.0428612 53.4302 0.0901267 53.3421 0.128819C53.254 0.167466 53.0107 0.212669 52.8015 0.22931C52.3495 0.265252 52.0597 0.366981 51.7629 0.594048C51.6428 0.685966 51.5157 0.761196 51.4806 0.761196C51.3698 0.761196 51.0387 0.951634 50.9106 1.08903C50.8428 1.16169 50.7171 1.25054 50.6312 1.28648C50.5453 1.32247 50.4484 1.38399 50.4159 1.42328C50.3834 1.46257 50.3359 1.49471 50.3106 1.49471C50.2851 1.49471 50.1918 1.57177 50.1032 1.66593C50.0145 1.7601 49.9061 1.85807 49.8622 1.8837C49.6065 2.03283 49.5033 2.11617 49.439 2.22514C49.3994 2.29226 49.3092 2.37707 49.2383 2.4137C49.1676 2.45029 49.0931 2.50603 49.073 2.53757C49.0529 2.56916 49.0066 2.59497 48.9701 2.59497C48.9336 2.59497 48.9037 2.6344 48.9037 2.68258C48.9037 2.73076 48.8368 2.82373 48.755 2.88911C48.6732 2.95453 48.5737 3.03888 48.5338 3.07657C48.494 3.11425 48.4373 3.1451 48.408 3.1451C48.3787 3.1451 48.3546 3.18453 48.3546 3.23271C48.3546 3.28089 48.2953 3.36859 48.2228 3.42755C48.1502 3.4865 48.0267 3.58612 47.9482 3.64889C47.8698 3.71165 47.8056 3.78715 47.8056 3.81672C47.8056 3.866 47.7176 3.94857 47.4343 4.16514C47.3766 4.20929 47.313 4.24537 47.2929 4.24537C47.2729 4.24537 47.2559 4.27118 47.2552 4.30267C47.2536 4.37639 47.0426 4.57311 46.873 4.65897C46.8006 4.69565 46.7182 4.7767 46.69 4.8391C46.6155 5.004 46.4572 5.16225 46.3668 5.16225C46.3237 5.16225 46.2093 5.24477 46.1126 5.34563C46.0158 5.44649 45.917 5.52901 45.893 5.52901C45.8689 5.52901 45.8247 5.55862 45.7947 5.59484C45.7647 5.63101 45.6784 5.67424 45.603 5.69084C45.5275 5.70743 45.4547 5.75002 45.4411 5.78546C45.4275 5.8209 45.3902 5.84992 45.3583 5.84992C45.3263 5.84992 45.2732 5.88247 45.2402 5.92226C45.2073 5.96205 45.076 6.04971 44.9487 6.1171L44.717 6.23959L43.4816 6.23882C42.1732 6.23804 41.5543 6.17211 41.148 5.99029C40.7909 5.83053 40.4089 5.74576 39.8668 5.70597C39.5648 5.68378 39.2401 5.63491 39.1452 5.59732C39.0503 5.55977 38.937 5.52887 38.8935 5.52873C38.85 5.52855 38.7526 5.49614 38.6771 5.45671C38.6016 5.41724 38.3339 5.3405 38.0823 5.28612C37.6772 5.19865 37.4804 5.18719 36.3664 5.18623C35.1692 5.18522 35.092 5.1904 34.7764 5.29277C34.5939 5.35196 34.4446 5.41628 34.4446 5.43571C34.4446 5.47546 33.7566 5.71239 33.6411 5.71239C33.5601 5.71239 33.3378 5.85313 33.177 6.00611C32.9973 6.17716 32.9521 6.20553 32.8094 6.23694C32.7187 6.25688 32.6265 6.32913 32.5496 6.44035C32.4273 6.61703 32.1979 6.81265 32.1129 6.81265C32.0867 6.81265 32.0653 6.84281 32.0653 6.87967C32.0653 6.95674 31.6857 7.36278 31.6136 7.36278C31.5872 7.36278 31.541 7.4453 31.5108 7.54616C31.4806 7.64702 31.44 7.72954 31.4205 7.72954C31.401 7.72954 31.372 7.7708 31.356 7.82123C31.3401 7.87165 31.305 7.91291 31.2781 7.91291C31.1854 7.91291 31.0075 8.15314 30.9133 8.40546C30.8598 8.54868 30.7341 8.74833 30.6237 8.86538C30.4763 9.0217 30.422 9.12087 30.4014 9.27133C30.3753 9.46199 30.3033 9.59471 30.0066 9.99883C29.9326 10.0997 29.8713 10.2402 29.8705 10.3112C29.8687 10.4638 29.6713 10.9152 29.5827 10.9695C29.4872 11.028 29.3199 11.3274 29.3199 11.4398C29.3199 11.5725 29.1134 12.0215 29.0302 12.0698C28.9463 12.1184 28.7708 12.4477 28.7708 12.5565C28.7708 12.6965 28.6035 13.0147 28.4318 13.2013C28.3423 13.2986 28.2491 13.4508 28.2246 13.5396C28.1974 13.6383 28.0814 13.7976 27.9264 13.9493C27.7868 14.0858 27.6726 14.2182 27.6726 14.2436C27.6726 14.3049 27.4362 14.5112 27.3638 14.513C27.3323 14.5139 27.3066 14.5321 27.3066 14.5537C27.3066 14.5752 27.2547 14.6489 27.1913 14.7174C27.1119 14.8033 26.9413 14.8842 26.6422 14.9778C26.4037 15.0526 26.2084 15.1315 26.2084 15.1533C26.2084 15.1751 26.121 15.2386 26.0141 15.2944C25.8744 15.3673 25.6588 15.413 25.2477 15.457C24.933 15.4906 24.5314 15.5395 24.3553 15.5655C24.1791 15.5916 23.9526 15.6135 23.852 15.6141C23.7513 15.6148 23.6114 15.6454 23.541 15.6822C23.4707 15.7189 23.2885 15.7716 23.1362 15.7993C22.984 15.827 22.8056 15.8701 22.7398 15.8951C22.6741 15.9202 22.2797 15.9596 21.8634 15.9827C21.0432 16.0283 20.2801 16.1446 20.1649 16.2416C20.1252 16.2751 20.0776 16.3024 20.0591 16.3024C20.0406 16.3024 19.9186 16.351 19.7881 16.4103C19.6576 16.4696 19.4136 16.5319 19.2458 16.5487C18.9391 16.5794 18.5213 16.7287 18.5213 16.8075C18.5213 16.8541 18.0669 17.0818 17.974 17.0818C17.8624 17.0818 17.4793 17.3206 17.4235 17.4249C17.3926 17.4828 17.313 17.5576 17.2465 17.5913C17.0369 17.6974 16.9115 17.8094 16.8294 17.9637C16.7857 18.046 16.705 18.1362 16.6501 18.1642C16.4781 18.252 16.3309 18.4175 16.3002 18.5576C16.2839 18.6318 16.2417 18.7037 16.2063 18.7173C16.1709 18.7308 16.142 18.7694 16.142 18.8028C16.142 18.8362 16.106 18.8752 16.0619 18.8895C15.9413 18.9285 15.7903 19.1883 15.7569 19.4141C15.723 19.6436 15.5655 20.0158 15.5024 20.0158C15.408 20.0158 15.2604 20.4711 15.2051 20.9327C15.143 21.4504 15.0074 22.033 14.949 22.033C14.8433 22.033 14.6864 23.4619 14.657 24.6919C14.6314 25.7618 14.5528 26.293 14.3842 26.5341C14.3443 26.5911 14.3117 26.6908 14.3117 26.7555C14.3117 26.8202 14.2804 26.9938 14.242 27.1413C14.2037 27.2887 14.1521 27.5524 14.1274 27.7271C14.0781 28.0752 13.9298 28.451 13.8416 28.4515C13.7747 28.4519 13.5796 28.7269 13.5796 28.8209C13.5796 28.897 13.3383 29.1388 13.2624 29.1388C13.2345 29.1388 13.1881 29.1904 13.1595 29.2535C13.1308 29.3165 13.09 29.3681 13.0689 29.3681C13.0478 29.3681 13.0305 29.3975 13.0305 29.4335C13.0305 29.4694 12.9134 29.5526 12.7702 29.6183C12.627 29.684 12.4468 29.8079 12.3698 29.8938C12.2928 29.9796 12.168 30.0644 12.0925 30.0822C11.9102 30.1253 11.5205 30.3222 11.5205 30.3712C11.5205 30.4307 11.1829 30.6517 11.0919 30.6517C10.9656 30.6517 10.5139 30.8734 10.4847 30.9497C10.4702 30.9875 10.429 31.0185 10.3932 31.0185C10.3573 31.0185 10.3164 31.0488 10.3022 31.0858C10.2874 31.1246 10.162 31.1757 10.0062 31.2063C9.85762 31.2356 9.73604 31.2753 9.73604 31.2945C9.73604 31.3137 9.68914 31.3412 9.63185 31.3556C9.57456 31.37 9.44585 31.4548 9.34587 31.544C9.2459 31.6332 9.09202 31.7193 9.00393 31.7354C8.80036 31.7726 8.53978 31.9162 8.32573 32.1091C8.23362 32.1922 8.10665 32.2727 8.04346 32.2882C7.89452 32.3247 7.64162 32.4961 7.55606 32.6185C7.51904 32.6714 7.46079 32.7147 7.42657 32.7147C7.39234 32.7147 7.35747 32.7302 7.34905 32.7491C7.34068 32.768 7.25315 32.8247 7.1545 32.8752C6.83049 33.0408 6.80762 33.0567 6.80762 33.1167C6.80762 33.1493 6.77806 33.1874 6.74196 33.2013C6.55929 33.2715 5.94785 33.8793 5.87898 34.0591C5.86283 34.1014 5.81808 34.1359 5.77951 34.1359C5.74098 34.1359 5.70946 34.1675 5.70946 34.2061C5.70946 34.2447 5.68022 34.2875 5.64448 34.3013C5.60875 34.315 5.52313 34.4433 5.45418 34.5863C5.38527 34.7294 5.25212 34.9312 5.15827 35.0347C5.03953 35.1657 4.9779 35.2842 4.95566 35.4244C4.89911 35.781 4.7558 36.3036 4.70615 36.3343C4.67961 36.3508 4.61368 36.5281 4.55959 36.7285C4.36503 37.4492 4.43513 38.9795 4.68469 39.4599C4.77126 39.6266 4.91869 40.442 4.95699 40.9664C4.98193 41.3071 5.01702 41.4599 5.11878 41.6703C5.19026 41.8182 5.26662 41.9627 5.28849 41.9916C5.35923 42.0848 5.45203 42.6158 5.52469 43.343C5.54821 43.5784 5.58674 43.795 5.6103 43.8244C5.63387 43.8538 5.66832 43.95 5.6869 44.0383C5.70543 44.1265 5.75929 44.2753 5.80655 44.3688C5.85524 44.4652 5.89248 44.6346 5.89248 44.7597C5.89248 44.8811 5.91413 45.1535 5.94062 45.365C6.00358 45.8684 5.93742 46.3267 5.76478 46.5826C5.69674 46.6835 5.62632 46.7771 5.60824 46.7906C5.59017 46.8042 5.55182 46.928 5.52304 47.0657C5.45962 47.369 5.34139 47.5752 5.1817 47.6608C5.11361 47.6973 5.01304 47.8297 4.94674 47.9701C4.883 48.1051 4.75195 48.2917 4.65554 48.3848C4.47435 48.5597 4.24524 48.8711 4.24524 48.9425C4.24524 48.965 4.20599 48.9958 4.15794 49.011C4.10994 49.0263 4.05911 49.0689 4.04501 49.1058C4.03087 49.1427 3.99294 49.1736 3.96068 49.1745C3.92847 49.1754 3.86089 49.2629 3.81056 49.3689C3.75798 49.4797 3.64336 49.6125 3.54105 49.681C3.44313 49.7467 3.33249 49.8587 3.2952 49.93C3.21371 50.0859 3.12164 50.1818 2.95051 50.2893C2.88019 50.3335 2.79783 50.4245 2.76749 50.4915C2.70412 50.6318 2.53797 50.8228 2.47835 50.824C2.41374 50.8253 2.23195 51.0359 2.23195 51.1095C2.23195 51.1808 2.10118 51.3252 1.87084 51.5081C1.79338 51.5697 1.70808 51.6865 1.68132 51.7677C1.6546 51.8489 1.6028 51.9269 1.56628 51.9409C1.52973 51.955 1.49985 51.9956 1.49985 52.0313C1.49985 52.067 1.45867 52.1069 1.40833 52.1202C1.358 52.1333 1.31682 52.1748 1.31682 52.2122C1.31682 52.2497 1.28781 52.2916 1.2523 52.3052C1.21684 52.3189 1.15448 52.4449 1.11375 52.5852C1.07303 52.7255 1.01972 52.8404 0.995241 52.8404C0.970762 52.8404 0.950767 52.8699 0.950767 52.9061C0.950767 52.9422 0.910638 52.9845 0.861587 53.0001C0.812536 53.0157 0.759687 53.0686 0.74413 53.1178C0.728573 53.1669 0.698053 53.2071 0.67641 53.2071C0.654721 53.2071 0.61377 53.3191 0.585401 53.456C0.528342 53.7314 0.387183 54.0536 0.298781 54.1103C0.2673 54.1304 0.202508 54.2294 0.154875 54.3303C-0.0576643 54.7799 -0.0491525 57.4735 0.16627 57.9405C0.221498 58.0603 0.283131 58.1583 0.303172 58.1583C0.367872 58.1583 0.546049 58.6109 0.580001 58.8614C0.614273 59.1146 0.766138 59.4139 0.883046 59.4589C0.920292 59.4732 0.950767 59.5165 0.950767 59.5551C0.950767 59.5937 0.969755 59.6253 0.992954 59.6253C1.03345 59.6253 1.09673 59.7914 1.15118 60.0404C1.16523 60.1047 1.24727 60.2285 1.33338 60.3154C1.50525 60.4888 1.68287 60.7806 1.68287 60.8894C1.68287 60.9276 1.80642 61.0791 1.95741 61.2263C2.16524 61.4288 2.23232 61.5258 2.23342 61.6254C2.23479 61.7532 2.41232 62.0092 2.49949 62.0092C2.55179 62.0092 2.78103 62.4378 2.78103 62.5356C2.78103 62.5738 2.89126 62.7165 3.02601 62.8526C3.18095 63.0091 3.28202 63.1551 3.30087 63.2496C3.31835 63.3372 3.40305 63.4675 3.50495 63.5638C3.70033 63.7485 3.7961 63.9352 3.87914 64.2935C3.91031 64.4278 3.96421 64.5486 3.99898 64.562C4.03376 64.5754 4.06222 64.6143 4.06222 64.6486C4.06222 64.6828 4.09978 64.731 4.14568 64.7556C4.19198 64.7804 4.26497 64.919 4.30976 65.0671C4.42246 65.4402 4.39766 67.2814 4.27558 67.6022C4.23239 67.7157 4.1719 67.8292 4.1411 67.8545C4.02072 67.9533 3.90953 68.2268 3.85004 68.5703C3.78333 68.9555 3.66569 69.2985 3.60035 69.2985C3.50573 69.2985 3.33537 69.6551 3.30472 69.9174C3.27218 70.1955 3.16246 70.4682 3.01938 70.6266C2.97637 70.6742 2.91373 70.7465 2.88019 70.7873C2.8466 70.8281 2.79037 71.0398 2.75513 71.2577C2.67387 71.7606 2.56396 72.095 2.47995 72.095C2.44422 72.095 2.41498 72.1228 2.41498 72.1567C2.41498 72.1907 2.38382 72.281 2.34575 72.3574C2.30768 72.4339 2.2552 72.6692 2.22912 72.8803C2.20299 73.0913 2.15179 73.3942 2.11527 73.5534C2.07881 73.7126 2.04893 73.8887 2.04893 73.9448C2.04893 74.001 2.00509 74.1286 1.95151 74.2285C1.86494 74.3899 1.85345 74.4894 1.84856 75.1226C1.84389 75.7228 1.85528 75.8539 1.92099 75.9544C2.047 76.1473 2.17984 76.5946 2.21232 76.9355C2.2444 77.2718 2.28951 77.3739 2.50219 77.5919C2.57526 77.6668 2.67922 77.848 2.73326 77.9946C2.7873 78.1411 2.85749 78.2817 2.8892 78.3069C2.92091 78.3321 2.96035 78.3889 2.97692 78.433C2.99343 78.4771 3.03709 78.5132 3.07392 78.5132C3.11075 78.5132 3.15399 78.5545 3.16996 78.6049C3.18593 78.6553 3.21663 78.6966 3.23814 78.6966C3.25965 78.6966 3.29941 78.7636 3.3265 78.8456C3.35875 78.9432 3.45333 79.0475 3.60099 79.1483C3.72485 79.2328 3.84885 79.3566 3.87654 79.4233C3.90422 79.4901 4.0036 79.5962 4.0975 79.6591C4.19134 79.722 4.35332 79.8561 4.45746 79.9571C4.56161 80.0581 4.67787 80.1613 4.7159 80.1865C4.75388 80.2117 4.88076 80.2994 4.99785 80.3813C5.11494 80.4633 5.2227 80.5303 5.23734 80.5303C5.25198 80.5303 5.331 80.6016 5.41295 80.6887C5.49495 80.7757 5.62083 80.8618 5.6928 80.8798C5.82536 80.9132 6.07551 81.1284 6.07551 81.2091C6.07551 81.2334 6.11157 81.2656 6.15558 81.2808C6.30923 81.3338 6.55687 81.5044 6.68014 81.6422C6.80505 81.7818 6.87877 81.8328 7.17367 81.984C7.26175 82.0292 7.35029 82.0919 7.37042 82.1234C7.39055 82.1549 7.43686 82.1807 7.47337 82.1807C7.50984 82.1807 7.53972 82.2089 7.53972 82.2433C7.53972 82.3127 7.82547 82.5213 7.98585 82.5689C8.0425 82.5857 8.0888 82.6177 8.0888 82.6399C8.0888 82.7033 8.27901 82.8871 8.45554 82.9942C8.6172 83.0923 8.82091 83.3279 8.82091 83.4167C8.82091 83.4429 8.84232 83.4644 8.86849 83.4644C8.9655 83.4644 9.19936 83.6766 9.30968 83.8647C9.37228 83.9714 9.48136 84.1075 9.5521 84.1672C9.6545 84.2535 9.70493 84.3697 9.79987 84.738C9.86544 84.9923 9.91907 85.2488 9.91907 85.3079C9.91907 85.3669 9.94972 85.4591 9.98715 85.5127C10.0246 85.5662 10.0966 85.8235 10.1472 86.0845C10.2488 86.609 10.275 87.8046 10.1955 88.2908C10.1292 88.6967 10.0334 90.0341 10.0339 90.5473C10.0347 91.309 10.1055 92.1788 10.1944 92.5186C10.2406 92.6951 10.2919 93.0056 10.3085 93.2086C10.3535 93.7571 10.4616 94.0993 10.6626 94.3289C10.757 94.4366 10.8342 94.5729 10.8342 94.6318C10.8342 94.8451 11.0253 95.22 11.2679 95.4825C11.4031 95.6288 11.5269 95.7902 11.5431 95.8413C11.5593 95.8923 11.5885 95.9341 11.6081 95.9341C11.6392 95.9341 11.7555 96.0198 11.9095 96.1562C11.9346 96.1786 11.9818 96.2357 12.0142 96.2832C12.0466 96.3307 12.0878 96.3902 12.1057 96.4154C12.1453 96.4711 12.2681 96.5499 12.4814 96.6564C12.5695 96.7003 12.6581 96.7621 12.6782 96.7936C12.6983 96.8252 12.7424 96.8509 12.7762 96.8509C12.8101 96.8509 12.8494 96.8814 12.8636 96.9186C12.8924 96.9938 13.1909 97.1419 13.4526 97.2107C13.5464 97.2353 13.7111 97.3264 13.8187 97.413C14.0333 97.5858 14.3177 97.6915 14.761 97.763C14.9679 97.7963 15.1118 97.8541 15.2673 97.9659C15.4767 98.1167 15.8848 98.2329 16.5854 98.3413C16.691 98.3576 16.8016 98.4003 16.8313 98.4361C16.861 98.472 16.916 98.5013 16.9535 98.5013C16.9911 98.5013 17.0966 98.5399 17.1881 98.5871C17.3469 98.669 17.9167 98.7926 18.4069 98.8515C18.6275 98.878 18.9987 99.0512 19.0933 99.1718C19.1184 99.2039 19.3534 99.2727 19.6155 99.3247C20.053 99.4115 20.1055 99.4334 20.2561 99.5919C20.3464 99.6869 20.5378 99.8228 20.6815 99.894C20.8444 99.9746 21.0079 100.104 21.1154 100.237C21.2103 100.354 21.3046 100.457 21.3248 100.466C21.4328 100.512 21.6252 100.714 21.6473 100.805C21.709 101.056 21.8593 101.412 21.9114 101.429C22.0014 101.459 22.1788 101.68 22.1804 101.764C22.1839 101.949 22.4082 102.778 22.4746 102.851C22.5149 102.896 22.5479 102.95 22.5479 102.971C22.5479 102.992 22.5786 103.044 22.6161 103.085C22.6536 103.127 22.7148 103.324 22.7522 103.524C22.8771 104.194 22.9487 104.465 23.0231 104.547C23.0637 104.592 23.097 104.645 23.097 104.664C23.097 104.683 23.1382 104.751 23.1885 104.815C23.2388 104.879 23.28 104.99 23.28 105.06C23.28 105.281 23.5047 106.132 23.5771 106.185C23.615 106.213 23.6461 106.253 23.6461 106.273C23.6461 106.294 23.6748 106.343 23.71 106.383C23.7451 106.423 23.8055 106.579 23.844 106.73C23.9285 107.061 24.0455 107.349 24.0956 107.349C24.1739 107.349 24.3419 107.642 24.4065 107.89C24.4439 108.034 24.4939 108.171 24.5178 108.195C24.5416 108.219 24.5612 108.276 24.5612 108.321C24.5612 108.367 24.5834 108.404 24.6105 108.404C24.6618 108.404 24.9272 108.651 24.9272 108.699C24.9272 108.771 25.1716 109.084 25.269 109.136C25.3294 109.169 25.4471 109.296 25.5304 109.418C25.6138 109.54 25.7372 109.66 25.8048 109.683C25.8723 109.707 25.9958 109.796 26.0794 109.881C26.2842 110.091 26.4326 110.178 26.6961 110.243C26.8179 110.273 27.0103 110.362 27.1236 110.44C27.4392 110.657 27.6974 110.739 28.2217 110.791C28.486 110.817 28.7639 110.858 28.8394 110.883C28.9149 110.908 29.2557 110.958 29.5968 110.994C30.1351 111.051 30.3343 111.051 31.1068 110.994C31.5962 110.958 32.1202 110.903 32.2712 110.871C32.464 110.832 33.1455 110.814 34.559 110.813C36.5413 110.811 36.5752 110.812 36.7584 110.91C36.8608 110.965 36.9713 111.043 37.0042 111.082C37.0371 111.122 37.0875 111.154 37.1162 111.154C37.145 111.154 37.2453 111.196 37.3392 111.246C37.4332 111.296 37.5461 111.338 37.5902 111.339C37.67 111.341 37.9221 111.534 37.9221 111.594C37.9221 111.644 38.1439 111.836 38.2874 111.91C38.3597 111.948 38.4314 112.018 38.4465 112.066C38.4836 112.182 38.6498 112.355 38.8012 112.433C38.8691 112.468 38.9574 112.566 38.9975 112.651C39.0375 112.736 39.0886 112.805 39.1109 112.805C39.1332 112.805 39.1645 112.846 39.1804 112.896C39.1964 112.947 39.2493 112.988 39.2979 112.988C39.3465 112.988 39.3863 113.007 39.3863 113.031C39.3863 113.054 39.4121 113.101 39.4435 113.134C39.475 113.167 39.5366 113.267 39.5805 113.355C39.6887 113.572 39.7479 113.657 39.9354 113.859C40.1037 114.041 40.3015 114.34 40.3015 114.412C40.3015 114.436 40.3229 114.455 40.3491 114.455C40.4306 114.455 40.6675 114.652 40.6675 114.72C40.6675 114.802 40.8308 115.037 40.998 115.196C41.0684 115.263 41.1537 115.384 41.1875 115.464C41.2213 115.545 41.5187 115.882 41.8486 116.213C42.7752 117.145 42.8741 117.236 43.0636 117.336C43.2571 117.438 43.3779 117.551 43.4252 117.676C43.4421 117.72 43.4925 117.756 43.5373 117.757C43.681 117.759 43.9789 117.924 44.1889 118.118C44.3157 118.235 44.437 118.306 44.5092 118.306C44.5732 118.307 44.7966 118.348 45.0058 118.398C45.2151 118.448 45.4313 118.49 45.4863 118.49C45.5413 118.49 45.6457 118.521 45.7182 118.559C46.1829 118.802 47.2429 118.825 47.6714 118.601C47.8232 118.522 48.3647 118.404 48.858 118.342C49.2325 118.295 49.4493 118.198 49.6129 118.003C49.6381 117.973 49.8922 117.892 50.1776 117.822C50.4698 117.751 50.7069 117.669 50.7202 117.634C50.7332 117.6 50.7714 117.573 50.8052 117.573C50.839 117.573 50.8831 117.544 50.9033 117.51C50.9565 117.419 51.321 117.27 51.583 117.232C51.7475 117.207 51.8655 117.151 52.0152 117.026C52.2952 116.792 52.3618 116.761 52.7276 116.699C52.9757 116.656 53.0883 116.609 53.2449 116.482C53.401 116.355 53.5419 116.296 53.8855 116.213C54.1277 116.154 54.3735 116.106 54.4317 116.106C54.5236 116.106 54.7812 116.004 55.1678 115.815C55.3363 115.733 56.1712 115.747 56.3392 115.835C56.697 116.023 56.8968 116.106 56.9898 116.106C57.2214 116.105 57.7917 116.335 57.9559 116.495C58.0467 116.583 58.1525 116.656 58.191 116.656C58.2999 116.657 58.7599 116.884 58.8008 116.957C58.821 116.993 58.8673 117.022 58.9038 117.022C58.9403 117.022 58.9702 117.052 58.9702 117.088C58.9702 117.124 59.0474 117.176 59.1418 117.205C59.5089 117.317 59.7023 117.399 59.7023 117.442C59.7023 117.492 59.9518 117.756 59.999 117.756C60.1004 117.756 60.573 118.023 60.695 118.15C60.7794 118.237 60.9081 118.314 60.9996 118.331C61.0947 118.349 61.2717 118.457 61.4425 118.602C61.6503 118.778 61.7904 118.858 61.9616 118.897C62.2873 118.972 62.4386 119.046 62.4636 119.141C62.4753 119.186 62.5155 119.223 62.5529 119.223C62.5903 119.223 62.632 119.252 62.6456 119.287C62.6592 119.323 62.8155 119.385 62.9947 119.426C63.3926 119.516 63.6939 119.632 63.7426 119.713C63.7627 119.746 63.8039 119.773 63.8341 119.773C63.8643 119.774 63.9491 119.805 64.0225 119.843C64.2371 119.956 64.6986 120.001 65.6278 120C66.7173 119.999 67.0716 119.956 67.3596 119.787C67.749 119.559 67.7771 119.545 67.8557 119.545C67.8983 119.544 67.9451 119.524 67.9597 119.501C67.9744 119.477 68.0803 119.443 68.1952 119.426C68.3501 119.403 68.4472 119.352 68.5716 119.227C68.6638 119.135 68.8683 119.002 69.0262 118.932C69.2113 118.85 69.3875 118.725 69.5228 118.58C69.6382 118.456 69.7767 118.341 69.8307 118.324C69.9475 118.287 70.1329 118.12 70.134 118.051C70.1351 117.981 70.3159 117.833 70.4877 117.761C70.5721 117.726 70.6599 117.643 70.6936 117.566C70.7479 117.443 71.0384 117.206 71.1355 117.206C71.1585 117.206 71.2085 117.127 71.2468 117.032C71.2987 116.902 71.3704 116.83 71.5293 116.748C71.6747 116.673 71.7623 116.59 71.8051 116.488C71.8449 116.392 71.9508 116.286 72.0962 116.197C72.2588 116.096 72.333 116.018 72.3536 115.924C72.3731 115.835 72.4349 115.765 72.5442 115.708C72.6332 115.662 72.7452 115.604 72.7931 115.579C72.841 115.554 72.8802 115.517 72.8802 115.497C72.8802 115.425 73.0815 115.189 73.143 115.189C73.1775 115.189 73.3126 115.082 73.4433 114.953C73.574 114.823 73.8095 114.648 73.9665 114.563C74.1236 114.479 74.3258 114.329 74.4158 114.229C74.5816 114.045 74.7385 113.99 75.4037 113.884C75.4955 113.869 75.5958 113.826 75.6266 113.789C75.7162 113.681 76.7328 113.695 77.2271 113.81C77.441 113.861 77.894 113.933 78.2337 113.972C79.4749 114.114 79.6246 114.135 79.6496 114.171C79.6636 114.192 79.7471 114.237 79.8352 114.272C79.9233 114.307 80.0079 114.354 80.0234 114.376C80.0571 114.426 81.1807 114.572 81.8485 114.614C82.1127 114.631 82.4937 114.688 82.695 114.741C83.2106 114.876 84.0323 114.877 84.4795 114.742C84.6557 114.689 84.9336 114.632 85.0972 114.616C85.7718 114.55 86.2525 114.377 86.3921 114.148C86.4123 114.115 86.4597 114.088 86.4976 114.088C86.6192 114.088 86.9468 113.917 87.064 113.791C87.1265 113.725 87.2478 113.627 87.3336 113.573C87.5216 113.457 88.0714 112.922 88.0714 112.855C88.0714 112.829 88.1949 112.679 88.3459 112.522C88.4969 112.365 88.6205 112.196 88.6205 112.147C88.6205 112.097 88.7019 111.979 88.8013 111.885C88.9811 111.713 89.1696 111.416 89.1696 111.303C89.1696 111.232 89.3892 110.875 89.4724 110.811C89.54 110.758 89.7186 110.355 89.7186 110.255C89.7186 110.162 89.8845 109.845 89.9849 109.746C90.0754 109.657 90.2676 109.216 90.2679 109.097C90.268 109.056 90.3458 108.919 90.4407 108.793C90.611 108.567 90.8139 108.141 90.8198 107.996C90.8215 107.956 90.8925 107.83 90.9776 107.716C91.1431 107.495 91.3659 107.058 91.3659 106.954C91.3659 106.919 91.4035 106.853 91.4494 106.807C91.4954 106.761 91.5462 106.689 91.5624 106.647C91.5785 106.604 91.6121 106.57 91.6371 106.57C91.662 106.57 91.7436 106.444 91.8184 106.29C91.9692 105.981 92.0816 105.836 92.1718 105.836C92.2045 105.836 92.2861 105.743 92.353 105.629C92.4784 105.414 92.61 105.32 92.8606 105.266C92.9403 105.249 93.0168 105.205 93.0307 105.169C93.0446 105.133 93.0853 105.103 93.1212 105.103C93.157 105.103 93.1976 105.073 93.2114 105.037C93.2535 104.928 93.6341 104.789 93.9848 104.756C94.1676 104.739 94.4297 104.686 94.5672 104.639C94.7048 104.592 94.8548 104.553 94.9006 104.553C94.9464 104.553 95.0331 104.52 95.0933 104.481C95.2965 104.348 95.893 104.233 96.3991 104.23C97.2142 104.226 98.0509 104.151 98.4582 104.046C98.6721 103.991 98.8574 103.93 98.87 103.912C98.9082 103.857 99.7386 103.688 100.126 103.656C100.327 103.64 100.533 103.608 100.584 103.585C100.729 103.522 100.857 103.435 100.896 103.374C100.932 103.318 101.607 103.086 101.733 103.086C101.77 103.086 101.887 103.007 101.994 102.91C102.196 102.726 102.376 102.613 102.588 102.537C102.657 102.512 102.714 102.462 102.714 102.426C102.714 102.366 102.793 102.289 103.085 102.066C103.142 102.022 103.204 101.986 103.221 101.986C103.238 101.986 103.265 101.936 103.28 101.875C103.295 101.815 103.408 101.681 103.531 101.578C103.702 101.434 103.767 101.343 103.806 101.188C103.837 101.063 103.908 100.943 103.99 100.873C104.152 100.737 104.361 100.34 104.361 100.169C104.361 100.046 104.55 99.5948 104.656 99.4641C104.749 99.35 104.84 98.8308 104.906 98.0335C104.946 97.5582 105.029 97.1196 105.169 96.6446C105.206 96.5186 105.265 96.0028 105.3 95.4985C105.462 93.1675 105.492 92.9039 105.602 92.8361C105.624 92.8224 105.642 92.7796 105.642 92.7409C105.642 92.7023 105.681 92.6211 105.728 92.5606C105.776 92.5002 105.829 92.3731 105.846 92.2784C105.922 91.8527 106.061 91.5066 106.221 91.3425C106.38 91.1792 106.461 91.0616 106.552 90.8625C106.576 90.8089 106.687 90.7208 106.799 90.6667C106.91 90.6126 107.067 90.4966 107.147 90.4089C107.226 90.3211 107.319 90.2494 107.353 90.2494C107.387 90.2494 107.439 90.2204 107.468 90.1851C107.498 90.1497 107.577 90.107 107.646 90.0901C107.714 90.0733 107.862 89.9816 107.976 89.8864C108.217 89.6833 108.387 89.5898 108.639 89.5219C108.74 89.4947 108.894 89.4054 108.982 89.3235C109.188 89.1319 109.371 89.0334 109.6 88.9912C109.701 88.9727 109.866 88.8891 109.969 88.8053C110.234 88.5878 110.465 88.4668 110.682 88.4321C110.786 88.4154 110.903 88.3637 110.943 88.317C110.983 88.2704 111.04 88.2322 111.069 88.2322C111.099 88.2322 111.134 88.2039 111.147 88.1693C111.173 88.1015 111.493 87.9348 111.687 87.8876C111.753 87.8717 111.866 87.7781 111.939 87.6797C112.011 87.5813 112.094 87.5004 112.122 87.4998C112.282 87.4964 112.732 87.2298 112.908 87.0344C113.016 86.9142 113.148 86.8021 113.201 86.7853C113.299 86.7541 113.508 86.5443 113.511 86.4745C113.512 86.426 113.703 86.2645 113.761 86.2624C113.839 86.2597 114.061 86.0167 114.061 85.935C114.061 85.8913 114.14 85.7868 114.235 85.7029C114.461 85.5051 114.59 85.3143 114.633 85.1155C114.674 84.927 114.768 84.7695 114.937 84.6078C115.083 84.4675 115.158 84.2194 115.16 83.877C115.16 83.7383 115.202 83.4309 115.252 83.1938C115.366 82.6499 115.375 81.6995 115.271 81.2095C115.231 81.0251 115.182 80.5957 115.16 80.2553C115.124 79.6797 115.018 79.0869 114.924 78.9258C114.791 78.6996 114.687 78.4095 114.653 78.1694C114.54 77.3925 114.514 77.2321 114.462 76.9959C114.43 76.8548 114.38 76.7103 114.351 76.6749C114.322 76.6394 114.251 76.497 114.193 76.3584C114.093 76.1154 114.089 76.056 114.087 74.7017C114.084 73.426 114.091 73.2887 114.164 73.2081C114.208 73.1592 114.244 73.0951 114.244 73.0656C114.244 73.036 114.276 73.0119 114.314 73.0119C114.352 73.0119 114.403 72.9623 114.426 72.9017C114.449 72.8412 114.489 72.778 114.516 72.7615C114.543 72.7449 114.587 72.6429 114.614 72.5348C114.658 72.3608 114.727 72.2606 114.94 72.0628C115.05 71.9602 115.115 71.8686 115.16 71.7505C115.184 71.6857 115.261 71.5999 115.33 71.5598C115.453 71.4889 115.708 71.1721 115.708 71.0907C115.708 71.0685 115.95 70.8018 116.246 70.4979C116.542 70.1941 116.842 69.8515 116.913 69.7366C116.984 69.6217 117.064 69.5277 117.091 69.5277C117.157 69.5277 117.356 69.3076 117.356 69.2341C117.356 69.1608 117.562 68.9317 117.628 68.9317C117.696 68.9317 117.842 68.7769 117.924 68.6173C117.963 68.5425 118.051 68.4375 118.121 68.3839C118.255 68.2813 118.363 68.1301 118.469 67.8981C118.504 67.8213 118.585 67.7241 118.649 67.682C118.766 67.6057 119.003 67.1688 119.003 67.031C119.003 66.9911 119.081 66.8712 119.176 66.7646C119.382 66.5332 119.477 66.3346 119.549 65.9876C119.579 65.8458 119.632 65.7049 119.669 65.6747C119.705 65.6445 119.735 65.6008 119.735 65.5776C119.735 65.5545 119.775 65.4796 119.823 65.4113C120.063 65.074 120.057 62.6676 119.816 62.3856C119.714 62.2662 119.552 61.9009 119.552 61.7902C119.552 61.6246 119.343 61.0207 119.25 60.9194C119.083 60.7359 119.056 60.6898 118.931 60.3785C118.862 60.2061 118.739 59.9959 118.657 59.9114C118.575 59.8269 118.495 59.7021 118.478 59.6342C118.432 59.4456 118.253 59.0792 118.206 59.0771C118.132 59.0737 117.91 58.7924 117.883 58.6663C117.855 58.538 117.658 58.2958 117.583 58.2958C117.558 58.2958 117.539 58.2649 117.539 58.2271C117.539 58.1893 117.521 58.1583 117.498 58.1583C117.476 58.1583 117.433 58.0912 117.403 58.0093C117.373 57.9274 117.325 57.8191 117.298 57.7686C117.27 57.7182 117.219 57.6202 117.184 57.5509C117.149 57.4815 117.1 57.4248 117.076 57.4248C116.994 57.4248 116.814 57.1752 116.785 57.0237C116.769 56.9417 116.738 56.8747 116.716 56.8747C116.694 56.8747 116.662 56.8334 116.646 56.783C116.63 56.7325 116.587 56.6913 116.55 56.6913C116.514 56.6913 116.47 56.6552 116.453 56.6111C116.436 56.567 116.396 56.5041 116.364 56.4715C116.332 56.4388 116.283 56.3272 116.255 56.2234C116.197 56.0062 116.107 55.8525 115.929 55.6643C115.847 55.577 115.786 55.4431 115.753 55.2747C115.725 55.1335 115.668 54.8736 115.627 54.6971C115.54 54.3256 115.529 53.423 115.608 53.1384C115.636 53.0375 115.679 52.7487 115.704 52.4965C115.747 52.051 115.864 51.6957 116.007 51.58C116.088 51.5148 116.257 51.0301 116.257 50.8659C116.257 50.6838 116.365 50.435 116.498 50.3074C116.627 50.1841 116.807 49.7272 116.807 49.5233C116.807 49.3679 116.954 49.0469 117.065 48.9595C117.165 48.8813 117.305 48.4791 117.354 48.1284C117.396 47.837 117.526 47.4909 117.652 47.339C117.846 47.1046 117.977 45.776 117.932 44.4967C117.891 43.347 117.824 43.0241 117.574 42.7922C117.446 42.6729 117.381 42.5655 117.351 42.4254C117.287 42.1257 117.165 41.8775 117.008 41.7239C116.929 41.6478 116.806 41.4773 116.733 41.3449C116.66 41.2126 116.581 41.1043 116.557 41.1043C116.503 41.1042 116.257 40.8709 116.257 40.8187C116.257 40.7603 116.063 40.5082 116.018 40.5082C115.954 40.5082 115.708 40.3113 115.708 40.2589C115.706 40.1857 115.5 40.004 115.418 40.004C115.378 40.004 115.216 39.8837 115.058 39.7367C114.9 39.5898 114.734 39.4563 114.69 39.4402C114.646 39.4241 114.61 39.3921 114.61 39.3691C114.61 39.3462 114.545 39.3002 114.464 39.2668C114.384 39.2335 114.255 39.1396 114.178 39.0583C114.101 38.977 113.935 38.8584 113.81 38.7948C113.684 38.7312 113.521 38.6058 113.447 38.5163C113.373 38.4268 113.278 38.3536 113.236 38.3536C113.193 38.3536 113.106 38.3123 113.042 38.2619C112.978 38.2114 112.911 38.1702 112.893 38.1702C112.874 38.1702 112.793 38.1 112.713 38.0142C112.632 37.9284 112.454 37.8023 112.318 37.7341C112.04 37.5945 111.865 37.4502 111.865 37.3605C111.865 37.3274 111.798 37.2718 111.716 37.2368C111.634 37.2019 111.522 37.1242 111.466 37.0643C111.222 36.8034 111.088 36.6732 110.957 36.57C110.881 36.5095 110.794 36.4019 110.764 36.331C110.735 36.2602 110.652 36.1762 110.581 36.1444C110.447 36.0851 110.292 35.8327 110.235 35.58C110.218 35.5043 110.166 35.3932 110.119 35.3331C110.073 35.273 110.035 35.195 110.035 35.1598C110.035 35.1246 110.005 35.0843 109.968 35.0702C109.93 35.0554 109.867 34.8963 109.819 34.6934C109.745 34.3744 109.739 34.151 109.759 32.2563C109.793 28.9494 109.787 28.1574 109.721 27.3509C109.66 26.6164 109.579 26.2744 109.416 26.0673C109.36 25.9956 109.241 25.6716 109.156 25.3567C109.128 25.2558 109.032 25.0813 108.941 24.9688C108.764 24.7487 108.703 24.6543 108.603 24.4398C108.568 24.3642 108.479 24.2718 108.406 24.2345C108.24 24.1498 108.106 24.0178 108.026 23.8583C107.991 23.7906 107.904 23.7106 107.831 23.6804C107.758 23.6502 107.587 23.5148 107.449 23.3794C107.312 23.244 107.184 23.1325 107.164 23.1317C107.145 23.1308 107.047 23.0903 106.946 23.0415C106.845 22.9928 106.741 22.9523 106.714 22.9514C106.687 22.9505 106.584 22.8773 106.485 22.7886C106.386 22.6999 106.223 22.6063 106.122 22.5804C106.022 22.5546 105.898 22.5151 105.848 22.4927C105.798 22.4703 105.679 22.4284 105.585 22.3996C105.491 22.3708 105.402 22.3269 105.387 22.3021C105.334 22.2168 104.887 22.0446 104.635 22.0128C104.284 21.9684 103.768 21.8195 103.676 21.736C103.633 21.6977 103.578 21.6662 103.552 21.6662C103.526 21.6662 103.442 21.6344 103.364 21.5956C103.287 21.5568 103.031 21.5044 102.797 21.4793C102.357 21.4322 101.919 21.3211 101.798 21.2264C101.622 21.0878 101.286 20.97 100.958 20.9317C100.76 20.9086 100.575 20.8711 100.546 20.8484C100.518 20.8257 100.419 20.7828 100.327 20.7531C100.235 20.7234 100.148 20.6691 100.134 20.6325C100.12 20.5959 100.085 20.566 100.057 20.566C100.028 20.566 99.9505 20.5275 99.8837 20.4806C99.8168 20.4337 99.685 20.3812 99.5906 20.3639C99.4963 20.3467 99.419 20.3143 99.419 20.2919C99.419 20.2695 99.383 20.2396 99.339 20.2255C99.2949 20.2113 99.1971 20.1458 99.1216 20.0798C98.8103 19.8078 98.6065 19.649 98.5678 19.6483C98.5453 19.648 98.4775 19.5396 98.4172 19.4076C98.3569 19.2757 98.2848 19.1179 98.257 19.0569C98.2292 18.996 98.1527 18.8921 98.0869 18.826C97.922 18.6604 97.8353 18.4749 97.7965 18.205C97.758 17.9368 97.6036 17.5413 97.5065 17.4616C97.4086 17.3815 97.279 16.9691 97.2429 16.6233C97.2116 16.3223 97.0886 15.9799 96.9588 15.8325C96.8558 15.7155 96.7335 15.3151 96.6961 14.9729C96.6633 14.6718 96.5393 14.3292 96.4099 14.1822C96.3099 14.0686 96.1797 13.666 96.1439 13.3598C96.1192 13.1486 96.0829 13.0658 95.9528 12.9243C95.7738 12.7294 95.6481 12.4697 95.6012 12.1972C95.5715 12.0255 95.3968 11.7638 95.3117 11.7638C95.2569 11.7638 95.0923 11.5331 95.0494 11.3962C95.0298 11.3336 94.9034 11.1724 94.7684 11.0378C94.6335 10.9033 94.5231 10.7752 94.5231 10.7532C94.5231 10.7016 94.2855 10.4802 94.2302 10.4802C94.1869 10.4802 93.9288 10.2093 93.9275 10.1625C93.9271 10.1481 93.8193 10.0848 93.6878 10.0218C93.5564 9.95872 93.3476 9.83145 93.2239 9.73899C93.1001 9.64652 92.9248 9.55758 92.8344 9.54135C92.4309 9.46905 92.0993 9.35371 91.6404 9.126C91.3844 8.99901 89.8282 8.9467 88.0028 9.00382C86.8307 9.0405 86.448 9.06737 86.2926 9.1238C86.006 9.22791 83.9232 9.23039 83.6306 9.12692C83.5223 9.08864 83.2917 9.03523 83.1182 9.00827C82.7833 8.95619 82.3976 8.80967 82.3976 8.73454C82.3976 8.70969 82.3664 8.67741 82.3283 8.66274C82.2901 8.64807 82.2007 8.58169 82.1296 8.51517C82.0585 8.4487 81.9404 8.36375 81.8672 8.32648C81.794 8.28916 81.6783 8.19632 81.61 8.12018C81.4611 7.95399 81.4509 7.94381 81.2775 7.78973C81.2025 7.72312 81.1124 7.61529 81.0771 7.55006C81.0418 7.48486 80.9892 7.3879 80.96 7.33454C80.9309 7.28118 80.8349 7.16771 80.7467 7.0824C80.6585 6.99708 80.5048 6.82489 80.4052 6.69978C80.3056 6.57467 80.1466 6.39134 80.0519 6.29241C79.9571 6.19348 79.8674 6.06374 79.8524 6.00414C79.8375 5.94454 79.8103 5.89576 79.792 5.89576C79.7174 5.89576 79.3398 5.47532 79.311 5.36003C79.2939 5.29176 79.2056 5.16578 79.1149 5.08001C78.9591 4.93285 78.8242 4.73508 78.7565 4.55482C78.7399 4.51071 78.7092 4.47459 78.6883 4.47459C78.6422 4.47459 78.3715 4.19077 78.3712 4.14222C78.3709 4.0961 78.2649 3.97365 77.9319 3.63504C77.7784 3.47903 77.6343 3.31936 77.6116 3.28016C77.5888 3.24101 77.4673 3.13786 77.3415 3.05094C77.2156 2.96406 77.0962 2.86719 77.0761 2.83565C77.0559 2.80416 77.0216 2.77835 76.9997 2.77835C76.9777 2.77835 76.8774 2.69661 76.7767 2.59676C76.676 2.49686 76.5405 2.40178 76.4757 2.38546C76.4108 2.36914 76.3577 2.33879 76.3577 2.31802C76.3577 2.29726 76.3165 2.26714 76.2662 2.25114C76.2159 2.23514 76.1747 2.1931 76.1747 2.15771C76.1747 2.08069 75.7312 1.86146 75.5754 1.86141C75.4475 1.86137 74.8935 1.60909 74.8935 1.55087C74.8935 1.52923 74.7339 1.47197 74.5389 1.42369C74.0377 1.29968 72.5928 1.2978 71.9651 1.42035C71.726 1.46702 71.4995 1.52263 71.4617 1.54394C71.424 1.56526 71.3004 1.63701 71.1872 1.70339C71.0675 1.77358 70.8567 1.84207 70.6839 1.86692C70.3692 1.91226 69.9293 2.0585 69.8145 2.15596C69.7767 2.18806 69.715 2.22854 69.6772 2.24596C69.6395 2.26338 69.5571 2.30748 69.4942 2.34393C69.4313 2.38042 69.3228 2.41054 69.2531 2.41091C69.1017 2.41173 68.5753 2.61771 68.5104 2.70156C68.4386 2.79439 68.06 2.96172 67.9216 2.96172C67.7896 2.96172 67.4364 3.13057 67.3777 3.22175C67.3029 3.33792 67.0303 3.46289 66.7546 3.50736C66.5953 3.53308 66.3591 3.60896 66.2295 3.67598C65.5287 4.03852 65.5686 4.02641 64.9185 4.07212C64.2451 4.11943 63.2715 4.09055 62.9081 4.01248C62.7759 3.98405 62.622 3.91116 62.5453 3.84065C62.3815 3.69005 62.0668 3.52909 61.8528 3.48651C61.7014 3.45634 61.4732 3.32555 61.3724 3.21112C61.2909 3.11856 61.0104 2.9725 60.848 2.93798C60.6637 2.89883 60.4344 2.74199 60.4344 2.65512C60.4344 2.62202 60.406 2.59497 60.3713 2.59497C60.3367 2.59497 60.2838 2.56535 60.2538 2.52914C60.2238 2.49297 60.1441 2.4507 60.0766 2.43525C59.9418 2.4044 59.7023 2.21469 59.7023 2.13873C59.7023 2.11232 59.6846 2.09068 59.6629 2.09068C59.6412 2.09068 59.5508 2.04122 59.4619 1.98079C59.373 1.92037 59.2382 1.85724 59.1623 1.84056C59.0865 1.82387 58.9556 1.74346 58.8715 1.6619C58.7178 1.51295 58.2731 1.26548 58.159 1.26548C58.1254 1.26548 58.0861 1.23454 58.0716 1.19672C58.0571 1.1589 58.0247 1.12795 57.9995 1.12795C57.9744 1.12795 57.8927 1.07638 57.8179 1.01334C57.7432 0.950304 57.6436 0.898729 57.5967 0.898729C57.5498 0.898729 57.4999 0.880163 57.4859 0.85747C57.4719 0.834823 57.3559 0.791133 57.228 0.760371C57.1002 0.729655 56.9847 0.676018 56.9713 0.641176C56.958 0.606334 56.9209 0.577819 56.8889 0.577819C56.857 0.577819 56.8062 0.54802 56.776 0.51162C56.6927 0.411083 56.2022 0.267499 55.7672 0.216337C55.5533 0.191168 55.3144 0.138401 55.2363 0.0991124C55.0703 0.015584 54.1507 -0.0311774 53.7539 0.0236982ZM53.6853 3.13983C53.5091 3.1578 53.2949 3.20759 53.2092 3.2505C53.1236 3.29336 53.0387 3.32848 53.0205 3.32848C53.0024 3.32848 52.9077 3.40206 52.8102 3.49196C52.7127 3.58186 52.5774 3.66676 52.5096 3.68056C52.4418 3.69436 52.3116 3.78651 52.2204 3.8853C52.1291 3.9841 51.9693 4.12099 51.865 4.18953C51.7609 4.25807 51.5681 4.41728 51.4368 4.54335C51.3055 4.66943 51.1124 4.83447 51.0078 4.91011C50.9031 4.98575 50.7869 5.09922 50.7495 5.16225C50.712 5.22529 50.5985 5.33875 50.4973 5.4144C50.396 5.49004 50.2697 5.61382 50.2166 5.68946C50.1635 5.76511 50.078 5.8567 50.0266 5.89306C49.9752 5.92937 49.8072 6.08409 49.6533 6.23689C49.0665 6.81898 48.8756 6.99607 48.8332 6.99749C48.7681 6.99965 48.5377 7.21301 48.5377 7.27109C48.5377 7.33395 48.3047 7.54277 48.2324 7.54469C48.2029 7.54552 48.1102 7.62639 48.0265 7.7244C47.9427 7.82246 47.75 7.96591 47.5982 8.0432C47.4464 8.12045 47.2714 8.23827 47.2093 8.30497C47.0709 8.4536 46.7029 8.64642 46.5577 8.64642C46.4554 8.64642 46.1745 8.82104 46.1109 8.92419C46.0323 9.0515 45.2903 9.17767 43.9675 9.28856C43.6559 9.3147 43.383 9.3472 43.3609 9.36086C43.3388 9.37452 43.1511 9.34477 42.9436 9.29471C42.7148 9.23946 42.3069 9.19183 41.9065 9.17359C41.1283 9.13806 40.3136 9.01318 40.1609 8.90599C40.1012 8.86409 40.0209 8.82966 39.9824 8.82952C39.944 8.82934 39.8508 8.79675 39.7753 8.75704C39.6998 8.7173 39.4424 8.66586 39.2033 8.64262C38.6553 8.58944 37.9607 8.48033 37.4874 8.37319C37.2861 8.32758 36.9208 8.2529 36.6757 8.20723C36.2447 8.12701 36.219 8.12701 35.8978 8.2081C35.7151 8.25418 35.5039 8.31919 35.4284 8.35251C35.3001 8.40913 35.153 8.46479 34.6931 8.63056C34.5733 8.67375 34.4763 8.74985 34.4211 8.84397C34.314 9.02661 34.2749 9.06581 34.0917 9.17363C34.0059 9.22415 33.9336 9.31066 33.9181 9.38154C33.9035 9.44829 33.7994 9.60416 33.6869 9.72794C33.4936 9.9407 33.4454 10.0231 33.2193 10.5282C33.1679 10.6429 33.0646 10.8025 32.9897 10.8828C32.9149 10.9631 32.8391 11.1065 32.8214 11.2015C32.7749 11.4503 32.6245 11.7601 32.4525 11.9616C32.3703 12.0578 32.2889 12.2125 32.2716 12.3054C32.2257 12.5508 32.0746 12.8614 31.9034 13.0619C31.8213 13.1581 31.7399 13.3128 31.7226 13.4057C31.6831 13.6176 31.4857 14.0561 31.4298 14.0561C31.3793 14.0561 31.2173 14.323 31.1759 14.4745C31.1137 14.7017 30.9411 15.0192 30.8664 15.0438C30.7754 15.0737 30.6011 15.3397 30.6011 15.4487C30.6011 15.4901 30.5599 15.5593 30.5096 15.6025C30.4592 15.6457 30.418 15.7073 30.418 15.7396C30.418 15.7718 30.3865 15.7981 30.348 15.7981C30.3094 15.7981 30.2647 15.8327 30.2485 15.8749C30.207 15.9832 30.1375 16.064 29.7364 16.4707C29.2956 16.9176 28.9071 17.2652 28.8484 17.2652C28.7756 17.2652 28.4047 17.4617 28.4047 17.5003C28.4047 17.5916 28.0001 17.8039 27.769 17.8339C27.5121 17.8674 27.1716 18.0133 27.1118 18.1157C27.0928 18.1482 27.0105 18.1892 26.9288 18.2067C26.8472 18.2242 26.7552 18.2587 26.7245 18.2835C26.6938 18.3083 26.4364 18.3471 26.1525 18.3697C25.6536 18.4094 25.2448 18.486 24.7671 18.6293C24.3045 18.768 23.555 18.8708 22.6803 18.9152C22.1625 18.9415 21.7078 18.9872 21.605 19.0232C21.507 19.0575 21.3497 19.0998 21.2553 19.1172C21.1609 19.1347 21.0837 19.167 21.0837 19.1891C21.0837 19.2111 21.0167 19.2427 20.935 19.2591C20.8532 19.2756 20.6678 19.3288 20.523 19.3774C20.3782 19.4259 20.1826 19.4661 20.0883 19.4666C19.9264 19.4674 19.84 19.5109 19.4083 19.8089C19.3357 19.859 19.2491 19.9261 19.2159 19.9579C19.1826 19.9898 19.1172 20.0158 19.0706 20.0158C18.9507 20.0158 18.7043 20.2359 18.7043 20.343C18.7043 20.3924 18.6632 20.5182 18.6128 20.6226C18.5625 20.727 18.5213 20.8307 18.5213 20.8532C18.5213 20.8756 18.4603 20.9551 18.3857 21.0298C18.2465 21.1693 18.1559 21.407 18.1555 21.6343C18.1554 21.7049 18.1248 21.9009 18.0875 22.0698C18.0503 22.2386 17.9994 22.5473 17.9743 22.7558C17.9493 22.9643 17.907 23.1757 17.8803 23.2257C17.7653 23.441 17.6477 24.3368 17.6065 25.3108C17.5831 25.8656 17.5327 26.5463 17.4944 26.8237C17.4562 27.1011 17.4245 27.3626 17.4241 27.405C17.4236 27.4473 17.3967 27.5092 17.3643 27.5425C17.2514 27.6587 17.0957 28.156 17.0574 28.5225C17.0219 28.8625 16.8613 29.3222 16.778 29.3222C16.7151 29.3222 16.5497 29.6576 16.5015 29.8828C16.4632 30.0619 16.4053 30.1578 16.2352 30.3248C16.1157 30.4421 16.0018 30.5886 15.9822 30.6504C15.9425 30.7759 15.7184 31.0185 15.6422 31.0185C15.6151 31.0185 15.5929 31.0359 15.5929 31.0573C15.5929 31.1434 15.1889 31.5685 15.1069 31.5685C15.0787 31.5685 15.0066 31.6422 14.9468 31.7322C14.8869 31.8222 14.7644 31.9341 14.6746 31.981C14.5848 32.0279 14.4116 32.1606 14.2898 32.2759C14.168 32.3912 14.0332 32.4855 13.9903 32.4855C13.9473 32.4855 13.8599 32.5267 13.7959 32.5772C13.7319 32.6276 13.6581 32.6689 13.6319 32.6689C13.6056 32.6689 13.5677 32.6948 13.5476 32.7264C13.4812 32.8308 13.1756 33.0356 13.0862 33.0356C12.9741 33.0356 12.5616 33.2534 12.5135 33.338C12.4933 33.3734 12.4495 33.4024 12.4161 33.4024C12.3827 33.4024 12.3307 33.4322 12.3005 33.4686C12.2703 33.5051 12.1366 33.5576 12.0033 33.5852C11.8452 33.6182 11.6995 33.6885 11.5836 33.7879C11.3553 33.9836 11.0709 34.1359 10.9333 34.1359C10.7792 34.1359 10.5483 34.2553 10.3975 34.4131C10.3263 34.4875 10.2435 34.5485 10.2135 34.5485C10.1836 34.5485 10.1352 34.5773 10.1061 34.6124C10.0769 34.6476 9.98537 34.6891 9.9026 34.7047C9.81968 34.7203 9.64068 34.8284 9.50387 34.9456C9.36733 35.0626 9.18353 35.1885 9.09545 35.2253C9.00737 35.2622 8.86085 35.3674 8.76989 35.4591C8.67893 35.5508 8.54111 35.6877 8.46369 35.7634C7.92005 36.2943 7.79015 36.4982 7.74503 36.8913C7.72943 37.0274 7.68541 37.2263 7.6473 37.3334C7.57239 37.5438 7.57916 37.9373 7.66606 38.4223C7.69314 38.5736 7.74997 39.0275 7.79234 39.4309C7.89081 40.3685 7.93698 40.6438 8.01083 40.7337C8.14929 40.9023 8.27027 41.304 8.35959 41.8917C8.41198 42.2365 8.45549 42.5563 8.45627 42.6023C8.45705 42.6483 8.50834 42.789 8.57025 42.9151C8.63216 43.0411 8.683 43.1787 8.68323 43.2207C8.68345 43.2627 8.70537 43.3044 8.73196 43.3132C8.85614 43.3547 8.95562 45.7637 8.86964 46.6465C8.82201 47.1353 8.79501 47.2489 8.67595 47.4602C8.5999 47.5953 8.519 47.7174 8.49626 47.7314C8.47348 47.7455 8.45399 47.8023 8.45293 47.8575C8.44964 48.0272 8.23806 48.5894 8.16128 48.6325C8.12143 48.6548 8.0888 48.703 8.0888 48.7396C8.0888 48.7761 8.06885 48.8061 8.04442 48.8061C8.02003 48.8061 7.92865 48.961 7.84135 49.1503C7.75405 49.3396 7.65045 49.5068 7.61115 49.5219C7.57189 49.537 7.53972 49.5788 7.53972 49.6147C7.53972 49.6506 7.50934 49.6917 7.47223 49.7059C7.43508 49.7202 7.3761 49.7866 7.34118 49.8535C7.18758 50.1476 7.13844 50.2166 6.93427 50.4253C6.8153 50.5468 6.69185 50.6995 6.65987 50.7645C6.62788 50.8295 6.5317 50.9199 6.44614 50.9655C6.36057 51.011 6.25826 51.1151 6.21877 51.1968C6.17929 51.2785 6.04851 51.4384 5.92822 51.5522C5.80788 51.666 5.70946 51.7819 5.70946 51.8098C5.70946 51.8725 5.47006 52.1069 5.40609 52.1069C5.35164 52.1069 5.16038 52.3014 5.16038 52.3567C5.16038 52.4053 4.93466 52.6198 4.82063 52.6796C4.77218 52.705 4.68982 52.8102 4.63761 52.9134C4.5854 53.0165 4.45001 53.2039 4.33676 53.3297C4.22351 53.4555 4.06908 53.6493 3.99358 53.7603C3.91808 53.8713 3.77912 54.0366 3.68473 54.1277C3.58008 54.2286 3.51305 54.3362 3.51295 54.4034C3.51273 54.5388 3.30659 54.956 3.21439 55.0077C3.17738 55.0285 3.14708 55.0686 3.14708 55.0969C3.14708 55.1252 3.11103 55.1882 3.06701 55.237C2.99728 55.3143 2.98694 55.4277 2.98694 56.1162C2.98694 56.9483 3.00487 57.039 3.21842 57.2873C3.33112 57.4183 3.4968 57.8285 3.53432 58.0692C3.55038 58.1723 3.61847 58.2904 3.71932 58.3901C3.87155 58.5407 3.99276 58.7491 4.10546 59.0542C4.13383 59.131 4.24053 59.2826 4.34266 59.3912C4.44479 59.4999 4.55909 59.664 4.5967 59.756C4.63427 59.848 4.73319 59.9852 4.81651 60.0608C4.89979 60.1365 5.02173 60.3015 5.08753 60.4276C5.23835 60.7167 5.29673 60.8054 5.41629 60.9265C5.56486 61.0772 5.69285 61.2853 5.72918 61.4353C5.74734 61.5104 5.83057 61.6342 5.91408 61.7103C6.08141 61.8629 6.22966 62.1333 6.27414 62.367C6.29025 62.4514 6.37041 62.5833 6.45538 62.665C6.59677 62.801 6.75532 63.1518 6.82894 63.4917C6.8444 63.5631 6.87652 63.6457 6.90027 63.675C7.14772 63.9807 7.16525 64.0235 7.28184 64.6066C7.38031 65.0989 7.40245 65.3371 7.40245 65.903C7.40245 66.9198 7.21869 68.5223 7.0924 68.6064C7.01759 68.6562 6.80762 69.0528 6.80881 69.1421C6.81082 69.2911 6.60473 70.0523 6.54923 70.1008C6.46316 70.176 6.25854 70.597 6.25854 70.6989C6.25854 70.8813 6.04563 71.5094 5.96931 71.5521C5.92707 71.5759 5.89248 71.6227 5.89248 71.6561C5.89248 71.6896 5.86215 71.7422 5.82504 71.7731C5.78797 71.8039 5.74487 71.9044 5.72927 71.9964C5.68539 72.2552 5.51856 72.7545 5.45889 72.8056C5.30332 72.9388 5.16774 73.2784 5.13869 73.6078C5.12199 73.797 5.07888 74.1138 5.04287 74.312C4.94779 74.8349 4.95914 75.4329 5.07294 75.8986C5.15306 76.2264 5.19565 76.3157 5.33613 76.4502C5.42833 76.5385 5.56551 76.7024 5.64091 76.8145C5.78834 77.0335 5.95622 77.2296 5.9964 77.2296C6.01003 77.2296 6.17242 77.3748 6.35723 77.5523C6.54205 77.7299 6.755 77.908 6.83049 77.9482C6.90599 77.9884 6.98424 78.0495 7.00437 78.0839C7.0245 78.1183 7.07081 78.1464 7.10732 78.1464C7.14379 78.1464 7.17367 78.1704 7.17367 78.1997C7.17367 78.2835 7.4461 78.5055 7.58717 78.5365C7.65754 78.552 7.72646 78.5943 7.74037 78.6306C7.75428 78.6669 7.79715 78.6966 7.83572 78.6966C7.87425 78.6966 7.90578 78.7294 7.90578 78.7696C7.90578 78.8098 7.94696 78.8535 7.99729 78.8667C8.04762 78.8799 8.0888 78.9066 8.0888 78.9262C8.0888 78.9457 8.16599 78.993 8.26039 79.0313C8.35478 79.0695 8.56426 79.2162 8.72601 79.3571C8.88771 79.4981 9.0534 79.6135 9.09426 79.6135C9.13507 79.6135 9.28726 79.7269 9.4324 79.8655C9.57754 80.0041 9.74126 80.1291 9.79621 80.1432C9.85121 80.1573 9.95677 80.2502 10.0308 80.3496C10.1048 80.449 10.181 80.5303 10.2001 80.5303C10.2615 80.5303 10.6512 80.8104 10.6512 80.8545C10.6512 80.8779 10.6727 80.8971 10.6991 80.8971C10.7616 80.8971 11.2003 81.3366 11.2003 81.3992C11.2003 81.4256 11.2171 81.4472 11.2378 81.4472C11.2832 81.4472 11.5663 81.6959 11.5663 81.7358C11.5663 81.7889 11.7903 82.0949 11.949 82.2586C12.0361 82.3485 12.1198 82.4879 12.1349 82.5684C12.1499 82.6489 12.2551 82.8238 12.3686 82.957C12.6372 83.2722 12.6484 83.2965 12.6855 83.6478C12.7266 84.0359 12.843 84.4742 12.9327 84.5788C12.9718 84.6244 13.0453 84.7792 13.096 84.9226C13.1852 85.1752 13.1884 85.3008 13.1949 88.8282C13.1995 91.286 13.2181 92.5511 13.2522 92.7134C13.3129 93.0027 13.4045 93.1893 13.6092 93.4403C13.6936 93.5437 13.7626 93.6441 13.7626 93.6634C13.7626 93.7989 14.3106 94.2477 14.5486 94.3072C14.616 94.324 14.6823 94.3669 14.6959 94.4024C14.7095 94.438 14.7522 94.467 14.7907 94.467C14.8293 94.467 14.8608 94.4991 14.8608 94.5384C14.8608 94.6331 15.1814 94.7712 15.5333 94.828C15.7685 94.866 16.0791 94.996 16.3021 95.15C16.4176 95.2297 16.8409 95.3375 17.2046 95.3797C17.4241 95.4053 17.665 95.4579 17.74 95.4967C17.8149 95.5355 17.9066 95.5673 17.9438 95.5673C17.981 95.5673 18.043 95.5989 18.0815 95.6374C18.1661 95.7223 18.7276 95.8712 19.1248 95.9143C19.3884 95.9429 19.8808 96.1248 19.9422 96.2162C19.9765 96.2675 20.3546 96.3858 20.7284 96.4622C21.0232 96.5225 21.0811 96.5506 21.2575 96.719C21.3677 96.8244 21.606 96.9397 21.8788 97.0199C22.0263 97.0632 22.1683 97.1467 22.2618 97.2449C22.3435 97.3308 22.4286 97.4011 22.4507 97.4011C22.4728 97.4011 22.5155 97.4307 22.5455 97.4669C22.5754 97.5031 22.6617 97.5463 22.7372 97.5629C22.8126 97.5795 22.8874 97.6273 22.9032 97.669C22.9462 97.7819 23.2348 98.0827 23.329 98.1127C23.3741 98.127 23.464 98.2293 23.5287 98.34C23.5934 98.4506 23.707 98.5844 23.7811 98.6373C23.8552 98.6901 23.9914 98.8823 24.0838 99.0643C24.1761 99.2464 24.27 99.4069 24.2923 99.4211C24.3834 99.479 24.5612 99.7633 24.5612 99.8512C24.5613 99.9775 24.8193 100.518 24.8796 100.518C24.9058 100.518 24.9272 100.541 24.9272 100.569C24.9272 100.596 24.9665 100.669 25.0146 100.73C25.0626 100.791 25.1164 100.947 25.1342 101.077C25.1796 101.407 25.3277 101.908 25.3962 101.963C25.4983 102.044 25.6535 102.46 25.683 102.731C25.7167 103.04 25.8677 103.595 25.9284 103.633C26.0305 103.696 26.2007 104.185 26.2319 104.505C26.2669 104.862 26.3977 105.238 26.5091 105.3C26.5451 105.32 26.5745 105.357 26.5745 105.382C26.5745 105.407 26.6137 105.483 26.6617 105.552C26.7097 105.62 26.7626 105.756 26.7793 105.854C26.8163 106.071 26.9223 106.272 27.0956 106.455C27.1672 106.531 27.2768 106.7 27.3392 106.831C27.4391 107.041 27.6892 107.301 27.7954 107.305C27.8159 107.305 27.8932 107.368 27.967 107.443C28.0409 107.518 28.1953 107.634 28.3102 107.699C28.6454 107.891 29.4034 107.918 32.6284 107.854C34.1336 107.825 35.8117 107.815 36.3576 107.833C37.3266 107.864 37.3567 107.868 37.6247 107.997C37.7757 108.07 37.9301 108.149 37.9679 108.173C38.1002 108.256 38.3586 108.355 38.5546 108.398C38.6633 108.422 38.7885 108.474 38.8327 108.514C38.8769 108.554 38.9321 108.587 38.9553 108.588C38.9784 108.588 39.0433 108.637 39.0995 108.697C39.1556 108.756 39.3167 108.863 39.4574 108.934C39.5981 109.006 39.7354 109.106 39.7624 109.158C39.8382 109.303 39.989 109.435 40.1528 109.501C40.2345 109.534 40.3015 109.587 40.3015 109.619C40.3015 109.696 40.6618 110.054 40.7394 110.054C40.773 110.054 40.835 110.127 40.8771 110.216C40.9193 110.305 41.0427 110.442 41.1514 110.52C41.2602 110.598 41.3689 110.719 41.3931 110.789C41.4415 110.928 41.6221 111.154 41.6846 111.154C41.7433 111.154 41.9456 111.397 41.9472 111.469C41.9481 111.503 42.0599 111.642 42.1957 111.779C42.3316 111.915 42.4985 112.133 42.5665 112.263C42.6345 112.393 42.7704 112.577 42.8685 112.672C42.9666 112.766 43.0469 112.879 43.0469 112.923C43.0469 112.967 43.1704 113.121 43.3214 113.267C43.4724 113.412 43.5959 113.559 43.5959 113.592C43.5959 113.626 43.6605 113.705 43.7394 113.768C43.9178 113.91 44.0184 114.02 44.1554 114.225C44.2141 114.313 44.3055 114.407 44.3584 114.433C44.4518 114.48 44.5131 114.544 44.7652 114.856C44.8312 114.938 44.9206 115.005 44.9637 115.005C45.0069 115.005 45.1125 115.078 45.1983 115.167C45.29 115.261 45.4306 115.347 45.539 115.375C45.6405 115.401 45.7648 115.44 45.8151 115.463C45.9913 115.544 46.5518 115.581 47.0735 115.547C47.6649 115.509 48.444 115.359 48.5155 115.27C48.5682 115.205 48.6974 115.117 48.8351 115.054C48.9392 115.007 49.5094 114.837 49.6816 114.802C49.7445 114.79 49.8619 114.719 49.9424 114.645C50.0305 114.564 50.2581 114.452 50.5144 114.363C50.7484 114.282 50.9502 114.201 50.9628 114.184C51.0387 114.079 51.3328 113.912 51.489 113.885C51.7737 113.836 52.1682 113.709 52.244 113.642C52.3837 113.519 52.6621 113.355 52.7316 113.355C52.8872 113.355 53.7811 113.113 53.849 113.052C53.8888 113.017 53.9511 112.988 53.9876 112.988C54.024 112.988 54.1005 112.955 54.1574 112.915C54.4064 112.741 56.6532 112.71 57.1028 112.876C57.2112 112.916 57.3412 112.961 57.3916 112.976C57.4419 112.992 57.5037 113.03 57.5288 113.061C57.554 113.093 57.8259 113.18 58.1331 113.254C58.6091 113.37 58.7158 113.412 58.855 113.544C58.9448 113.629 59.0744 113.713 59.1429 113.731C59.4856 113.818 59.8051 113.966 59.9623 114.111C60.0584 114.199 60.161 114.271 60.1904 114.272C60.3064 114.272 60.7394 114.524 60.8691 114.666C61.0158 114.827 61.3205 115.005 61.4495 115.005C61.4927 115.005 61.5444 115.032 61.5646 115.065C61.6239 115.162 61.9029 115.346 62.1731 115.466C62.3116 115.528 62.5004 115.656 62.5928 115.75C62.6852 115.845 62.7913 115.922 62.8285 115.922C62.9578 115.922 63.3526 116.135 63.4832 116.274C63.6566 116.46 63.7439 116.501 64.1911 116.608C64.3985 116.658 64.5824 116.722 64.5998 116.75C64.6334 116.804 64.7742 116.893 64.9643 116.978C65.0369 117.011 65.2878 117.024 65.6506 117.013C66.1561 116.997 66.2439 116.983 66.4056 116.885C66.5063 116.824 66.6051 116.748 66.6253 116.715C66.6454 116.682 66.6935 116.656 66.7322 116.656C66.8415 116.656 67.3894 116.389 67.3894 116.336C67.3894 116.31 67.4193 116.289 67.4557 116.289C67.4923 116.289 67.5403 116.256 67.5624 116.217C67.6017 116.147 67.7058 116.076 67.9385 115.961C68.0875 115.888 68.3045 115.689 68.3045 115.626C68.3045 115.599 68.3422 115.557 68.3883 115.532C68.4344 115.507 68.5473 115.447 68.6391 115.398C68.7453 115.342 68.8231 115.259 68.8529 115.169C68.8961 115.039 69.0907 114.867 69.2727 114.798C69.3144 114.782 69.3732 114.71 69.4034 114.637C69.4335 114.564 69.5567 114.441 69.6772 114.363C69.799 114.285 69.9209 114.163 69.9518 114.088C69.9826 114.014 70.1045 113.892 70.2263 113.813C70.3468 113.736 70.4698 113.613 70.4998 113.541C70.5297 113.468 70.6458 113.351 70.7577 113.28C70.8696 113.209 71.0017 113.083 71.0511 112.999C71.1005 112.915 71.208 112.818 71.2899 112.783C71.4493 112.716 71.5546 112.625 71.7358 112.397C71.7984 112.319 71.8678 112.255 71.89 112.255C71.9685 112.255 72.3278 112.002 72.3294 111.945C72.3304 111.914 72.3626 111.888 72.4012 111.888C72.4397 111.888 72.4827 111.858 72.4968 111.821C72.5108 111.785 72.5945 111.731 72.6828 111.702C72.7711 111.673 72.8979 111.62 72.9647 111.585C73.0315 111.55 73.1111 111.522 73.1417 111.521C73.1723 111.521 73.2193 111.48 73.2462 111.429C73.2732 111.379 73.318 111.338 73.3458 111.338C73.3735 111.338 73.4192 111.31 73.4471 111.275C73.5022 111.208 74.218 110.971 74.3673 110.971C74.4176 110.971 74.5262 110.929 74.6086 110.879C74.691 110.829 74.7837 110.787 74.8145 110.787C74.8454 110.787 74.9324 110.752 75.0079 110.709C75.1215 110.645 75.3068 110.629 76.0832 110.615C76.5991 110.606 77.1653 110.618 77.3415 110.642C77.7682 110.701 78.333 110.829 78.3958 110.881C78.4696 110.942 79.3385 111.099 79.7894 111.133C80.1987 111.163 80.8171 111.313 80.9334 111.41C80.9711 111.442 81.1976 111.514 81.4367 111.572C81.8361 111.667 81.9828 111.676 83.2441 111.678C84.8159 111.682 84.8975 111.669 85.2132 111.361C85.3272 111.25 85.46 111.147 85.5083 111.132C85.5565 111.116 85.6399 111.033 85.6935 110.946C85.7471 110.859 85.8099 110.788 85.8331 110.788C85.8562 110.788 85.8751 110.757 85.8751 110.719C85.8751 110.681 85.9049 110.65 85.9414 110.65C86.0254 110.65 86.2199 110.391 86.2584 110.228C86.2907 110.091 86.4737 109.871 86.5553 109.871C86.5838 109.871 86.6072 109.844 86.6072 109.812C86.6072 109.779 86.6484 109.672 86.6987 109.573C86.749 109.474 86.7904 109.351 86.7905 109.299C86.7909 109.194 86.8949 109.029 87.0665 108.861C87.1694 108.76 87.282 108.476 87.3571 108.126C87.3709 108.062 87.4555 107.936 87.545 107.846C87.702 107.689 87.8884 107.272 87.8884 107.078C87.8884 106.963 87.982 106.753 88.033 106.753C88.0541 106.753 88.0714 106.723 88.0714 106.687C88.0714 106.65 88.1051 106.601 88.1463 106.578C88.2239 106.535 88.4324 106.097 88.4356 105.971C88.4366 105.931 88.5301 105.802 88.6433 105.683C88.7566 105.565 88.8493 105.44 88.8493 105.405C88.8493 105.371 88.88 105.284 88.9176 105.211C88.9552 105.139 88.9861 105.044 88.9863 105C88.9864 104.956 89.0682 104.84 89.168 104.743C89.2678 104.646 89.4037 104.458 89.4699 104.326C89.5411 104.184 89.6494 104.051 89.7346 104C89.8139 103.953 89.9358 103.823 90.0055 103.711C90.0753 103.6 90.1922 103.484 90.2653 103.454C90.3385 103.423 90.4508 103.319 90.5148 103.222C90.59 103.108 90.7107 103.009 90.8551 102.943C90.9782 102.886 91.1177 102.78 91.1652 102.706C91.2575 102.563 91.5278 102.424 91.8574 102.35C91.9904 102.32 92.1105 102.251 92.2054 102.15C92.3333 102.014 92.4059 101.985 92.8254 101.899C93.0866 101.846 93.3447 101.802 93.3988 101.802C93.4528 101.802 93.5734 101.763 93.6668 101.715C93.7601 101.668 93.893 101.615 93.962 101.597C94.031 101.58 94.0995 101.546 94.1142 101.522C94.1494 101.465 94.9881 101.363 96.1133 101.278C96.6107 101.241 97.0999 101.181 97.2003 101.146C97.3007 101.111 97.4592 101.068 97.5525 101.051C97.6458 101.033 97.7797 100.989 97.85 100.953C97.9202 100.916 98.0627 100.886 98.1666 100.886C98.2705 100.885 98.5897 100.844 98.8759 100.794C99.162 100.744 99.4633 100.703 99.5453 100.702C99.6374 100.702 99.7245 100.667 99.7728 100.61C99.8159 100.56 99.8782 100.518 99.9111 100.518C99.944 100.518 99.9823 100.489 99.9962 100.453C100.01 100.416 100.196 100.331 100.409 100.263C100.757 100.152 100.805 100.123 100.881 99.9737C100.928 99.8825 101.03 99.7703 101.109 99.7245C101.293 99.6168 101.37 99.4903 101.409 99.2348C101.444 99.0039 101.592 98.6808 101.688 98.6256C101.826 98.546 101.93 97.9954 101.979 97.0712C102.006 96.5745 102.047 96.1158 102.072 96.0516C102.096 95.9875 102.129 95.7956 102.144 95.6251C102.16 95.4547 102.212 95.1965 102.26 95.0514C102.308 94.9063 102.347 94.7309 102.347 94.6617C102.347 94.5925 102.377 94.2676 102.414 93.9398C102.451 93.612 102.5 93.0757 102.523 92.7479C102.551 92.3589 102.591 92.1041 102.639 92.0144C102.68 91.9387 102.713 91.8521 102.713 91.8218C102.713 91.7916 102.745 91.7493 102.783 91.728C102.86 91.6847 103.006 91.2162 103.056 90.8509C103.08 90.6751 103.134 90.5555 103.262 90.3934C103.357 90.2727 103.491 90.0295 103.56 89.8531C103.648 89.6268 103.725 89.5063 103.821 89.4439C103.896 89.3952 104.033 89.2424 104.125 89.1043C104.218 88.9663 104.335 88.8322 104.385 88.8064C104.5 88.7473 104.681 88.5669 104.681 88.5106C104.681 88.4873 104.796 88.4024 104.936 88.322C105.099 88.2287 105.216 88.1231 105.261 88.0295C105.313 87.9193 105.407 87.8473 105.639 87.7388C105.809 87.6595 106.015 87.5318 106.097 87.455C106.179 87.3782 106.262 87.3153 106.282 87.3153C106.399 87.3153 106.851 87.0638 106.978 86.9282C107.099 86.7996 107.21 86.7444 107.534 86.6519C107.83 86.5674 107.964 86.5044 108.032 86.4184C108.158 86.2579 108.425 86.0953 108.667 86.0319C108.777 86.0029 108.889 85.9549 108.915 85.9252C109.011 85.8144 109.668 85.4815 109.79 85.4815C109.825 85.4815 109.943 85.399 110.052 85.2982C110.161 85.1973 110.282 85.1148 110.32 85.1148C110.357 85.1148 110.441 85.0735 110.505 85.0231C110.569 84.9727 110.643 84.9314 110.669 84.9314C110.696 84.9314 110.74 84.8901 110.767 84.8397C110.794 84.7893 110.846 84.748 110.883 84.748C110.92 84.748 110.95 84.7289 110.95 84.7054C110.95 84.652 111.346 84.3813 111.424 84.3813C111.487 84.3813 111.682 84.1395 111.682 84.0612C111.682 84.0344 111.762 83.9253 111.86 83.8187C112.171 83.48 112.222 83.33 112.255 82.6621C112.271 82.3343 112.263 81.6517 112.237 81.1453C112.198 80.3911 112.172 80.1795 112.092 79.9762C112.039 79.8397 111.969 79.6971 111.936 79.6593C111.855 79.5634 111.728 79.0212 111.681 78.5691C111.659 78.3604 111.609 78.1251 111.57 78.0464C111.531 77.9676 111.499 77.8828 111.499 77.8579C111.499 77.833 111.46 77.7279 111.412 77.6243C111.236 77.2383 111.172 76.7807 111.12 75.5286C111.084 74.6428 111.084 74.072 111.12 73.4427C111.175 72.4994 111.229 72.2787 111.47 72.0262C111.618 71.8704 111.682 71.7297 111.682 71.5596C111.682 71.4437 111.855 71.0781 111.924 71.0476C112.059 70.988 112.225 70.7889 112.25 70.6557C112.266 70.5699 112.309 70.4744 112.346 70.4436C112.384 70.4127 112.414 70.3591 112.414 70.3244C112.414 70.2896 112.441 70.2612 112.474 70.2612C112.54 70.2612 112.734 70.0204 112.734 69.9388C112.734 69.9107 112.832 69.7873 112.952 69.6646C113.211 69.3982 113.221 69.3858 113.41 69.0881C113.491 68.9597 113.61 68.8307 113.675 68.8015C113.739 68.7722 113.816 68.6916 113.846 68.6222C113.915 68.4636 114.107 68.2441 114.176 68.2441C114.239 68.2441 114.427 68.0507 114.427 67.9861C114.427 67.9274 114.669 67.6939 114.73 67.6939C114.78 67.6939 114.976 67.4466 114.976 67.3829C114.976 67.3295 115.176 67.1438 115.234 67.1438C115.308 67.1438 115.525 66.8932 115.525 66.8071C115.525 66.7634 115.627 66.6276 115.751 66.5053C115.894 66.3644 115.997 66.213 116.033 66.0918C116.065 65.9866 116.128 65.8805 116.174 65.8559C116.22 65.8312 116.257 65.7808 116.257 65.7439C116.257 65.707 116.288 65.6768 116.325 65.6768C116.403 65.6768 116.624 65.2368 116.624 65.0814C116.624 64.9665 116.779 64.6177 116.908 64.4443C117.014 64.3016 117.024 63.561 116.922 63.3846C116.886 63.3215 116.843 63.239 116.828 63.2012C116.812 63.1634 116.762 63.0499 116.716 62.949C116.67 62.8482 116.618 62.6542 116.6 62.518C116.555 62.1765 116.462 61.9737 116.253 61.7643C116.155 61.6661 116.074 61.5546 116.074 61.5164C116.074 61.4199 115.9 61.1455 115.721 60.9591C115.638 60.8732 115.549 60.7184 115.523 60.6152C115.46 60.3645 115.382 60.2156 115.297 60.1851C115.183 60.1436 114.983 59.8979 114.953 59.7612C114.938 59.6907 114.895 59.6216 114.859 59.6077C114.823 59.5937 114.793 59.5601 114.793 59.5328C114.793 59.5055 114.721 59.4082 114.632 59.3165C114.541 59.223 114.449 59.0679 114.423 58.9635C114.371 58.7595 114.268 58.6114 114.125 58.535C114.033 58.4853 113.978 58.3892 113.781 57.9362C113.723 57.8015 113.644 57.6672 113.605 57.6378C113.452 57.5211 113.362 57.3728 113.325 57.1761C113.304 57.0628 113.229 56.8842 113.159 56.7794C112.877 56.358 112.82 56.2157 112.776 55.8344C112.734 55.4593 112.615 55.0803 112.471 54.8575C112.409 54.7634 112.396 54.6025 112.394 53.9598C112.391 53.2575 112.401 53.1536 112.489 52.9513C112.65 52.5791 112.73 52.2432 112.761 51.8084C112.777 51.5817 112.817 51.3397 112.85 51.2707C112.883 51.2016 112.923 51.0831 112.94 51.0073C112.957 50.9316 112.999 50.8534 113.035 50.8335C113.111 50.7906 113.329 50.1878 113.329 50.0188C113.329 49.8775 113.502 49.4456 113.586 49.3753C113.672 49.304 113.827 48.9226 113.862 48.6989C113.894 48.4928 114.091 48.0726 114.156 48.0726C114.229 48.0726 114.371 47.6884 114.422 47.3568C114.449 47.1775 114.503 46.9712 114.541 46.8984C114.579 46.8256 114.61 46.7321 114.61 46.6907C114.61 46.6492 114.639 46.6044 114.673 46.5911C114.708 46.5778 114.783 46.4157 114.84 46.2309C114.924 45.961 114.948 45.7507 114.966 45.1614C114.995 44.1868 114.954 43.9936 114.654 43.6789C114.529 43.5475 114.427 43.4148 114.426 43.3839C114.426 43.353 114.385 43.2761 114.336 43.2131C114.286 43.15 114.246 43.0736 114.245 43.0433C114.245 43.0129 114.171 42.9533 114.081 42.9108C113.992 42.8682 113.864 42.7616 113.797 42.6739C113.73 42.5861 113.595 42.4601 113.496 42.3938C113.396 42.3275 113.284 42.2526 113.246 42.2274C113.208 42.2022 113.103 42.1073 113.013 42.0167C112.816 41.8195 112.583 41.6548 112.498 41.6531C112.465 41.6524 112.385 41.5801 112.322 41.4925C112.259 41.4049 112.097 41.2765 111.961 41.2073C111.825 41.138 111.636 41.004 111.54 40.9094C111.444 40.8148 111.326 40.7375 111.277 40.7375C111.229 40.7375 111.165 40.7078 111.135 40.6716C111.105 40.6355 111.024 40.5933 110.954 40.5779C110.882 40.5622 110.771 40.4761 110.699 40.3801C110.629 40.2867 110.486 40.1667 110.383 40.1136C110.279 40.0605 110.138 39.9328 110.068 39.8298C109.998 39.7268 109.895 39.6282 109.84 39.6105C109.718 39.5719 109.486 39.4046 109.486 39.3559C109.486 39.2985 109.273 39.0871 109.216 39.0871C109.152 39.0871 108.891 38.8279 108.891 38.7646C108.891 38.7402 108.871 38.7203 108.848 38.7203C108.786 38.7203 108.388 38.3487 108.386 38.2892C108.384 38.2193 108.194 38.0102 108.099 37.9739C108.056 37.9574 108.021 37.9174 108.02 37.8851C108.02 37.8528 107.979 37.7748 107.93 37.7117C107.881 37.6487 107.84 37.5707 107.839 37.5384C107.839 37.5061 107.766 37.4133 107.677 37.3321C107.555 37.221 107.488 37.0961 107.402 36.8268C107.34 36.6301 107.289 36.4336 107.289 36.3901C107.289 36.3466 107.255 36.2624 107.214 36.2029C107.172 36.1436 107.093 36.0091 107.037 35.9042C106.813 35.4815 106.736 33.8626 106.802 30.9038C106.853 28.5642 106.81 27.4691 106.657 27.2595C106.611 27.1963 106.56 27.1085 106.544 27.0644C106.528 27.0203 106.495 26.9842 106.471 26.9842C106.447 26.9842 106.413 26.9171 106.396 26.8352C106.379 26.7532 106.326 26.618 106.278 26.5346C106.23 26.4512 106.191 26.3568 106.191 26.3248C106.191 26.2627 106.003 26.0673 105.944 26.0673C105.894 26.0673 105.352 25.6538 105.311 25.5851C105.293 25.5545 105.128 25.4838 104.945 25.4281C104.762 25.3723 104.582 25.3073 104.544 25.2835C104.506 25.2597 104.41 25.2102 104.331 25.1735C104.251 25.1368 104.178 25.0834 104.169 25.0547C104.159 25.026 104.008 24.9758 103.833 24.9432C103.658 24.9106 103.38 24.8585 103.217 24.8276C103.053 24.7966 102.865 24.7328 102.798 24.6858C102.731 24.6388 102.65 24.6003 102.619 24.6003C102.587 24.6003 102.524 24.5675 102.48 24.5275C102.435 24.4867 102.253 24.436 102.065 24.4122C101.583 24.351 100.95 24.2158 100.877 24.1585C100.747 24.0565 100.303 23.8757 100.105 23.8442C99.8272 23.7999 99.367 23.6445 99.2781 23.5648C99.2384 23.5291 99.1843 23.5 99.158 23.5C99.1315 23.5 99.0848 23.4696 99.054 23.4324C99.0232 23.3953 98.9229 23.3513 98.8311 23.3346C98.54 23.2818 98.165 23.1236 98.0373 22.9996C97.9694 22.9338 97.7583 22.8087 97.5683 22.7217C97.3782 22.6348 97.2227 22.5364 97.2227 22.5031C97.2227 22.4699 97.1926 22.4311 97.1558 22.417C97.119 22.4028 97.0781 22.357 97.0649 22.3152C97.0516 22.2734 96.9742 22.2097 96.8928 22.1736C96.7382 22.105 96.4906 21.8637 96.4906 21.7816C96.4906 21.7554 96.4267 21.6826 96.3485 21.6199C96.1093 21.4276 96.0411 21.3436 95.9308 21.1046C95.8872 21.0101 95.8306 20.9327 95.805 20.9327C95.7794 20.9327 95.7585 20.9011 95.7585 20.8625C95.7585 20.8239 95.7271 20.7802 95.6888 20.7655C95.6138 20.7367 95.3925 20.2905 95.3925 20.1682C95.3925 20.1274 95.3193 20.0045 95.2298 19.8951C95.0762 19.7073 94.8434 19.1517 94.8434 18.973C94.8434 18.892 94.7203 18.6319 94.5775 18.4113C94.5044 18.2982 94.3023 17.4422 94.2961 17.2193C94.2944 17.1563 94.2632 17.0531 94.2268 16.9901C94.1904 16.9271 94.1462 16.8445 94.1285 16.8067C94.1108 16.7689 94.0615 16.6864 94.0188 16.6233C93.9762 16.5603 93.8935 16.2921 93.8351 16.0274C93.7421 15.6058 93.6661 15.419 93.4251 15.0188C93.4024 14.981 93.3421 14.7467 93.2914 14.4983C93.2109 14.1052 93.1793 14.028 93.0467 13.9023C92.8938 13.7574 92.724 13.452 92.6682 13.2218C92.6518 13.1538 92.5855 13.0634 92.5208 13.021C92.363 12.9174 92.1225 12.6734 92.0871 12.5809C92.0713 12.5397 91.9938 12.4918 91.9149 12.4744C91.8361 12.4571 91.7163 12.414 91.6488 12.3787C91.5813 12.3434 91.4686 12.3144 91.3984 12.3142C91.3282 12.3141 91.19 12.2727 91.0913 12.2223C90.9927 12.1719 90.8575 12.1306 90.7909 12.1306C90.7243 12.1306 90.5477 12.0989 90.3984 12.0601C90.1846 12.0046 89.9163 11.9928 89.1335 12.0044C88.5871 12.0125 88.0268 12.0429 87.8884 12.0721C86.8637 12.2875 86.8581 12.288 85.1065 12.3042C83.221 12.3217 83.459 12.3489 82.7865 12.0389C82.6858 11.9925 82.377 11.9197 82.1002 11.8771C81.5757 11.7965 81.2994 11.7107 81.2994 11.6286C81.2994 11.6021 81.2695 11.5805 81.2331 11.5805C81.1966 11.5805 81.1503 11.5525 81.1301 11.5184C81.11 11.4842 80.9471 11.3888 80.7682 11.3063C80.5478 11.2047 80.4171 11.1125 80.3628 11.0203C80.3187 10.9455 80.1901 10.8256 80.0772 10.7538C79.9642 10.682 79.8103 10.5395 79.7351 10.4371C79.66 10.3347 79.5694 10.251 79.5338 10.251C79.4982 10.251 79.4691 10.2303 79.4691 10.2051C79.4691 10.1799 79.439 10.1593 79.4021 10.1593C79.3653 10.1593 79.3105 10.1133 79.2805 10.0571C79.2505 10.0008 79.2034 9.92938 79.1759 9.8982C78.9977 9.69612 78.8941 9.60915 78.8317 9.60915C78.8061 9.60915 78.7533 9.54754 78.7145 9.47222C78.6145 9.27843 78.3734 9.01318 78.2972 9.01318C78.2619 9.01318 78.2 8.93066 78.1597 8.8298C78.1195 8.72894 78.0682 8.64642 78.0457 8.64642C78.0233 8.64642 78.0049 8.61355 78.0049 8.57335C78.0049 8.53319 77.9638 8.4895 77.9134 8.47634C77.8631 8.46314 77.8219 8.42316 77.8219 8.38749C77.8219 8.35183 77.7915 8.31093 77.7544 8.29668C77.7173 8.28242 77.6583 8.21599 77.6234 8.1491C77.4607 7.83773 77.4189 7.77753 77.2628 7.63005C77.1711 7.54341 77.0813 7.4117 77.0634 7.33738C77.0215 7.16446 76.8726 6.95018 76.7942 6.95018C76.7608 6.95018 76.7217 6.91924 76.7072 6.88142C76.6927 6.84359 76.6494 6.81265 76.6108 6.81265C76.5708 6.81265 76.5407 6.77258 76.5407 6.71926C76.5407 6.63042 76.1631 6.21667 76.0821 6.21667C76.0609 6.21667 76.0298 6.17307 76.0129 6.1198C75.996 6.06653 75.7115 5.75401 75.3807 5.42531C74.9221 4.96975 74.7404 4.81883 74.6165 4.79046C74.527 4.76996 74.3623 4.7 74.2504 4.635C73.9403 4.45474 73.9222 4.4452 73.7366 4.36552C73.5173 4.27141 72.9491 4.26811 72.7887 4.35998C72.7258 4.39601 72.6307 4.42622 72.5775 4.42714C72.5243 4.42801 72.4316 4.46624 72.3716 4.51213C72.2465 4.60767 71.6826 4.77496 71.352 4.81462C71.2287 4.82938 71.1051 4.85936 71.0774 4.88127C71.0497 4.90319 70.9499 4.946 70.8555 4.97645C70.7611 5.00693 70.6839 5.04934 70.6839 5.07075C70.6839 5.13282 70.2177 5.32963 69.9893 5.36397C69.8499 5.38492 69.7219 5.44571 69.6031 5.54753C69.3928 5.72783 69.0432 5.89576 68.8781 5.89576C68.7508 5.89576 68.3045 6.11073 68.3045 6.17207C68.3045 6.1927 68.2273 6.23446 68.1329 6.26495C68.0386 6.29539 67.9378 6.33898 67.909 6.36182C67.8801 6.3846 67.7388 6.42251 67.5948 6.44599C67.3357 6.48821 66.9515 6.64486 66.8632 6.74425C66.7796 6.83846 66.3023 6.95275 65.8129 6.99584C65.5471 7.01922 65.2319 7.06887 65.1126 7.1061C64.8155 7.19889 64.3842 7.27109 64.1273 7.27109C63.8289 7.27109 63.2778 7.18238 63.0968 7.10523C63.0134 7.0697 62.756 7.02092 62.5249 6.9969C62.0663 6.94922 61.5799 6.80403 61.5201 6.69698C61.4993 6.65976 61.4608 6.62927 61.4345 6.62927C61.4083 6.62927 61.3345 6.58801 61.2705 6.53758C61.2065 6.48715 61.1003 6.44603 61.0345 6.44617C60.8735 6.44654 60.4361 6.25399 60.4352 6.18229C60.4347 6.15079 60.4168 6.12498 60.3953 6.12498C60.3738 6.12498 60.3007 6.07341 60.2328 6.01037C60.1649 5.94734 60.0683 5.89576 60.0181 5.89576C59.9247 5.89576 59.5932 5.73517 59.4723 5.63138C59.3151 5.49655 59.0616 5.35287 58.9293 5.32381C58.8511 5.30657 58.7871 5.27489 58.7871 5.25339C58.7871 5.23189 58.746 5.20118 58.6956 5.18518C58.6453 5.16918 58.6041 5.13039 58.6041 5.09903C58.6041 5.01422 58.3684 4.85537 58.1585 4.79875C58.0571 4.77139 57.9487 4.71821 57.9175 4.68057C57.8863 4.64293 57.8332 4.61212 57.7994 4.61212C57.7656 4.61212 57.7159 4.57086 57.689 4.52043C57.662 4.47 57.6201 4.42874 57.5959 4.42874C57.5716 4.42874 57.5105 4.38748 57.4602 4.33706C57.4099 4.28663 57.3197 4.24537 57.2598 4.24537C57.195 4.24537 57.0756 4.17211 56.9645 4.0641C56.7822 3.88682 56.5088 3.73677 56.2611 3.678C56.1111 3.64242 55.813 3.47115 55.813 3.42053C55.813 3.40045 55.6837 3.33219 55.5256 3.26879C55.2846 3.17215 55.1388 3.14982 54.6219 3.13034C54.2829 3.1176 53.8615 3.12186 53.6853 3.13983Z" fill="#1BB492" fill-opacity="0.77"/>
<path fill-rule="evenodd" clip-rule="evenodd" d="M76.9749 29.7824C76.8553 30.015 76.7574 30.4503 76.7573 30.7497C76.7571 31.4708 76.3884 33.2193 76.0258 34.2182C75.8658 34.6591 75.6976 35.1489 75.6523 35.3065C75.5343 35.716 74.6542 37.3453 74.1532 38.082C73.9191 38.4264 73.3045 39.1589 72.7874 39.7099C70.4657 42.1844 67.2335 43.7796 63.7165 44.1866C62.8002 44.2928 62.22 44.5715 62.22 44.9056C62.22 45.1998 62.6239 45.3792 63.5137 45.4801C67.7183 45.9569 71.4216 48.016 73.7734 51.1847C75.4012 53.378 76.7574 56.8467 76.7574 58.8163C76.7574 59.1736 76.8553 59.6564 76.9749 59.889C77.3911 60.6982 78.3252 60.2498 78.3252 59.2409C78.3252 58.5483 78.7203 56.6624 79.1092 55.4972C79.8207 53.3663 80.8938 51.653 82.6196 49.8923C84.9474 47.5175 87.7306 46.1622 91.2913 45.6696C92.5464 45.4959 93.0052 45.2676 93.0052 44.8168C93.0052 44.4044 92.455 44.1476 91.2236 43.985C90.5965 43.9021 89.843 43.7696 89.549 43.6902C89.2551 43.611 88.8061 43.4896 88.5513 43.4207C85.0922 42.4839 81.5491 39.5562 79.9105 36.2808C79.0382 34.5376 78.6684 33.2562 78.3307 30.8086C78.2504 30.2262 78.1123 29.6619 78.0236 29.5547C77.7376 29.208 77.2116 29.3223 76.9749 29.7824ZM35.1404 39.0603C34.2579 39.1556 33.418 39.5115 32.2699 40.2769C31.3069 40.9187 30.6241 41.6919 30.0295 42.8137C29.1433 44.4852 29.1588 44.2117 29.1565 58.2461C29.1544 70.8378 29.1585 71.0241 29.4542 71.9299C30.1069 73.9287 31.1621 75.2822 32.7866 76.204C34.2432 77.0304 34.7998 77.1344 38.2047 77.2167L41.3402 77.2923L41.3745 83.0958C41.3998 87.3597 41.4558 88.9943 41.5853 89.2576C42.0612 90.2237 43.3428 90.8749 44.1736 90.573C44.4293 90.48 44.7384 90.4039 44.8604 90.4039C45.1737 90.4039 46.2828 89.3414 52.6925 82.8999L58.3439 77.2207H68.075C74.8995 77.2207 77.9582 77.1724 78.3151 77.0592C79.3474 76.7315 80.6056 76.1816 80.6056 76.0581C80.6056 75.9882 80.6932 75.931 80.8003 75.931C81.1355 75.931 82.5258 74.4654 83.043 73.5666C83.9948 71.9127 84.0374 71.5474 84.0274 65.1345C84.0186 59.5531 84.0046 59.4645 83.0672 59.0708C82.3992 58.7902 81.7421 58.9199 81.1859 59.4423L80.7481 59.8534V64.9628C80.7481 70.4856 80.6935 71.0101 80.0137 72.0151C79.5328 72.7262 78.6432 73.495 78.3011 73.495C78.1668 73.495 78.0173 73.5595 77.9689 73.6383C77.9114 73.7317 74.2238 73.7816 67.3709 73.7816C61.3125 73.7816 56.8038 73.8363 56.7257 73.911C56.6513 73.9822 56.4735 74.0627 56.331 74.0901C56.1883 74.1174 53.7425 76.4857 50.8956 79.3528C47.8463 82.4238 45.6542 84.5253 45.5609 84.4672C45.4496 84.3981 45.4021 83.0011 45.4021 79.7983C45.4021 75.2175 45.3584 74.753 44.8795 74.2473C44.7861 74.1487 44.6128 74.0682 44.4942 74.0682C44.3758 74.0682 44.2391 74.0037 44.1907 73.9249C44.1351 73.8344 42.5085 73.7816 39.7814 73.7816C34.9748 73.7816 34.886 73.7672 33.8434 72.8202C33.5256 72.5314 33.1101 71.9869 32.9201 71.6102L32.575 70.9251V58.0906V45.2561L32.9428 44.5262C33.4066 43.6061 33.7724 43.2392 34.7321 42.7321L35.4967 42.328L49.0599 42.2893L62.6229 42.2508L63.0629 41.7471C63.4169 41.3416 63.5027 41.1157 63.5027 40.5891C63.5027 40.0363 63.4277 39.8596 63.0181 39.4478L62.5335 38.9606L49.0864 38.9835C41.6905 38.9961 35.4147 39.0306 35.1404 39.0603ZM58.6569 52.8682C58.6569 52.9513 58.9134 53.3991 59.227 53.8634C59.5405 54.3277 59.7971 54.8038 59.7971 54.9218C59.7971 55.0397 59.8521 55.1702 59.9192 55.2121C60.1395 55.3489 60.4083 57.0031 60.3251 57.71C60.2089 58.6956 59.7356 59.9635 59.156 60.8412C58.8815 61.2569 58.6569 61.6302 58.6569 61.6709C58.6569 61.8716 59.1356 61.6941 59.8203 61.2393C60.7649 60.6116 61.7127 60.3055 63.0038 60.2111C64.1921 60.1241 65.371 60.4678 66.603 61.2602C67.7147 61.9751 67.9084 61.8183 67.2132 60.766C65.6227 58.3586 65.6934 55.7493 67.4114 53.4409C67.9131 52.767 67.6704 52.5473 66.9957 53.0646C65.6405 54.1038 63.7169 54.5949 62.1356 54.3052C61.2281 54.1389 59.6723 53.4193 59.2813 52.9848C59.0192 52.6936 58.6569 52.6259 58.6569 52.8682Z" fill="#44546B"/>
<path fill-rule="evenodd" clip-rule="evenodd" d="M77.1702 29.7824C77.0506 30.015 76.9527 30.4503 76.9526 30.7497C76.9524 31.4708 76.5837 33.2193 76.2212 34.2182C76.0611 34.6591 75.8929 35.1489 75.8476 35.3065C75.7296 35.716 74.8495 37.3453 74.3485 38.082C74.1144 38.4264 73.4998 39.1589 72.9827 39.7099C70.661 42.1844 67.4288 43.7796 63.9118 44.1866C62.9955 44.2928 62.4153 44.5715 62.4153 44.9056C62.4153 45.1998 62.8192 45.3792 63.709 45.4801C67.9136 45.9569 71.6169 48.016 73.9687 51.1847C75.5965 53.378 76.9527 56.8467 76.9527 58.8163C76.9527 59.1736 77.0506 59.6564 77.1702 59.889C77.5864 60.6982 78.5205 60.2498 78.5205 59.2409C78.5205 58.5483 78.9156 56.6624 79.3045 55.4972C80.016 53.3663 81.0891 51.653 82.8149 49.8923C85.1427 47.5175 87.9259 46.1622 91.4866 45.6695C92.7417 45.4959 93.2005 45.2676 93.2005 44.8168C93.2005 44.4044 92.6503 44.1476 91.4189 43.985C90.7918 43.9021 90.0383 43.7696 89.7443 43.6902C89.4504 43.611 89.0014 43.4896 88.7466 43.4207C85.2875 42.4839 81.7444 39.5562 80.1058 36.2808C79.2335 34.5376 78.8637 33.2562 78.5261 30.8086C78.4457 30.2262 78.3076 29.6619 78.2189 29.5547C77.9329 29.208 77.407 29.3223 77.1702 29.7824ZM58.8522 52.8682C58.8522 52.9513 59.1087 53.3991 59.4223 53.8634C59.7358 54.3277 59.9924 54.8038 59.9924 54.9218C59.9924 55.0397 60.0474 55.1702 60.1145 55.2121C60.3349 55.3489 60.6036 57.0031 60.5204 57.71C60.4043 58.6956 59.9309 59.9635 59.3513 60.8412C59.0768 61.2569 58.8522 61.6302 58.8522 61.6709C58.8522 61.8716 59.3309 61.6941 60.0156 61.2393C60.9602 60.6116 61.908 60.3055 63.1992 60.2111C64.3874 60.1241 65.5663 60.4678 66.7983 61.2602C67.91 61.9751 68.1037 61.8183 67.4085 60.766C65.818 58.3586 65.8887 55.7493 67.6067 53.4409C68.1084 52.767 67.8657 52.5473 67.191 53.0646C65.8359 54.1038 63.9122 54.5949 62.3309 54.3052C61.4234 54.1389 59.8677 53.4193 59.4766 52.9848C59.2145 52.6936 58.8522 52.6259 58.8522 52.8682Z" fill="#6AC2AE"/>
</svg>
