<svg width="46" height="27" viewBox="0 0 46 27" fill="none" xmlns="http://www.w3.org/2000/svg">
<path fill-rule="evenodd" clip-rule="evenodd" d="M20.2806 0.0309818C20.0359 0.0640806 19.1778 0.241921 18.3738 0.426198C13.1296 1.628 7.84444 4.8969 2.91995 9.9844C0.830988 12.1426 -0.138427 13.3602 0.0158963 13.6321C0.342848 14.2083 1.93922 16.0224 3.46033 17.5465C6.46366 20.5558 9.43903 22.7702 12.7157 24.4353C14.8182 25.5037 16.2938 26.0611 18.3499 26.5639C20.0113 26.9702 23.5479 27.1315 25.2633 26.8794C27.6714 26.5253 30.1925 25.6882 32.6747 24.4186C34.5134 23.4782 34.559 23.4267 33.8165 23.1337L33.2277 22.9013L31.8071 23.5912C25.3231 26.7399 19.5461 26.6724 13.1109 23.3725C11.2532 22.4198 10.1116 21.6827 8.14063 20.1631C6.1718 18.645 4.06034 16.7011 2.68605 15.1412C1.17726 13.4288 1.23269 13.5722 1.79888 12.8444C2.64702 11.7543 5.57713 8.84616 6.98778 7.69453C10.9226 4.48238 15.1673 2.25097 18.8451 1.46145C25.091 0.12056 31.7076 2.22693 38.268 7.64489C40.0661 9.12974 43.9248 13.0933 43.9248 13.4553C43.9248 13.7552 40.8699 17.0749 39.617 18.1365C39.1906 18.4977 38.8414 18.8328 38.8409 18.881C38.8404 18.9293 39.0418 19.0977 39.2884 19.2552L39.7367 19.5414L40.21 19.1689C40.9406 18.5938 43.9008 15.4902 44.7334 14.4265L45.4784 13.4747L44.5909 12.3906C39.5533 6.23727 32.7996 1.69748 26.6426 0.326376C25.7281 0.122661 24.849 0.0455616 23.0772 0.0135136C21.7837 -0.00999707 20.5253 -0.00198563 20.2806 0.0309818ZM20.789 3.6817C17.5194 4.4079 14.9005 6.66453 13.6857 9.80222C13.1601 11.1602 12.9895 12.3265 13.0638 14.0542C13.1696 16.5126 13.9425 18.3879 15.6179 20.2512C17.5102 22.3553 19.9598 23.4597 22.7223 23.4538C25.3776 23.448 28.0782 22.213 29.7998 20.2172L30.4593 19.4526L31.2988 19.911C32.0174 20.3033 32.1622 20.4437 32.3041 20.8855C32.3952 21.1692 32.5707 21.4647 32.6943 21.5422C32.8179 21.6195 35.0378 22.8506 37.6274 24.278C41.8357 26.5975 42.3876 26.8671 42.8224 26.8175C43.4477 26.746 43.7123 26.4882 44.3176 25.3608C44.8566 24.3566 44.96 23.5975 44.6249 23.1032C44.5205 22.9491 43.6481 22.3945 42.6863 21.8705C41.7245 21.3466 39.536 20.1536 37.8231 19.2194L34.7086 17.5208L33.9936 17.5951C33.3604 17.6608 33.1953 17.6229 32.5517 17.2626C31.8926 16.8938 31.8322 16.8238 31.9034 16.5112C32.3126 14.7137 32.3954 13.7686 32.2559 12.4887C31.7981 8.29268 29.168 5.0511 25.2602 3.86703C24.1386 3.52724 21.9021 3.43451 20.789 3.6817ZM20.2806 4.98162C18.7958 5.43896 17.7941 6.06048 16.6494 7.23444C13.3185 10.6502 13.2083 15.9758 16.3957 19.492C18.11 21.3831 20.1603 22.3116 22.6323 22.3162C25.3942 22.3214 27.8828 21.059 29.4901 18.8377L30.119 17.9683L31.5876 18.7755C33.709 19.9416 33.5554 19.822 33.3759 20.1684C33.2527 20.4063 33.2562 20.4986 33.3932 20.6305C33.73 20.9543 42.5515 25.7032 42.7429 25.6635C42.9787 25.6148 43.8452 24.0319 43.7575 23.8101C43.7235 23.7237 43.3038 23.4493 42.825 23.2004C42.3463 22.9515 40.2506 21.8138 38.1681 20.672C36.0856 19.5304 34.3335 18.5963 34.2747 18.5963C34.2158 18.5963 34.0791 18.7292 33.9711 18.8918L33.7744 19.1873L32.2077 18.3492C31.3459 17.8883 30.5929 17.4664 30.5344 17.4118C30.4758 17.3572 30.5825 16.8772 30.7712 16.3454C31.2662 14.9513 31.3562 12.7738 30.9779 11.3491C30.6251 10.02 30.2061 9.13486 29.4139 8.04496C28.312 6.52898 26.4962 5.31247 24.6662 4.86446C23.4802 4.57392 21.4253 4.62882 20.2806 4.98162ZM21.4176 9.19068C19.3894 9.99819 18.3738 11.4273 18.3738 13.4738C18.3738 14.8116 18.7385 15.7252 19.638 16.6407C20.6286 17.649 21.4912 17.9858 22.8865 17.9091C24.5754 17.8161 25.9132 16.8914 26.6149 15.3321C26.8938 14.7125 26.9485 14.4062 26.9466 13.4738C26.9447 12.5297 26.8908 12.2433 26.5979 11.6185C26.1868 10.7412 25.2118 9.75481 24.376 9.37062C23.6262 9.02584 22.0695 8.93128 21.4176 9.19068ZM21.9269 10.2349C20.2653 10.7063 19.2619 12.1472 19.4292 13.822C19.6591 16.1224 22.1151 17.5379 24.0799 16.5022C25.2348 15.8935 25.8664 14.8365 25.871 13.5052C25.8785 11.3157 23.8999 9.67508 21.9269 10.2349Z" fill="black"/>
</svg>
