<svg width="47" height="38" viewBox="0 0 47 38" fill="none" xmlns="http://www.w3.org/2000/svg">
<path fill-rule="evenodd" clip-rule="evenodd" d="M22.2055 0.470707C18.963 1.28489 15.6023 3.17427 13.5863 5.31611C12.4651 6.50723 11.674 7.053 11.3303 6.87289C11.039 6.7204 10.314 6.48078 9.71979 6.34035C8.81747 6.12718 8.5642 6.24699 8.18879 7.06583C7.6932 8.14687 6.51059 8.37833 6.1571 7.4634C5.59888 6.01787 2.55331 7.50307 2.93968 9.03224C3.27712 10.3688 2.86061 11.1079 1.90896 10.8609C0.242903 10.428 -0.821871 13.948 0.818352 14.4654C1.78096 14.7688 1.83459 15.7662 0.924047 16.4279C0.28205 16.894 0.282832 16.9963 0.939313 18.364C1.54647 19.6294 1.76608 19.7815 2.71185 19.5936C4.10859 19.3159 4.6398 19.68 4.58304 20.8769C4.54624 21.6518 4.80813 21.9319 5.90735 22.2948C7.35693 22.7729 8.25612 22.438 8.25612 21.42C8.25612 20.668 9.70726 20.7497 10.1445 21.5258C10.3712 21.928 10.803 22.0902 11.3017 21.9607C11.973 21.786 12.2976 22.1848 13.378 24.5149C14.8213 27.6257 15.3302 31.9557 14.5731 34.6803C14.2279 35.9223 14.2588 36.3899 14.7332 37.1092C15.3142 37.9907 15.4066 38 23.5169 38H31.7129L32.998 36.0495C33.9031 34.676 34.4574 34.1742 34.8728 34.3531C35.1973 34.4928 36.4821 34.6919 37.7277 34.7954C40.6351 35.037 41.5303 34.3621 41.5303 31.9285C41.5303 29.612 42.1884 28.364 43.5683 28.063C45.0425 27.7413 45.2892 27.0488 44.4064 25.7103C44.0177 25.1209 43.8725 24.5791 44.0831 24.5059C47.0828 23.4646 47.2187 22.4139 44.6765 19.9254L42.7047 17.9956V14.5911C42.7047 7.6824 39.8224 3.30769 33.7579 1.01142C30.8826 -0.0770068 25.4068 -0.333747 22.2055 0.470707ZM22.3487 1.64394C18.0767 2.82961 14.6765 5.08232 12.9368 7.87963C11.9958 9.39284 12.0991 9.87637 13.2347 9.27264C14.1096 8.8074 14.4858 9.02251 15.4641 10.5474C16.1852 11.6716 16.1836 11.695 15.3572 12.3601C14.4162 13.1171 14.2361 14.2709 15.0589 14.2709C16.1092 14.2709 16.4784 15.2057 16.0442 16.7679C15.6908 18.04 15.506 18.2158 14.6882 18.0606C13.5099 17.8369 12.7458 18.639 13.2629 19.5574C13.4673 19.92 13.56 20.4981 13.4696 20.8419C13.3792 21.1858 13.8356 22.6302 14.4843 24.0508C16.2717 27.9684 16.6033 31.1252 15.6833 35.4715C15.4038 36.7937 15.6289 36.833 23.4252 36.8217L31.1566 36.81L32.1353 35.2112L33.1139 33.6125L31.4502 31.9674C29.828 30.3635 29.2913 29.0382 30.2758 29.0677C30.5452 29.0759 31.2255 29.7446 31.788 30.5541C33.1139 32.4618 35.2705 33.4864 38.0072 33.509L40.1602 33.5265L40.2295 31.706C40.2679 30.7047 40.4941 29.5233 40.7329 29.0802C41.1181 28.3644 41.0563 28.275 40.1739 28.275C39.5527 28.275 39.1816 28.0567 39.1816 27.6915C39.1816 27.2535 39.6529 27.108 41.0735 27.108C42.1144 27.108 43.0762 26.9983 43.2109 26.8641C43.3459 26.7299 43.2007 26.1285 42.8879 25.5274C42.3845 24.5608 42.3896 24.3647 42.9306 23.8271C43.2673 23.4926 43.9668 23.1133 44.4855 22.9838C45.4097 22.7535 45.3902 22.7049 43.4818 20.5245L41.5346 18.3002L41.4086 14.2433C41.3013 10.7894 41.1318 9.89504 40.2671 8.22584C38.904 5.59385 36.2898 3.28319 33.4737 2.22082C30.4465 1.07911 25.3379 0.814195 22.3487 1.64394ZM8.93922 8.38455C8.66794 9.41579 6.49219 9.68187 5.67404 8.78366C4.81008 7.83489 3.8146 8.23595 4.38848 9.30143C4.95336 10.3498 3.67132 12.1283 2.34349 12.1388C1.20512 12.1481 0.859847 13.3113 1.91444 13.5851C2.37793 13.7057 2.75569 14.2698 2.92011 15.0867C3.13228 16.1393 3.02698 16.512 2.38224 16.9955C1.76686 17.4568 1.68779 17.7023 2.04245 18.0547C2.34857 18.3589 2.73377 18.3916 3.18513 18.1512C4.12894 17.6494 5.90735 19.072 5.90735 20.3288C5.90735 21.4566 6.92045 21.6125 7.26416 20.5373C7.59846 19.4902 9.83057 19.1789 10.6127 20.0705C11.423 20.9944 12.2287 20.6649 11.9413 19.5267C11.6027 18.1866 12.8413 16.4929 13.9989 16.7127C15.1693 16.9352 15.286 15.6087 14.128 15.2434C13.167 14.9404 13.0214 12.4582 13.9249 11.7852C14.3128 11.4966 14.3876 11.1682 14.1507 10.7948C13.863 10.342 13.6841 10.3288 13.2022 10.7263C12.2905 11.4779 10.0878 9.76356 10.3962 8.54249C10.57 7.85473 10.4542 7.6579 9.8752 7.6579C9.46534 7.6579 9.04413 7.98466 8.93922 8.38455ZM6.04005 11.1134C3.24541 12.8522 3.78054 17.1425 6.92045 18.1722C9.64267 19.065 12.5371 16.5291 12.0063 13.7166C11.4974 11.0216 8.37669 9.6597 6.04005 11.1134ZM25.4922 11.7121C25.0255 12.9312 24.2015 13.0016 23.4558 11.8856C22.9195 11.0831 22.86 11.0772 21.6265 11.7113C20.1738 12.4578 19.7185 13.2708 20.3382 14.013C20.9309 14.7222 20.1409 15.4379 18.7649 15.4379C17.8411 15.4379 17.6496 15.6344 17.4277 16.8099C17.2053 17.987 17.3239 18.3255 18.2611 19.1883L19.3537 20.1946L18.4048 20.9077L17.4555 21.6207L18.202 23.0028C19.0006 24.481 19.2574 24.5993 20.3762 24.0041C21.3008 23.5124 22.124 24.4169 21.7674 25.5329C21.5697 26.1526 21.742 26.4159 22.5437 26.7186C24.1271 27.3169 25.1406 27.19 25.3575 26.3657C25.6296 25.3318 26.8255 25.1112 27.3798 25.9935C27.9791 26.9469 28.5675 26.9065 29.9372 25.8173C30.9022 25.0498 31.0032 24.8012 30.6305 24.1092C30.2899 23.477 30.3201 23.1962 30.7683 22.8262C31.0842 22.566 31.5958 22.4497 31.9059 22.5679C32.6309 22.8441 33.2408 22.1007 33.5504 20.5634C33.7641 19.5014 33.6635 19.2945 32.7698 18.9568C31.5273 18.4873 31.4506 17.6712 32.5784 16.927C33.3782 16.3995 33.3868 16.3252 32.7769 15.154C31.9861 13.6337 31.5575 13.3603 30.6755 13.8115C29.6233 14.3491 29.0036 13.9395 29.0036 12.7056C29.0036 11.4468 28.9041 11.3542 27.1461 10.9796C26.0242 10.7403 25.8312 10.8259 25.4922 11.7121ZM6.57558 12.3321C3.97784 14.3623 6.47849 18.3165 9.4078 16.8111C11.1259 15.9281 11.5154 14.1888 10.3113 12.7744C9.25474 11.5339 7.81494 11.3635 6.57558 12.3321ZM26.2606 12.9168C25.9651 13.6886 25.619 13.8819 24.5307 13.8819C23.713 13.8819 23.0361 13.6431 22.833 13.2825C22.6302 12.9223 22.2348 12.7826 21.8422 12.9324C21.3309 13.1273 21.2765 13.3451 21.5924 13.9309C22.1413 14.9501 20.7026 17.0157 19.5329 16.8885C18.4615 16.7718 18.119 17.763 19.1391 18.0279C20.2544 18.3177 20.7026 20.7665 19.7651 21.4476C18.7939 22.1536 19.311 23.4093 20.3159 22.7854C21.3094 22.1688 23.0416 23.302 23.2064 24.6763C23.3544 25.913 24.1514 26.2599 24.4802 25.2306C24.8145 24.1834 26.9558 23.7941 27.8683 24.6145C28.7229 25.3831 29.5136 24.9801 29.1829 23.9442C28.8372 22.8624 29.992 21.2729 31.1237 21.2729C32.4222 21.2729 32.6778 20.2993 31.5172 19.7737C30.3753 19.2568 30.1877 17.1628 31.2165 16.4151C32.1243 15.7553 31.5218 14.9917 30.3279 15.2897C29.1226 15.59 27.3144 14.1021 27.6417 13.0786C27.9983 11.961 26.6849 11.807 26.2606 12.9168ZM22.71 16.186C20.2243 18.6561 21.9123 22.8289 25.3974 22.8289C27.3837 22.8289 28.8932 21.6709 29.2294 19.8881C29.9666 15.9837 25.4785 13.435 22.71 16.186ZM23.5971 17.0091C21.8449 18.6312 23.0271 21.6619 25.4123 21.6619C26.7257 21.6619 28.2207 20.2413 28.2207 18.9934C28.2207 17.8536 26.5436 16.2159 25.3763 16.2159C24.869 16.2159 24.068 16.573 23.5971 17.0091Z" fill="#6C6C6C"/>
</svg>
