<svg width="38" height="38" viewBox="0 0 38 38" fill="none" xmlns="http://www.w3.org/2000/svg">
<path fill-rule="evenodd" clip-rule="evenodd" d="M18.2563 0.0689479C17.6159 0.249315 17.1397 0.65686 16.8567 1.26683C16.7266 1.54717 16.7033 1.6776 16.7033 2.12661C16.7033 2.57562 16.7266 2.70605 16.8567 2.9864C17.1292 3.5736 17.5947 3.98862 18.1729 4.15975L18.4202 4.23297V5.33187C18.4202 6.32186 18.4308 6.44047 18.5267 6.52816C18.6672 6.65671 18.9024 6.65183 19.0223 6.51792C19.1047 6.42601 19.1186 6.25223 19.1186 5.32169V4.23297L19.366 4.15975C19.9441 3.98862 20.4097 3.57354 20.6821 2.9864C20.8122 2.70599 20.8355 2.57556 20.8355 2.12573C20.8355 1.64544 20.8175 1.55863 20.6446 1.20331C20.2046 0.29942 19.1747 -0.189752 18.2563 0.0689479ZM18.2758 0.838579C17.7666 1.02694 17.411 1.55646 17.411 2.12661C17.411 3.32455 18.8429 3.95974 19.6912 3.13806C19.9958 2.84308 20.128 2.53427 20.1252 2.12426C20.1223 1.68543 19.9739 1.36839 19.6337 1.07411C19.2519 0.743955 18.7617 0.658918 18.2758 0.838579ZM6.61871 4.98084C5.97176 5.07423 5.39244 5.512 5.0525 6.16443C4.90479 6.44794 4.88884 6.53557 4.88884 7.06655C4.88878 7.58972 4.90653 7.69116 5.04953 7.98544C5.24822 8.39422 5.68775 8.81817 6.12739 9.02506C6.40785 9.15703 6.53793 9.1812 6.95487 9.17908C7.37112 9.17691 7.50795 9.14986 7.81757 9.00842L8.18551 8.84034L9.50536 10.1677C10.2312 10.8978 10.88 11.5114 10.947 11.5313C11.1197 11.5826 11.3781 11.3644 11.3781 11.1671C11.3781 11.044 11.105 10.7357 10.0376 9.6535L8.69714 8.29454L8.85294 7.95074C9.54796 6.41672 8.28666 4.74013 6.61871 4.98084ZM30.1766 5.00136C29.497 5.15309 28.9972 5.55081 28.689 6.18518C28.5381 6.49558 28.5179 6.59996 28.5179 7.06655C28.5179 7.5225 28.5403 7.64423 28.6798 7.94522L28.8417 8.29454L27.5013 9.6535C26.0498 11.1251 26.0027 11.196 26.3142 11.4435C26.3985 11.5106 26.5085 11.5654 26.5587 11.5654C26.6088 11.5654 27.2584 10.9525 28.0024 10.2032L29.3549 8.84105L29.7221 9.01054C30.0349 9.15497 30.1625 9.18008 30.584 9.18008C31.2269 9.18008 31.6667 8.99113 32.0988 8.52954C32.548 8.0496 32.6506 7.77608 32.6475 7.06655C32.6444 6.33826 32.5244 6.04293 32.0345 5.55817C31.5239 5.05282 30.8502 4.85093 30.1766 5.00136ZM6.49725 5.76147C6.38958 5.80281 6.19932 5.92331 6.07443 6.02928C5.31812 6.67089 5.45053 7.85541 6.328 8.29725C7.25472 8.76389 8.28829 8.12305 8.29219 7.07937C8.29428 6.52886 8.03844 6.0895 7.57744 5.85186C7.2901 5.70378 6.76258 5.65961 6.49725 5.76147ZM30.0287 5.82375C29.1691 6.22823 28.96 7.3349 29.6121 8.02937C30.3234 8.78689 31.6116 8.46667 31.9011 7.46034C32.057 6.91836 31.8988 6.40378 31.4594 6.02375C31.0418 5.66255 30.5248 5.59027 30.0287 5.82375ZM18.5409 7.60377C18.4383 7.73545 18.4202 7.84136 18.4202 8.30948C18.4202 8.78183 18.4368 8.87698 18.5366 8.97784C18.673 9.11563 18.8756 9.12957 19.0348 9.01207C19.1309 8.94108 19.1507 8.84087 19.1676 8.33853C19.1868 7.77173 19.1817 7.74244 19.0394 7.5986C18.8497 7.40706 18.6927 7.40864 18.5409 7.60377ZM14.0352 9.43825C13.8425 9.65338 13.9115 9.84127 14.3426 10.2761C14.7781 10.7153 14.9887 10.7906 15.1811 10.5757C15.3668 10.3685 15.3014 10.2045 14.8541 9.75559C14.4023 9.30217 14.2202 9.2316 14.0352 9.43825ZM22.7036 9.79534C22.2753 10.2315 22.2128 10.4077 22.4087 10.6264C22.5932 10.8325 22.7661 10.7718 23.1999 10.3486C23.4219 10.1321 23.6186 9.89373 23.6372 9.81881C23.6906 9.60404 23.5178 9.3895 23.2915 9.3895C23.1346 9.3895 23.0338 9.45907 22.7036 9.79534ZM18.1583 9.72154C16.0528 10.0642 14.4791 11.7071 14.2206 13.8323C14.0306 15.3951 14.74 17.0882 15.9962 18.0699C16.1854 18.2178 16.2249 18.2876 16.2508 18.5194C16.2771 18.7551 16.2599 18.8197 16.1286 18.9773C16.0446 19.0783 15.9758 19.1996 15.9758 19.2472C15.9758 19.3403 16.1982 19.5893 16.317 19.6294C16.3569 19.6428 16.41 19.8051 16.4347 19.99C16.476 20.2971 16.4682 20.3373 16.3443 20.4549C16.148 20.6412 16.163 20.895 16.3776 21.0195C16.4878 21.0834 16.5919 21.2278 16.6764 21.4338C16.836 21.8227 17.1885 22.1754 17.5379 22.2957C17.8656 22.4085 19.6314 22.4245 19.9393 22.3174C20.4132 22.1525 20.8229 21.7294 20.9037 21.3213C20.9233 21.2222 20.9815 21.1262 21.0329 21.1079C21.3877 20.9817 21.4352 20.5034 21.1055 20.3773C21.0286 20.3479 21.1358 19.6583 21.2218 19.6294C21.3447 19.588 21.563 19.3388 21.563 19.24C21.563 19.1885 21.4975 19.0803 21.4175 18.9994C21.3108 18.8916 21.272 18.7896 21.272 18.6171C21.272 18.362 21.2946 18.3327 21.8651 17.8459C22.4852 17.3168 23.0608 16.3728 23.2921 15.5056C23.4338 14.9745 23.4319 13.7399 23.2887 13.2121C22.8555 11.6159 21.5802 10.2963 20.0498 9.86056C19.6182 9.73765 18.5443 9.65873 18.1583 9.72154ZM17.8382 10.5426C15.4747 11.1838 14.2824 13.7557 15.2921 16.0349C15.487 16.4747 15.9226 17.0432 16.3078 17.3602L16.6267 17.6227H18.8327H21.0386L21.5238 17.1376C21.9117 16.7498 22.0577 16.5521 22.2513 16.1525C22.5696 15.496 22.6868 15.0114 22.6852 14.3588C22.681 12.5933 21.5078 11.0431 19.8178 10.5699C19.2919 10.4226 18.3295 10.4094 17.8382 10.5426ZM12.1379 14.0152C12.0092 14.1805 12.0207 14.3452 12.1721 14.5059C12.2357 14.5734 12.3992 14.5941 12.8689 14.5941C13.5459 14.5941 13.6478 14.543 13.6478 14.2039C13.6478 13.934 13.4689 13.859 12.8243 13.859C12.2822 13.859 12.2546 13.8653 12.1379 14.0152ZM24.0204 14.0093C23.8706 14.1153 23.8485 14.3658 23.9735 14.5387C24.0436 14.6357 24.1427 14.6559 24.6301 14.6727C25.1214 14.6896 25.2221 14.6769 25.3283 14.5845C25.5169 14.4202 25.5406 14.2534 25.401 14.074C25.2843 13.9241 25.2566 13.9178 24.7145 13.9178C24.2975 13.9178 24.1158 13.9417 24.0204 14.0093ZM11.4978 15.7375C11.4356 15.8003 11.3536 15.9568 11.3155 16.0852C11.237 16.3499 11.3104 16.3244 10.185 16.4776C9.31074 16.5966 9.1873 16.6429 9.11438 16.879C8.84317 17.7569 8.92016 20.4317 9.22461 20.7101C9.29363 20.7733 9.59761 20.8453 10.1066 20.919C11.2117 21.0791 11.2615 21.0899 11.2628 21.1686C11.2634 21.2076 11.3773 21.5076 11.5158 21.8352L11.7677 22.431L11.1946 23.2011C10.8009 23.7301 10.6215 24.0206 10.6215 24.1291C10.6215 24.4082 11.4839 25.4665 12.2978 26.1862C12.9578 26.7699 13.2924 26.9877 13.4627 26.9445C13.5373 26.9256 13.9299 26.6582 14.335 26.3503C14.7658 26.0229 15.1083 25.8025 15.1599 25.8194C15.2086 25.8353 15.4682 25.9405 15.7369 26.0533C16.0056 26.1661 16.2696 26.2701 16.3236 26.2843C16.4033 26.3053 16.4467 26.4916 16.5552 27.2774C16.6286 27.8094 16.7228 28.2919 16.7646 28.3496C17.0098 28.6884 20.2922 28.7136 20.7121 28.3798C20.8306 28.2857 20.8621 28.1583 20.9817 27.2917C21.0919 26.4935 21.1355 26.3054 21.2153 26.2843C21.2692 26.2701 21.5332 26.1661 21.8019 26.0533C22.0706 25.9405 22.33 25.8354 22.3783 25.8196C22.4293 25.8029 22.793 26.0385 23.2467 26.3821C23.676 26.7073 24.069 26.9733 24.12 26.9733C24.4817 26.9733 26.1231 25.4308 26.7894 24.4649C27.0026 24.1559 26.9631 24.0443 26.3418 23.2007L25.7662 22.4191L25.9107 22.094C25.9902 21.9151 26.1099 21.6232 26.1767 21.4453C26.2434 21.2674 26.3041 21.1133 26.3114 21.1028C26.3188 21.0922 26.7396 21.022 27.2467 20.9467C27.7538 20.8714 28.2143 20.7912 28.2699 20.7687C28.6097 20.6306 28.7176 18.0011 28.4282 16.9093C28.3555 16.6347 28.2707 16.6035 27.1838 16.4505C26.7061 16.3832 26.3123 16.3218 26.3086 16.3139C26.305 16.306 26.2498 16.1676 26.1861 16.0063C26.0109 15.5629 25.6677 15.488 25.4843 15.8532C25.4324 15.9567 25.4455 16.0679 25.5487 16.3968C25.62 16.6241 25.717 16.8556 25.7641 16.9113C25.8277 16.9863 26.0894 17.0467 26.7764 17.145C27.2861 17.2179 27.7293 17.3036 27.7613 17.3355C27.8345 17.4083 27.8716 19.4964 27.8061 19.8574L27.7581 20.1219L26.8576 20.2524C26.3623 20.3241 25.9044 20.4067 25.8401 20.436C25.7629 20.4709 25.6785 20.6287 25.5926 20.8982C25.5209 21.1231 25.3437 21.5533 25.1988 21.8541C25.0281 22.2085 24.9482 22.4418 24.9718 22.5171C24.9919 22.5809 25.2369 22.9415 25.5162 23.3183C25.7955 23.6952 26.0436 24.0371 26.0674 24.0781C26.15 24.2202 25.0896 25.4032 24.3854 25.9546L24.1522 26.1372L23.3732 25.5555C22.9447 25.2356 22.5491 24.9738 22.494 24.9738C22.439 24.9738 22.1742 25.0772 21.9057 25.2034C21.6372 25.3297 21.2163 25.5045 20.9703 25.5919C20.7244 25.6793 20.5047 25.7943 20.4821 25.8475C20.4594 25.9007 20.3813 26.35 20.3083 26.8461C20.2353 27.3421 20.162 27.7618 20.1453 27.7786C20.1286 27.7955 19.8122 27.8377 19.4422 27.8725C18.8032 27.9325 17.4839 27.8699 17.3902 27.7751C17.3716 27.7564 17.298 27.3367 17.2268 26.8426C17.1555 26.3485 17.0788 25.9007 17.0564 25.8475C17.034 25.7943 16.8145 25.6797 16.5685 25.5929C16.3226 25.5059 15.9068 25.3311 15.6446 25.2044C15.3824 25.0776 15.1159 24.9738 15.0524 24.9738C14.9889 24.9738 14.6036 25.2253 14.1962 25.5325C13.7888 25.8398 13.4249 26.0912 13.3875 26.0912C13.1211 26.0912 11.3694 24.2517 11.4715 24.0792C11.4961 24.0376 11.7423 23.6992 12.0185 23.3272C12.2946 22.9552 12.5387 22.602 12.5608 22.5422C12.587 22.4713 12.513 22.2466 12.3477 21.8953C12.2084 21.5993 12.0369 21.1816 11.9665 20.967C11.8962 20.7524 11.794 20.5363 11.7393 20.4867C11.6764 20.4296 11.2984 20.3462 10.7088 20.2593L9.77756 20.1221L9.73822 19.8575C9.68788 19.5186 9.68031 17.9798 9.72704 17.5865L9.76284 17.2855L10.7147 17.1514C11.4044 17.0542 11.6908 16.9902 11.7546 16.919C11.8679 16.7925 12.0765 16.1813 12.0765 15.976C12.0765 15.6622 11.7184 15.5146 11.4978 15.7375ZM1.38655 17.0017C0.873172 17.1639 0.404081 17.5868 0.143172 18.1226C0.0200211 18.3756 0 18.4989 0 19.0047C0 19.5358 0.0165289 19.6268 0.170235 19.9432C0.381034 20.377 0.744666 20.7412 1.18047 20.9548C1.46733 21.0955 1.58554 21.1182 2.03821 21.1199C2.5133 21.1217 2.59914 21.104 2.94031 20.934C3.14768 20.8307 3.41394 20.6455 3.53197 20.5224C3.76739 20.2768 4.10308 19.675 4.10308 19.4986C4.10308 19.3914 4.17455 19.387 5.93638 19.387C7.69209 19.387 7.77462 19.382 7.88607 19.2694C8.02947 19.1245 8.03436 18.9685 7.90062 18.8052C7.80139 18.684 7.75209 18.6805 5.97048 18.6664L4.14219 18.6519L4.04989 18.3838C3.7277 17.4483 3.00648 16.9169 2.06609 16.9224C1.82602 16.9237 1.52024 16.9594 1.38655 17.0017ZM34.7918 17.0231C34.1721 17.2465 33.7097 17.7179 33.5007 18.3395L33.3956 18.6519L31.5715 18.6675C29.9764 18.6811 29.7341 18.6951 29.6419 18.7794C29.503 18.9064 29.5079 19.123 29.6528 19.2694C29.7642 19.382 29.8468 19.387 31.6025 19.387C33.3439 19.387 33.4358 19.3924 33.4358 19.4952C33.4358 19.7043 33.7908 20.3184 34.0528 20.5624C35.1623 21.5959 36.9229 21.1751 37.4549 19.7493C37.6355 19.2653 37.5981 18.5359 37.3691 18.0787C37.168 17.677 36.8258 17.3346 36.4078 17.1169C35.9896 16.8991 35.2543 16.8564 34.7918 17.0231ZM13.3342 17.4188C13.1927 17.5618 13.153 17.8816 13.1555 18.8577C13.1575 19.6236 13.1789 19.8443 13.29 20.2387C13.8568 22.2523 15.3876 23.784 17.357 24.308C18.1507 24.5192 19.3138 24.5302 20.0672 24.3338C21.7685 23.8902 23.0871 22.8281 23.8312 21.302C24.2658 20.4106 24.3803 19.8978 24.3833 18.8283C24.3859 17.8808 24.3454 17.561 24.2046 17.4188C24.0808 17.2936 23.8128 17.3062 23.6903 17.443C23.5966 17.5475 23.5938 17.6092 23.6572 18.1724C23.918 20.4913 22.6521 22.5893 20.4851 23.4295C19.8522 23.6749 19.2532 23.7627 18.4918 23.7219C17.7325 23.6812 17.1716 23.5277 16.4985 23.1764C14.6705 22.2224 13.6277 20.2283 13.8773 18.1645C13.9448 17.6055 13.9426 17.5479 13.8485 17.4428C13.7261 17.3062 13.4581 17.2936 13.3342 17.4188ZM1.60719 17.711C0.975836 17.91 0.547078 18.7099 0.721328 19.3638C0.989105 20.3688 2.24529 20.73 2.98984 20.0162C3.5673 19.4626 3.53278 18.4222 2.9214 17.951C2.52028 17.6419 2.08117 17.5617 1.60719 17.711ZM35.0144 17.7229C34.713 17.8306 34.3468 18.1813 34.2228 18.4813C34.1014 18.7749 34.1118 19.3034 34.2447 19.5928C34.6714 20.5219 35.9519 20.6724 36.5624 19.8653C37.0232 19.256 36.9331 18.4678 36.3444 17.9586C35.9698 17.6347 35.4966 17.5508 35.0144 17.7229ZM16.9871 18.5122C17.0071 18.6133 17.0234 18.7324 17.0234 18.7769C17.0234 18.8437 17.3256 18.8577 18.7618 18.8577H20.5002L20.5347 18.6427C20.5537 18.5245 20.5556 18.4054 20.5389 18.3781C20.5222 18.3508 19.708 18.3284 18.7296 18.3284H16.9507L16.9871 18.5122ZM17.1681 19.9604C17.1909 20.1464 17.2217 20.3184 17.2364 20.3426C17.2511 20.3669 17.941 20.3868 18.7694 20.3868C19.5979 20.3868 20.2878 20.3669 20.3025 20.3426C20.3172 20.3184 20.3479 20.1464 20.3708 19.9604L20.4124 19.6222H18.7694H17.1264L17.1681 19.9604ZM17.3973 21.2602C17.578 21.6133 17.7107 21.6511 18.7694 21.6511C19.8282 21.6511 19.9608 21.6133 20.1416 21.2602L20.2274 21.0925H18.7694H17.3115L17.3973 21.2602ZM9.48942 27.8538L8.14797 29.2047L7.82816 29.0447C7.5477 28.9043 7.44014 28.8846 6.95429 28.8846C6.4465 28.8846 6.36799 28.9006 6.01448 29.0763C5.56564 29.2994 5.258 29.618 5.04214 30.0832C4.9102 30.3676 4.88878 30.4916 4.88878 30.9723C4.88878 31.4555 4.90991 31.5765 5.04481 31.8674C5.23827 32.2845 5.63257 32.6791 6.06925 32.8926C6.35524 33.0324 6.47554 33.0556 6.92577 33.0576C7.38043 33.0598 7.49567 33.0383 7.79877 32.8954C8.25331 32.6811 8.65093 32.2813 8.85661 31.8315C8.99937 31.5194 9.02067 31.4026 9.01858 30.9429C9.01648 30.4849 8.99396 30.3673 8.85114 30.0687L8.68608 29.7238L10.0321 28.3628C11.094 27.289 11.3781 26.9697 11.3781 26.8497C11.3781 26.6548 11.2115 26.5029 10.998 26.5029C10.8577 26.5029 10.6153 26.7199 9.48942 27.8538ZM26.2571 26.6104C26.039 26.854 26.1023 26.9426 27.5068 28.3628L28.8528 29.7238L28.6962 30.0584C28.4703 30.5407 28.4368 31.0724 28.5983 31.6098C28.7627 32.1565 29.1871 32.6391 29.7237 32.8895C30.0434 33.0387 30.1549 33.0598 30.6131 33.0576C31.0638 33.0555 31.1835 33.0324 31.4708 32.892C31.8948 32.6847 32.2763 32.3001 32.4861 31.8685C32.6313 31.5695 32.6501 31.4666 32.6501 30.9668C32.6501 30.4378 32.6373 30.3772 32.4464 29.9994C32.204 29.5199 31.8107 29.1671 31.3024 28.9734C30.8381 28.7965 30.1726 28.8255 29.711 29.0428L29.3909 29.1934L28.0494 27.8481C26.8893 26.6847 26.6841 26.5029 26.5307 26.5029C26.4329 26.5029 26.3103 26.5511 26.2571 26.6104ZM6.62546 29.6173C6.17377 29.726 5.73943 30.1621 5.61028 30.6367C5.47293 31.1412 5.73559 31.8167 6.18617 32.118C7.0821 32.7171 8.30511 32.0564 8.30511 30.9733C8.30511 30.3326 7.93688 29.8283 7.33713 29.6474C7.02692 29.5539 6.90919 29.5489 6.62546 29.6173ZM30.1766 29.6484C29.362 29.9129 28.9877 30.8604 29.3974 31.6209C30.001 32.7415 31.627 32.5115 31.9232 31.2637C32.166 30.2408 31.1749 29.3243 30.1766 29.6484ZM18.5174 30.0204C18.4339 30.1136 18.42 30.3583 18.4066 31.9693L18.3911 33.8116L18.1348 33.8881C17.5004 34.0773 16.8865 34.7338 16.7309 35.3896C16.6254 35.834 16.6851 36.4307 16.874 36.8209C17.0767 37.2397 17.4912 37.6561 17.8963 37.8482C18.1702 37.978 18.2966 38 18.7694 38C19.2575 38 19.3613 37.9807 19.6551 37.8349C20.8273 37.2532 21.2225 35.8201 20.5087 34.7399C20.2553 34.3566 19.8017 34.0067 19.404 33.8881L19.1477 33.8116L19.1323 31.9693C19.1155 29.9512 19.1088 29.9138 18.7694 29.9138C18.6833 29.9138 18.5699 29.9618 18.5174 30.0204ZM18.4035 34.5832C17.0813 34.9487 17.0828 36.8505 18.4057 37.2417C19.3834 37.5308 20.3185 36.6358 20.1025 35.6177C19.9408 34.8561 19.1527 34.3761 18.4035 34.5832Z" fill="#6C6C6C"/>
</svg>
