<svg width="45" height="45" viewBox="0 0 45 45" fill="none" xmlns="http://www.w3.org/2000/svg">
<path fill-rule="evenodd" clip-rule="evenodd" d="M14.3685 0.625C14.0384 1.13361 13.9592 2.72139 13.9425 9.15806L13.9223 17.0661L16.2111 19.3664L18.4999 21.6667H24.0891C29.151 21.6667 29.7216 21.6186 30.1381 21.1586C30.5479 20.7061 30.5979 19.5753 30.5979 10.785C30.5979 1.58028 30.564 0.888611 30.0898 0.459722C29.6438 0.0561108 28.6773 0 22.1779 0C14.8052 0 14.7724 0.00250002 14.3685 0.625ZM15.2245 1.01861C15.1225 1.12028 15.0392 2.12778 15.0392 3.25722C15.0392 4.38639 14.935 5.24611 14.8077 5.1675C14.6802 5.08889 14.576 5.20083 14.576 5.41667C14.576 5.6325 14.6802 5.74444 14.8077 5.66583C14.935 5.58722 15.0392 8.03028 15.0392 11.0947V16.6667H16.6903C18.7324 16.6667 19.2067 17.1758 19.2067 19.3675V20.8333H24.1522C27.6282 20.8333 29.1968 20.7342 29.431 20.5C29.9086 20.0225 29.9086 1.64417 29.431 1.16667C29.0698 0.805556 15.5782 0.664722 15.2245 1.01861ZM17.1768 3.78861C16.6592 4.30639 17.7633 4.44444 22.4182 4.44444C26.7871 4.44444 27.5417 4.38306 27.5417 4.02778C27.5417 3.6725 26.7905 3.61111 22.4482 3.61111C19.6465 3.61111 17.2746 3.69111 17.1768 3.78861ZM17.1218 6.66861C16.8148 7.165 17.6108 7.23722 22.5277 7.15972C26.0887 7.10333 27.3873 6.99222 27.4726 6.73611C27.6198 6.29361 17.3949 6.22694 17.1218 6.66861ZM17.4533 9.06778C17.348 9.17306 17.2618 9.42861 17.2618 9.63583C17.2618 9.94195 18.2129 9.99833 22.3323 9.93695C26.6204 9.87278 27.4028 9.79694 27.4028 9.44444C27.4028 9.09278 26.6418 9.01611 22.5238 8.95222C19.8402 8.91055 17.5586 8.9625 17.4533 9.06778ZM17.2618 12.2222C17.2618 12.7764 17.3852 12.7883 22.3323 12.7147C26.6204 12.6506 27.4028 12.5747 27.4028 12.2222C27.4028 11.8697 26.6204 11.7939 22.3323 11.7297C17.3852 11.6561 17.2618 11.6681 17.2618 12.2222ZM21.4805 14.9208C21.565 15.3592 21.9139 15.4167 24.4894 15.4167C26.8938 15.4167 27.4028 15.3439 27.4028 15C27.4028 14.6603 26.848 14.5689 24.3939 14.5042C21.6322 14.4317 21.3927 14.4658 21.4805 14.9208ZM21.4294 17.6294C21.4294 17.9867 21.9264 18.0556 24.5086 18.0556C26.8485 18.0556 27.5604 17.9722 27.4728 17.7083C27.3925 17.4664 26.4593 17.3372 24.3936 17.2822C21.8806 17.2156 21.4294 17.2683 21.4294 17.6294ZM16.9723 18.7322C17.6536 19.4294 18.2245 20 18.2412 20C18.2579 20 18.2006 19.4689 18.114 18.8194C17.9609 17.6725 17.9248 17.6364 16.8451 17.5517L15.7338 17.4642L16.9723 18.7322ZM1.29271 22.3792C-0.689922 23.4128 -0.46293 24.2458 2.46712 26.6914C3.80434 27.8075 6.24346 29.89 7.88796 31.3192C9.63694 32.8397 11.0094 33.8367 11.1953 33.7217C11.3748 33.6108 11.4379 33.6472 11.3398 33.8056C10.9264 34.4747 14.0187 36.4908 16.3858 37.0956C17.9389 37.4922 18.7972 37.5083 23.5907 37.2317L29.0323 36.9175L29.8681 37.7533C30.6604 38.5453 30.6796 38.6161 30.2342 39.1081C29.3741 40.0583 29.6636 40.7883 31.7562 42.9464C32.8517 44.0758 33.9445 45 34.1845 45C34.6602 45 44.4897 35.3258 44.4897 34.8575C44.4897 34.3442 40.1866 30.2778 39.6434 30.2778C39.3531 30.2778 38.8777 30.4931 38.5868 30.7564C38.0778 31.2167 37.9722 31.1433 35.7865 28.8094C32.5064 25.3069 31.0186 24.7697 25.8747 25.2308C23.524 25.4417 22.364 25.4011 19.9013 25.0225C17.1565 24.6003 16.6612 24.4317 15.0392 23.3672C13.3605 22.2656 13.1354 22.1933 11.8441 22.3422C11.08 22.4303 10.1854 22.5331 9.85615 22.5706C9.52719 22.6081 9.31742 22.7639 9.39077 22.9167C9.46384 23.0694 9.34437 22.9758 9.12516 22.7083C8.64006 22.1167 7.13864 22.0714 6.09204 22.6172C5.42356 22.9658 5.2263 22.9506 4.29694 22.4767C3.0339 21.8331 2.38071 21.8117 1.29271 22.3792ZM1.35578 23.3556C1.0885 23.5114 0.869567 23.7406 0.869567 23.8653C0.869567 24.0575 6.86692 29.2733 12.4809 33.9636C13.3533 34.6925 14.7544 35.5472 15.5948 35.8636C17.0399 36.4072 17.4633 36.4278 23.3856 36.2414L29.648 36.0442L30.5049 37.0197L31.3617 37.9956L34.3662 34.9825L37.3707 31.9692L35.4289 29.8042C34.1612 28.3903 32.9618 27.3647 31.9732 26.8492L30.459 26.0594L26.4982 26.2336C23.5831 26.3617 21.6969 26.2914 19.3556 25.9678C15.7099 25.4636 14.2823 25.6678 13.5414 26.7983C13.0535 27.5428 12.9637 28.22 13.3235 28.4422C13.4497 28.5203 14.9814 28.7328 16.727 28.915C19.9204 29.2481 20.6684 29.4831 20.1591 29.9922C19.9841 30.1672 18.6857 30.1306 16.4733 29.8881C13.4805 29.56 12.9657 29.4267 12.3122 28.8103C11.9018 28.4236 9.76363 26.9706 7.56067 25.5814C3.509 23.0267 2.5263 22.6739 1.35578 23.3556ZM6.91248 23.2469C6.64521 23.3169 6.42627 23.4275 6.42627 23.4925C6.42627 23.6911 7.5265 24.7247 7.69848 24.6875C7.78683 24.6686 8.79426 25.2453 9.937 25.9689C11.9169 27.2228 12.0333 27.2606 12.4067 26.7675C12.6223 26.4828 12.8004 26.1875 12.8023 26.1111C12.8043 26.0347 11.8393 25.3156 10.658 24.5131C8.62839 23.1342 8.06883 22.945 6.91248 23.2469ZM11.2192 23.2844C10.9786 23.4372 11.2634 23.7803 12.1486 24.4042C13.3327 25.2386 13.4955 25.2803 14.404 24.9803C15.4715 24.6281 15.4423 24.5786 13.5916 23.6003C12.4956 23.0211 11.7835 22.9261 11.2192 23.2844ZM35.1125 35.5722C32.6295 38.0186 30.5979 40.1128 30.5979 40.2264C30.5979 40.3397 31.4123 41.2394 32.4075 42.2258L34.2167 44.0186L38.8007 39.4356L43.3847 34.8525L41.506 32.9886L39.627 31.1244L35.1125 35.5722ZM33.4185 39.9642C32.9367 40.2744 33.0996 41.1036 33.7183 41.4933C34.0909 41.7278 34.3093 41.6864 34.686 41.3094C35.4976 40.4983 34.3993 39.3325 33.4185 39.9642Z" fill="#6C6C6C"/>
</svg>
