<svg width="40" height="40" viewBox="0 0 40 40" fill="none" xmlns="http://www.w3.org/2000/svg">
<mask id="path-1-inside-1_4155_3368" fill="white">
<path fill-rule="evenodd" clip-rule="evenodd" d="M2.58534 0.136997C1.93188 0.322567 1.5005 0.575098 1.04467 1.03883C0.560746 1.53115 0.284791 2.02051 0.123201 2.67278C0.0130812 3.1176 0.000194052 4.55582 0.000194052 16.4424C0.000194052 30.9868 -0.0233423 30.2172 0.448003 31.0763C0.707906 31.5501 1.34532 32.1973 1.78086 32.4297C2.58218 32.8573 2.35576 32.8407 7.98536 32.8862L13.2311 32.9287L13.4829 34.9993C13.7424 37.1337 13.9029 37.8433 14.2392 38.3445C14.7937 39.1706 15.6367 39.7572 16.5055 39.9214C16.7701 39.9714 20.4566 39.9999 26.6483 39.9999C37.2924 39.9999 36.8836 40.0166 37.7195 39.5465C38.1842 39.2852 38.8041 38.6578 39.0617 38.1882C39.5526 37.2935 39.5199 38.54 39.5421 19.9193C39.5532 10.6155 39.542 4.61544 39.5171 6.58591C39.4772 9.74552 39.4602 10.1174 39.3725 9.73536C39.1205 8.63648 38.2656 7.71574 37.0797 7.26592C36.8146 7.16536 35.5396 7.14301 28.0527 7.10754L19.3344 7.06621L19.0826 4.99564C18.9393 3.81706 18.7629 2.71083 18.6734 2.42782C18.2962 1.23682 17.2558 0.299517 16.06 0.0735521C15.8015 0.024718 13.2631 -0.00301978 9.34638 0.000261871C3.68908 0.00502808 3.00128 0.018936 2.58534 0.136997ZM2.95582 2.50088C2.72486 2.61715 2.58626 2.75912 2.47352 2.995C2.31587 3.32473 2.31525 3.37747 2.31525 16.4424C2.31525 29.5265 2.31563 29.5595 2.47422 29.8912C2.58966 30.1326 2.72316 30.2678 2.96161 30.3847C3.28695 30.5442 3.3669 30.5456 11.5979 30.5456H19.9058L19.8671 30.3308C19.8458 30.2126 19.0836 24.0593 18.1731 16.6568C17.0746 7.72465 16.4787 3.12119 16.4014 2.96992C16.3375 2.84459 16.1717 2.6602 16.0331 2.56011L15.7812 2.37813L9.5305 2.35789C3.32685 2.33789 3.27739 2.33891 2.95582 2.50088ZM0.0379294 16.4424C0.0379294 23.8339 0.0469582 26.8461 0.0580704 23.1362C0.0691827 19.4263 0.0691827 13.3787 0.0580704 9.69707C0.0469582 6.01545 0.0379294 9.05082 0.0379294 16.4424ZM8.83336 8.42387C8.60757 8.52771 8.47523 8.6614 8.35145 8.91049C8.12743 9.36125 5.83089 21.0047 5.89147 21.3826C6.0117 22.1325 6.83539 22.55 7.53331 22.2147C8.00535 21.9879 8.07981 21.7909 8.50301 19.6493L8.89741 17.6534H10.4951H12.0928L12.4872 19.6493C12.9104 21.7909 12.9849 21.9879 13.4569 22.2147C14.1548 22.55 14.9785 22.1325 15.0988 21.3826C15.1593 21.0047 12.8628 9.36125 12.6388 8.91049C12.3619 8.35332 12.1149 8.28073 10.4951 8.28073C9.35055 8.28073 9.0972 8.30253 8.83336 8.42387ZM21.0085 20.603C22.1254 29.6559 22.3698 31.809 22.3061 32.0343C22.2524 32.2242 21.513 33.1491 19.9635 34.9643L17.6993 37.6168L26.9593 37.6367C36.1776 37.6564 36.2208 37.6558 36.5484 37.4952C36.7875 37.378 36.9209 37.243 37.0364 37.0014C37.195 36.6698 37.1954 36.6368 37.1954 23.5526C37.1954 10.4684 37.195 10.4354 37.0364 10.1038C36.921 9.86233 36.7875 9.72716 36.549 9.61027C36.2237 9.45079 36.1436 9.44931 27.9265 9.44931H19.6325L21.0085 20.603ZM9.82344 12.9654L9.36058 15.3094H10.4951H11.6296L11.1668 12.9654L10.7039 10.6213H10.4951H10.2863L9.82344 12.9654ZM28.4922 15.4349C28.0201 15.6788 27.8998 15.9528 27.8703 16.8526L27.844 17.6534H25.9913C24.4418 17.6534 24.0954 17.6742 23.8747 17.7803C23.1127 18.1464 23.0194 19.279 23.7103 19.7771C23.8397 19.8704 24.1082 19.9604 24.3181 19.9808C24.5249 20.0009 24.6943 20.0569 24.6945 20.1051C24.6947 20.1534 24.8814 20.6578 25.1094 21.2261C25.5686 22.3704 26.2322 23.5607 26.9339 24.4989L27.395 25.1153L27.067 25.4178C26.8867 25.5843 26.2625 26.1095 25.6799 26.585C24.5148 27.5362 24.3434 27.7698 24.405 28.3227C24.4786 28.984 25.0231 29.4268 25.6715 29.3528C26.0411 29.3106 26.4631 29.0143 27.8859 27.7976C28.3044 27.4396 28.7299 27.0823 28.8312 27.0036C29.048 26.835 28.9513 26.7766 30.1452 27.7976C31.568 29.0143 31.99 29.3106 32.3596 29.3528C33.008 29.4268 33.5525 28.984 33.6261 28.3227C33.6877 27.7698 33.5163 27.5362 32.3512 26.585C31.7686 26.1095 31.1444 25.5843 30.9641 25.4178L30.6361 25.1153L31.0972 24.4989C31.7989 23.5607 32.4625 22.3704 32.9217 21.2261C33.1497 20.6578 33.3364 20.1534 33.3366 20.1051C33.3368 20.0569 33.5062 20.0009 33.713 19.9808C33.9229 19.9604 34.1914 19.8704 34.3208 19.7771C35.0117 19.279 34.9184 18.1464 34.1564 17.7803C33.9355 17.6741 33.5887 17.6534 32.0328 17.6534H30.1731V16.9425C30.1731 16.1327 30.0576 15.7943 29.6907 15.5298C29.384 15.3087 28.8226 15.2642 28.4922 15.4349ZM27.1635 20.0794C27.1635 20.436 28.8141 23.3573 29.0156 23.3573C29.217 23.3573 30.8676 20.436 30.8676 20.0794C30.8676 20.0246 30.2548 19.9975 29.0156 19.9975C27.7763 19.9975 27.1635 20.0246 27.1635 20.0794ZM15.5882 32.9764C15.5882 33.2167 15.9147 35.7596 15.96 35.8731C16.0005 35.974 16.3081 35.6583 17.2859 34.5125C17.9862 33.6918 18.5708 32.9909 18.5849 32.955C18.5991 32.9191 17.9306 32.8897 17.0994 32.8897C16.0434 32.8897 15.5882 32.9158 15.5882 32.9764Z"/>
</mask>
<path fill-rule="evenodd" clip-rule="evenodd" d="M2.58534 0.136997C1.93188 0.322567 1.5005 0.575098 1.04467 1.03883C0.560746 1.53115 0.284791 2.02051 0.123201 2.67278C0.0130812 3.1176 0.000194052 4.55582 0.000194052 16.4424C0.000194052 30.9868 -0.0233423 30.2172 0.448003 31.0763C0.707906 31.5501 1.34532 32.1973 1.78086 32.4297C2.58218 32.8573 2.35576 32.8407 7.98536 32.8862L13.2311 32.9287L13.4829 34.9993C13.7424 37.1337 13.9029 37.8433 14.2392 38.3445C14.7937 39.1706 15.6367 39.7572 16.5055 39.9214C16.7701 39.9714 20.4566 39.9999 26.6483 39.9999C37.2924 39.9999 36.8836 40.0166 37.7195 39.5465C38.1842 39.2852 38.8041 38.6578 39.0617 38.1882C39.5526 37.2935 39.5199 38.54 39.5421 19.9193C39.5532 10.6155 39.542 4.61544 39.5171 6.58591C39.4772 9.74552 39.4602 10.1174 39.3725 9.73536C39.1205 8.63648 38.2656 7.71574 37.0797 7.26592C36.8146 7.16536 35.5396 7.14301 28.0527 7.10754L19.3344 7.06621L19.0826 4.99564C18.9393 3.81706 18.7629 2.71083 18.6734 2.42782C18.2962 1.23682 17.2558 0.299517 16.06 0.0735521C15.8015 0.024718 13.2631 -0.00301978 9.34638 0.000261871C3.68908 0.00502808 3.00128 0.018936 2.58534 0.136997ZM2.95582 2.50088C2.72486 2.61715 2.58626 2.75912 2.47352 2.995C2.31587 3.32473 2.31525 3.37747 2.31525 16.4424C2.31525 29.5265 2.31563 29.5595 2.47422 29.8912C2.58966 30.1326 2.72316 30.2678 2.96161 30.3847C3.28695 30.5442 3.3669 30.5456 11.5979 30.5456H19.9058L19.8671 30.3308C19.8458 30.2126 19.0836 24.0593 18.1731 16.6568C17.0746 7.72465 16.4787 3.12119 16.4014 2.96992C16.3375 2.84459 16.1717 2.6602 16.0331 2.56011L15.7812 2.37813L9.5305 2.35789C3.32685 2.33789 3.27739 2.33891 2.95582 2.50088ZM0.0379294 16.4424C0.0379294 23.8339 0.0469582 26.8461 0.0580704 23.1362C0.0691827 19.4263 0.0691827 13.3787 0.0580704 9.69707C0.0469582 6.01545 0.0379294 9.05082 0.0379294 16.4424ZM8.83336 8.42387C8.60757 8.52771 8.47523 8.6614 8.35145 8.91049C8.12743 9.36125 5.83089 21.0047 5.89147 21.3826C6.0117 22.1325 6.83539 22.55 7.53331 22.2147C8.00535 21.9879 8.07981 21.7909 8.50301 19.6493L8.89741 17.6534H10.4951H12.0928L12.4872 19.6493C12.9104 21.7909 12.9849 21.9879 13.4569 22.2147C14.1548 22.55 14.9785 22.1325 15.0988 21.3826C15.1593 21.0047 12.8628 9.36125 12.6388 8.91049C12.3619 8.35332 12.1149 8.28073 10.4951 8.28073C9.35055 8.28073 9.0972 8.30253 8.83336 8.42387ZM21.0085 20.603C22.1254 29.6559 22.3698 31.809 22.3061 32.0343C22.2524 32.2242 21.513 33.1491 19.9635 34.9643L17.6993 37.6168L26.9593 37.6367C36.1776 37.6564 36.2208 37.6558 36.5484 37.4952C36.7875 37.378 36.9209 37.243 37.0364 37.0014C37.195 36.6698 37.1954 36.6368 37.1954 23.5526C37.1954 10.4684 37.195 10.4354 37.0364 10.1038C36.921 9.86233 36.7875 9.72716 36.549 9.61027C36.2237 9.45079 36.1436 9.44931 27.9265 9.44931H19.6325L21.0085 20.603ZM9.82344 12.9654L9.36058 15.3094H10.4951H11.6296L11.1668 12.9654L10.7039 10.6213H10.4951H10.2863L9.82344 12.9654ZM28.4922 15.4349C28.0201 15.6788 27.8998 15.9528 27.8703 16.8526L27.844 17.6534H25.9913C24.4418 17.6534 24.0954 17.6742 23.8747 17.7803C23.1127 18.1464 23.0194 19.279 23.7103 19.7771C23.8397 19.8704 24.1082 19.9604 24.3181 19.9808C24.5249 20.0009 24.6943 20.0569 24.6945 20.1051C24.6947 20.1534 24.8814 20.6578 25.1094 21.2261C25.5686 22.3704 26.2322 23.5607 26.9339 24.4989L27.395 25.1153L27.067 25.4178C26.8867 25.5843 26.2625 26.1095 25.6799 26.585C24.5148 27.5362 24.3434 27.7698 24.405 28.3227C24.4786 28.984 25.0231 29.4268 25.6715 29.3528C26.0411 29.3106 26.4631 29.0143 27.8859 27.7976C28.3044 27.4396 28.7299 27.0823 28.8312 27.0036C29.048 26.835 28.9513 26.7766 30.1452 27.7976C31.568 29.0143 31.99 29.3106 32.3596 29.3528C33.008 29.4268 33.5525 28.984 33.6261 28.3227C33.6877 27.7698 33.5163 27.5362 32.3512 26.585C31.7686 26.1095 31.1444 25.5843 30.9641 25.4178L30.6361 25.1153L31.0972 24.4989C31.7989 23.5607 32.4625 22.3704 32.9217 21.2261C33.1497 20.6578 33.3364 20.1534 33.3366 20.1051C33.3368 20.0569 33.5062 20.0009 33.713 19.9808C33.9229 19.9604 34.1914 19.8704 34.3208 19.7771C35.0117 19.279 34.9184 18.1464 34.1564 17.7803C33.9355 17.6741 33.5887 17.6534 32.0328 17.6534H30.1731V16.9425C30.1731 16.1327 30.0576 15.7943 29.6907 15.5298C29.384 15.3087 28.8226 15.2642 28.4922 15.4349ZM27.1635 20.0794C27.1635 20.436 28.8141 23.3573 29.0156 23.3573C29.217 23.3573 30.8676 20.436 30.8676 20.0794C30.8676 20.0246 30.2548 19.9975 29.0156 19.9975C27.7763 19.9975 27.1635 20.0246 27.1635 20.0794ZM15.5882 32.9764C15.5882 33.2167 15.9147 35.7596 15.96 35.8731C16.0005 35.974 16.3081 35.6583 17.2859 34.5125C17.9862 33.6918 18.5708 32.9909 18.5849 32.955C18.5991 32.9191 17.9306 32.8897 17.0994 32.8897C16.0434 32.8897 15.5882 32.9158 15.5882 32.9764Z" fill="#6C6C6C" stroke="white" stroke-width="1.4" mask="url(#path-1-inside-1_4155_3368)"/>
</svg>
