<svg width="64" height="64" viewBox="0 0 64 64" fill="none" xmlns="http://www.w3.org/2000/svg">
<circle cx="32" cy="32" r="31.7" fill="url(#paint0_linear_3765_4611)" stroke="white" stroke-width="0.6"/>
<path d="M44.7 40.97H20.31C18.77 40.97 18 39.8 18 37.46V29.54C18 27.52 18.77 26.51 20.31 26.51H44.7V29.84H21.6C21.3 30.36 21.14 30.8 21.12 31.16V36.38L21.42 37.28H44.7V40.97Z" fill="#FEFEFE"/>
<path fill-rule="evenodd" clip-rule="evenodd" d="M35.7865 12.1126C35.6819 12.1882 35.572 12.4282 35.4522 12.8424C35.0567 14.2106 34.5 14.6841 32.8795 15.031C32.207 15.1749 32 15.3091 32 15.6011C32 15.8636 32.1946 15.9719 32.9753 16.1439C34.528 16.4862 35.081 16.978 35.4676 18.3604C35.5501 18.6553 35.6754 18.9521 35.7461 19.0201C36.0193 19.2823 36.5328 19.1037 36.6355 18.7108C37.0933 16.958 37.5426 16.5174 39.2527 16.1442C39.994 15.9824 40.2222 15.8494 40.2222 15.579C40.2222 15.2987 40.0297 15.1721 39.4271 15.0562C37.7045 14.7247 37.1155 14.2315 36.7379 12.8045C36.5761 12.1931 36.4257 12 36.1111 12C36.0183 12 35.8722 12.0506 35.7865 12.1126ZM44.8148 13.3978C44.2636 13.5707 44.3716 14.2525 44.9501 14.2525C45.1936 14.2525 45.4815 14.0187 45.4815 13.821C45.4815 13.56 45.09 13.3115 44.8148 13.3978ZM43.1328 15.7654C43.0313 15.8271 42.9406 15.9895 42.8833 16.2122C42.6976 16.9326 42.3441 17.2398 41.5149 17.4011C41.0904 17.4836 40.8889 17.6428 40.8889 17.8958C40.8889 18.1311 41.1227 18.2923 41.6188 18.3993C42.4023 18.5682 42.6836 18.83 42.8865 19.579C42.9831 19.9356 43.1683 20.1089 43.4527 20.1089C43.7261 20.1089 43.9091 19.9062 44.0334 19.4653C44.223 18.7932 44.4856 18.5651 45.2593 18.4003C45.7667 18.2923 46 18.1334 46 17.8958C46 17.6267 45.8043 17.4898 45.2519 17.3722C44.433 17.1979 44.1578 16.9201 43.9623 16.0706C43.8804 15.7146 43.4664 15.5623 43.1328 15.7654ZM38.9008 19.8998C38.8132 19.9644 38.6968 20.189 38.6276 20.4268C38.4735 20.9571 38.2861 21.2735 38.0044 21.4795C37.7645 21.6548 37.1616 21.8727 36.7143 21.9456C36.4084 21.9955 36.2222 22.1779 36.2222 22.4277C36.2222 22.6964 36.3747 22.8035 36.94 22.9317C37.7633 23.1185 38.0941 23.3172 38.3644 23.7872C38.4899 24.0054 38.5928 24.2155 38.593 24.2541C38.594 24.4192 38.7553 24.8104 38.8599 24.9013C38.9224 24.9556 39.0855 25 39.2222 25C39.359 25 39.522 24.9556 39.5845 24.9013C39.6892 24.8104 39.8504 24.4192 39.8514 24.2541C39.8516 24.2155 39.9545 24.0054 40.0801 23.7872C40.3504 23.3172 40.6812 23.1185 41.5044 22.9317C42.0621 22.8052 42.2222 22.6958 42.2222 22.4414C42.2222 22.1531 42.0885 22.0488 41.5359 21.9062C40.3807 21.6082 40.0867 21.3551 39.8168 20.4268C39.6887 19.9864 39.5036 19.7871 39.2222 19.7871C39.1294 19.7871 38.9847 19.8378 38.9008 19.8998ZM32.6055 21.2232C32.5169 21.3051 32.4444 21.4368 32.4444 21.5157C32.4444 21.6915 32.7564 21.9752 32.9496 21.9752C33.1931 21.9752 33.4815 21.7284 33.4815 21.5201C33.4815 21.1175 32.9241 20.9286 32.6055 21.2232Z" fill="#FEFEFE"/>
<path d="M44.7 40.97H20.31C18.77 40.97 18 39.8 18 37.46V29.54C18 27.52 18.77 26.51 20.31 26.51H44.7V29.84H21.6C21.3 30.36 21.14 30.8 21.12 31.16V36.38L21.42 37.28H44.7V40.97Z" fill="#FEFEFE"/>
<path fill-rule="evenodd" clip-rule="evenodd" d="M35.7865 12.1126C35.6819 12.1882 35.572 12.4282 35.4522 12.8424C35.0567 14.2106 34.5 14.6841 32.8795 15.031C32.207 15.1749 32 15.3091 32 15.6011C32 15.8636 32.1946 15.9719 32.9753 16.1439C34.528 16.4862 35.081 16.978 35.4676 18.3604C35.5501 18.6553 35.6754 18.9521 35.7461 19.0201C36.0193 19.2823 36.5328 19.1037 36.6355 18.7108C37.0933 16.958 37.5426 16.5174 39.2527 16.1442C39.994 15.9824 40.2222 15.8494 40.2222 15.579C40.2222 15.2987 40.0297 15.1721 39.4271 15.0562C37.7045 14.7247 37.1155 14.2315 36.7379 12.8045C36.5761 12.1931 36.4257 12 36.1111 12C36.0183 12 35.8722 12.0506 35.7865 12.1126ZM44.8148 13.3978C44.2636 13.5707 44.3716 14.2525 44.9501 14.2525C45.1936 14.2525 45.4815 14.0187 45.4815 13.821C45.4815 13.56 45.09 13.3115 44.8148 13.3978ZM43.1328 15.7654C43.0313 15.8271 42.9406 15.9895 42.8833 16.2122C42.6976 16.9326 42.3441 17.2398 41.5149 17.4011C41.0904 17.4836 40.8889 17.6428 40.8889 17.8958C40.8889 18.1311 41.1227 18.2923 41.6188 18.3993C42.4023 18.5682 42.6836 18.83 42.8865 19.579C42.9831 19.9356 43.1683 20.1089 43.4527 20.1089C43.7261 20.1089 43.9091 19.9062 44.0334 19.4653C44.223 18.7932 44.4856 18.5651 45.2593 18.4003C45.7667 18.2923 46 18.1334 46 17.8958C46 17.6267 45.8043 17.4898 45.2519 17.3722C44.433 17.1979 44.1578 16.9201 43.9623 16.0706C43.8804 15.7146 43.4664 15.5623 43.1328 15.7654ZM38.9008 19.8998C38.8132 19.9644 38.6968 20.189 38.6276 20.4268C38.4735 20.9571 38.2861 21.2735 38.0044 21.4795C37.7645 21.6548 37.1616 21.8727 36.7143 21.9456C36.4084 21.9955 36.2222 22.1779 36.2222 22.4277C36.2222 22.6964 36.3747 22.8035 36.94 22.9317C37.7633 23.1185 38.0941 23.3172 38.3644 23.7872C38.4899 24.0054 38.5928 24.2155 38.593 24.2541C38.594 24.4192 38.7553 24.8104 38.8599 24.9013C38.9224 24.9556 39.0855 25 39.2222 25C39.359 25 39.522 24.9556 39.5845 24.9013C39.6892 24.8104 39.8504 24.4192 39.8514 24.2541C39.8516 24.2155 39.9545 24.0054 40.0801 23.7872C40.3504 23.3172 40.6812 23.1185 41.5044 22.9317C42.0621 22.8052 42.2222 22.6958 42.2222 22.4414C42.2222 22.1531 42.0885 22.0488 41.5359 21.9062C40.3807 21.6082 40.0867 21.3551 39.8168 20.4268C39.6887 19.9864 39.5036 19.7871 39.2222 19.7871C39.1294 19.7871 38.9847 19.8378 38.9008 19.8998ZM32.6055 21.2232C32.5169 21.3051 32.4444 21.4368 32.4444 21.5157C32.4444 21.6915 32.7564 21.9752 32.9496 21.9752C33.1931 21.9752 33.4815 21.7284 33.4815 21.5201C33.4815 21.1175 32.9241 20.9286 32.6055 21.2232Z" fill="#FEFEFE"/>
<defs>
<linearGradient id="paint0_linear_3765_4611" x1="79.6735" y1="10.449" x2="32" y2="64" gradientUnits="userSpaceOnUse">
<stop stop-color="#17876E"/>
<stop offset="0.284475" stop-color="#59FFDA"/>
<stop offset="1" stop-color="#192D4C"/>
</linearGradient>
</defs>
</svg>
