<svg width="83" height="14" viewBox="0 0 83 14" fill="none" xmlns="http://www.w3.org/2000/svg">
<path d="M12.46 10.986H1.078C0.359333 10.986 0 10.44 0 9.348V5.652C0 4.70933 0.359333 4.238 1.078 4.238H12.46V5.792H1.68C1.54 6.03467 1.46533 6.24 1.456 6.408V8.844L1.596 9.264H12.46V10.986ZM26.2279 10.986H24.7299V8.256H15.1539V10.986H13.7539V5.54C13.7632 4.66267 14.2112 4.224 15.0979 4.224H25.0379C25.8312 4.224 26.2279 4.69533 26.2279 5.638V10.986ZM15.1539 6.772H24.7439V6.198C24.6039 5.96467 24.4966 5.83867 24.4219 5.82H15.4899C15.3966 5.82 15.2846 5.94133 15.1539 6.184V6.772ZM34.4238 10.972L32.9958 10.986V5.764H29.3278C29.1971 5.792 29.0758 5.946 28.9638 6.226V10.986H27.5078V5.848C27.5078 4.74667 27.8391 4.196 28.5018 4.196H38.9038C39.6131 4.196 39.9678 4.74667 39.9678 5.848V10.986H38.5398V6.226C38.3811 5.95533 38.2505 5.80133 38.1478 5.764H34.4238V10.972ZM53.7217 10.986H41.2757V4.224H53.7217V5.764H42.6897V6.8H53.7217V8.256H42.6897V9.292H53.7217V10.986ZM67.517 10.986H66.033L64.927 8.256H56.443V10.986H55.043V4.196H66.551C67.195 4.196 67.517 4.658 67.517 5.582V6.716C67.517 7.74267 67.195 8.256 66.551 8.256H66.439L67.517 10.986ZM65.795 5.764H56.443V6.772H65.767C66.0003 6.66 66.117 6.49667 66.117 6.282C66.117 6.18867 66.089 6.1 66.033 6.016C65.9863 5.92267 65.907 5.83867 65.795 5.764ZM79.8289 8.956V6.324C79.8289 6.13733 79.7775 6.002 79.6749 5.918C79.5722 5.834 79.4555 5.77333 79.3249 5.736H70.6309C70.3789 5.75467 70.2529 5.95067 70.2529 6.324V8.956C70.3649 9.236 70.4909 9.376 70.6309 9.376H79.4509C79.5722 9.36667 79.6982 9.22667 79.8289 8.956ZM76.3569 10.986H69.9029C69.1655 10.986 68.7969 10.4353 68.7969 9.334V5.624C68.7969 4.672 69.1702 4.196 69.9169 4.196H80.1929C80.9022 4.196 81.2569 4.672 81.2569 5.624V9.334C81.2569 10.4353 80.9022 10.986 80.1929 10.986H76.3569Z" fill="white"/>
</svg>
