<svg width="192" height="16" viewBox="0 0 192 16" fill="none" xmlns="http://www.w3.org/2000/svg">
<path d="M29.37 16.005H2.541C0.847 16.005 0 14.718 0 12.144V3.432C0 1.21 0.847 0.0990007 2.541 0.0990007H29.37V3.762H3.96C3.63 4.334 3.454 4.818 3.432 5.214V10.956L3.762 11.946H29.37V16.005ZM61.8229 16.005H58.2919V9.57H35.7199V16.005H32.4199V3.168C32.4419 1.1 33.4979 0.0660002 35.5879 0.0660002H59.0179C60.8879 0.0660002 61.8229 1.177 61.8229 3.399V16.005ZM35.7199 6.072H58.3249V4.719C57.9949 4.169 57.7419 3.872 57.5659 3.828H36.5119C36.2919 3.828 36.0279 4.114 35.7199 4.686V6.072ZM81.1418 15.972L77.7758 16.005V3.696H69.1298C68.8218 3.762 68.5358 4.125 68.2718 4.785V16.005H64.8398V3.894C64.8398 1.298 65.6208 2.98023e-08 67.1828 2.98023e-08H91.7018C93.3738 2.98023e-08 94.2098 1.298 94.2098 3.894V16.005H90.8438V4.785C90.4698 4.147 90.1618 3.784 89.9198 3.696H81.1418V15.972ZM126.63 16.005H97.2928V0.0660002H126.63V3.696H100.626V6.138H126.63V9.57H100.626V12.012H126.63V16.005ZM159.147 16.005H155.649L153.042 9.57H133.044V16.005H129.744V2.98023e-08H156.87C158.388 2.98023e-08 159.147 1.089 159.147 3.267V5.94C159.147 8.36 158.388 9.57 156.87 9.57H156.606L159.147 16.005ZM155.088 3.696H133.044V6.072H155.022C155.572 5.808 155.847 5.423 155.847 4.917C155.847 4.697 155.781 4.488 155.649 4.29C155.539 4.07 155.352 3.872 155.088 3.696ZM188.168 11.22V5.016C188.168 4.576 188.047 4.257 187.805 4.059C187.563 3.861 187.288 3.718 186.98 3.63H166.487C165.893 3.674 165.596 4.136 165.596 5.016V11.22C165.86 11.88 166.157 12.21 166.487 12.21H187.277C187.563 12.188 187.86 11.858 188.168 11.22ZM179.984 16.005H164.771C163.033 16.005 162.164 14.707 162.164 12.111V3.366C162.164 1.122 163.044 2.98023e-08 164.804 2.98023e-08H189.026C190.698 2.98023e-08 191.534 1.122 191.534 3.366V12.111C191.534 14.707 190.698 16.005 189.026 16.005H179.984Z" fill="#17876E"/>
</svg>
