<svg width="51" height="51" viewBox="0 0 51 51" fill="none" xmlns="http://www.w3.org/2000/svg">
<path fill-rule="evenodd" clip-rule="evenodd" d="M22.9122 0.0655806C12.7726 1.14167 4.19014 8.14576 1.16276 17.8151C-0.892937 24.3808 -0.195757 31.7402 3.03921 37.6233C6.81025 44.4811 13.1654 49.1466 20.6864 50.5785C22.5518 50.9337 23.3166 51.0008 25.4895 51C27.5858 50.9992 28.5129 50.9239 30.1363 50.6225C37.4206 49.2703 43.7828 44.7839 47.539 38.3506C50.4148 33.4252 51.5479 27.6353 50.7521 21.9322C49.6061 13.7191 44.4767 6.52155 37.087 2.75747C34.4867 1.43294 32.1864 0.694202 29.1601 0.211716C27.942 0.0175898 24.1915 -0.0701577 22.9122 0.0655806ZM23.8494 2.60435C16.3597 3.16968 9.7115 7.22262 5.78849 13.6149C1.42251 20.7289 1.32645 29.7372 5.5392 36.9865C6.40258 38.4721 7.35123 39.7239 8.69217 41.1471C10.5804 43.151 12.2153 44.4129 14.5674 45.6817C18.0055 47.5362 21.4648 48.4016 25.4504 48.404C28.2001 48.4057 30.3473 48.0689 32.8307 47.2464C37.5968 45.6678 41.6606 42.575 44.6721 38.2341C44.8466 37.9825 45.2643 37.2908 45.6002 36.6971C47.1588 33.9427 48.0683 31.0923 48.4218 27.8545C48.5733 26.4671 48.5301 23.6817 48.3363 22.348C48.0847 20.6156 47.6075 18.7696 47.0249 17.2745C43.9433 9.36665 36.7234 3.75405 28.301 2.71897C27.5266 2.62382 24.5927 2.5483 23.8494 2.60435ZM33.5365 18.2338C33.3877 18.3046 33.0363 18.595 32.7555 18.8792C32.4747 19.1633 31.7353 19.9038 31.1125 20.5249C30.1168 21.5178 22.7369 28.8696 22.0756 29.5275L21.8247 29.7771L21.2166 29.1549C19.4369 27.3345 17.9137 25.8362 17.6468 25.6432C16.8565 25.072 15.8007 25.6681 15.7862 26.6937C15.7835 26.8882 15.8361 27.1597 15.9033 27.2969C16.029 27.5537 20.9772 32.532 21.2916 32.718C21.5548 32.8737 22.2115 32.8526 22.4563 32.6807C22.7643 32.4644 34.8773 20.3593 35.0364 20.1088C35.2186 19.8221 35.2188 19.0871 35.0369 18.7579C34.7528 18.2438 34.039 17.9944 33.5365 18.2338Z" fill="#F7FAFC"/>
</svg>
