<svg width="93" height="94" viewBox="0 0 93 94" fill="none" xmlns="http://www.w3.org/2000/svg">
<mask id="path-1-outside-1_4434_5836" maskUnits="userSpaceOnUse" x="-0.699219" y="-0.699951" width="94" height="95" fill="black">
<rect fill="white" x="-0.699219" y="-0.699951" width="94" height="95"/>
<path fill-rule="evenodd" clip-rule="evenodd" d="M72.6695 7.13183L65.8997 13.9636L66.3934 18.8775L66.8874 23.7912L65.6495 25.0674L64.4115 26.3436L62.9358 25.0864C57.8499 20.7532 50.8363 17.5609 44.1067 16.5164C40.3511 15.9336 33.846 16.1446 30.3304 16.9635C22.9621 18.6798 16.8476 22.1138 11.5062 27.5358C9.83303 29.2342 7.71533 31.7594 6.80025 33.1473C-1.42008 45.6149 -1.87502 61.4914 5.61905 74.3674C11.0629 83.7206 20.2577 90.3388 30.9866 92.6267C35.187 93.5224 41.7423 93.5247 45.8908 92.6323C53.5479 90.9848 59.9045 87.5297 65.3721 82.0424C70.7728 76.6222 74.3696 69.8687 75.9826 62.1195C76.6266 59.0248 76.7019 51.312 76.1199 48.0563C74.9977 41.7821 71.9516 35.1639 67.8347 30.0557L66.4319 28.3154L67.7107 27.1997C68.4141 26.5862 69.2501 26.0829 69.5687 26.0814C69.8872 26.08 72.0819 26.2971 74.4461 26.564L78.7443 27.0488L85.5226 20.1957C89.2506 16.4264 92.3008 13.1313 92.3008 12.8728C92.3008 11.8418 91.3411 11.5172 86.8037 11.0133C84.3376 10.7393 82.2981 10.4912 82.2714 10.4616C82.2448 10.432 82.0097 8.36442 81.7485 5.86673C81.3425 1.98177 81.1872 1.25137 80.6741 0.81277C80.3443 0.530627 79.9313 0.300049 79.7567 0.300049C79.5824 0.300049 76.3929 3.37432 72.6695 7.13183ZM76.8487 6.99735L75.166 8.71776L75.4947 12.1996C75.6754 14.1148 75.8784 15.9536 75.9458 16.2861C76.0573 16.8372 76.4155 16.9242 80.0142 17.2738L83.9603 17.6567L85.6752 15.9398C87.686 13.9264 87.746 13.985 83.3064 13.6293C79.6478 13.3363 79.4182 13.0943 79.1315 9.22754C78.8144 4.94706 78.8347 4.96669 76.8487 6.99735ZM70.6867 13.2725L68.9415 15.0957L69.3304 19.0296C69.5444 21.193 69.7558 23.0001 69.8001 23.0449C69.8444 23.0901 71.6348 23.3148 73.7789 23.5448L77.6769 23.9629L79.5059 22.1443L81.3349 20.3255L77.7685 19.9724C75.1113 19.7096 74.0783 19.4913 73.7166 19.1157C73.3668 18.7521 73.1346 17.6297 72.8853 15.0957C72.695 13.162 72.5152 11.5506 72.4856 11.5146C72.4561 11.4788 71.6467 12.2699 70.6867 13.2725ZM33.4171 19.3525C9.21622 23.2155 -3.96521 49.4096 7.25721 71.338C12.225 81.0451 22.073 88.2332 32.7919 89.9758C35.7505 90.4569 41.4307 90.4546 44.2303 89.9711C55.2999 88.0597 64.9056 80.8793 69.9599 70.7376C76.2117 58.1933 74.6106 43.3894 65.7836 32.1242L64.4338 30.4017L60.673 34.2064L56.9123 38.0114L58.2878 39.8844C59.8761 42.0467 61.6342 45.6676 62.3265 48.2028C63.0572 50.8775 63.2289 56.7787 62.6575 59.5744C61.055 67.4137 56.1703 73.7387 49.0527 77.1894C45.1014 79.1053 43.1036 79.5374 38.2939 79.5166C34.7596 79.5017 33.9128 79.3991 31.6894 78.7165C24.6755 76.5633 19.4002 72.0461 16.2991 65.5387C14.5978 61.9687 14.1087 60.003 13.9129 55.9499C13.6402 50.2997 14.914 45.5935 17.9763 40.9368C22.651 33.8288 29.9404 29.8955 38.4387 29.8955C43.9396 29.8955 48.9198 31.5119 53.0959 34.6529L54.8669 35.9848L58.5979 32.1863L62.3292 28.3878L61.3156 27.5021C57.6397 24.2898 52.2335 21.4857 47.1919 20.176C44.3291 19.4324 43.114 19.2775 39.4523 19.1884C37.0632 19.1301 34.3475 19.2042 33.4171 19.3525ZM33.0279 33.3893C25.561 35.427 19.9009 41.0025 17.5431 48.6423C16.6608 51.5015 16.5901 57.3767 17.4024 60.3616C19.4726 67.9692 25.4128 73.9798 32.9367 76.0793C35.4963 76.7936 41.3073 76.7913 43.9408 76.0746C51.7461 73.9514 57.5928 67.8737 59.6114 59.7848C60.4816 56.2974 60.2946 51.2964 59.1669 47.9098C58.3981 45.6017 56.7718 42.5392 55.4664 40.9421L54.8 40.1267L51.0983 43.8854L47.3969 47.6441L48.281 49.3882C49.4929 51.7799 49.9012 54.3101 49.4512 56.6443C48.7339 60.3681 46.4144 63.4125 43.072 65.0172C41.6696 65.6904 41.1165 65.7818 38.4387 65.7818C35.6926 65.7818 35.2377 65.7021 33.7423 64.9591C28.0546 62.1333 25.7762 55.4123 28.564 49.683C30.8056 45.0758 36.1956 42.528 41.0423 43.7844C42.0712 44.051 43.447 44.5859 44.1 44.9733L45.2873 45.677L49.0299 41.882L52.7724 38.087L51.9039 37.3806C50.2096 36.0027 47.9682 34.7927 45.4642 33.9041C43.2009 33.101 42.5059 32.9941 39.0179 32.9126C35.8525 32.8388 34.7124 32.9293 33.0279 33.3893ZM35.8918 46.8355C33.9511 47.5363 32.4453 48.7604 31.3677 50.5133C30.6727 51.6439 30.4996 52.2955 30.3913 54.1888C30.2772 56.1825 30.3548 56.7002 30.9707 58.0614C32.3555 61.1222 35.1158 62.9903 38.2603 62.9956C40.5141 62.9994 41.854 62.5614 43.5461 61.2676C46.4358 59.0576 47.5133 54.833 46.0373 51.4989C45.6985 50.7333 45.3139 50.1072 45.1825 50.1072C45.0513 50.1072 43.5802 51.4916 41.9137 53.1835C40.2472 54.8755 38.6733 56.2599 38.4164 56.2599C37.8103 56.2599 36.9908 55.337 36.9908 54.6549C36.9908 54.3613 38.3741 52.7013 40.0647 50.9654L43.1383 47.8096L41.9505 47.1964C40.2156 46.3008 37.7753 46.1555 35.8918 46.8355Z"/>
</mask>
<path fill-rule="evenodd" clip-rule="evenodd" d="M72.6695 7.13183L65.8997 13.9636L66.3934 18.8775L66.8874 23.7912L65.6495 25.0674L64.4115 26.3436L62.9358 25.0864C57.8499 20.7532 50.8363 17.5609 44.1067 16.5164C40.3511 15.9336 33.846 16.1446 30.3304 16.9635C22.9621 18.6798 16.8476 22.1138 11.5062 27.5358C9.83303 29.2342 7.71533 31.7594 6.80025 33.1473C-1.42008 45.6149 -1.87502 61.4914 5.61905 74.3674C11.0629 83.7206 20.2577 90.3388 30.9866 92.6267C35.187 93.5224 41.7423 93.5247 45.8908 92.6323C53.5479 90.9848 59.9045 87.5297 65.3721 82.0424C70.7728 76.6222 74.3696 69.8687 75.9826 62.1195C76.6266 59.0248 76.7019 51.312 76.1199 48.0563C74.9977 41.7821 71.9516 35.1639 67.8347 30.0557L66.4319 28.3154L67.7107 27.1997C68.4141 26.5862 69.2501 26.0829 69.5687 26.0814C69.8872 26.08 72.0819 26.2971 74.4461 26.564L78.7443 27.0488L85.5226 20.1957C89.2506 16.4264 92.3008 13.1313 92.3008 12.8728C92.3008 11.8418 91.3411 11.5172 86.8037 11.0133C84.3376 10.7393 82.2981 10.4912 82.2714 10.4616C82.2448 10.432 82.0097 8.36442 81.7485 5.86673C81.3425 1.98177 81.1872 1.25137 80.6741 0.81277C80.3443 0.530627 79.9313 0.300049 79.7567 0.300049C79.5824 0.300049 76.3929 3.37432 72.6695 7.13183ZM76.8487 6.99735L75.166 8.71776L75.4947 12.1996C75.6754 14.1148 75.8784 15.9536 75.9458 16.2861C76.0573 16.8372 76.4155 16.9242 80.0142 17.2738L83.9603 17.6567L85.6752 15.9398C87.686 13.9264 87.746 13.985 83.3064 13.6293C79.6478 13.3363 79.4182 13.0943 79.1315 9.22754C78.8144 4.94706 78.8347 4.96669 76.8487 6.99735ZM70.6867 13.2725L68.9415 15.0957L69.3304 19.0296C69.5444 21.193 69.7558 23.0001 69.8001 23.0449C69.8444 23.0901 71.6348 23.3148 73.7789 23.5448L77.6769 23.9629L79.5059 22.1443L81.3349 20.3255L77.7685 19.9724C75.1113 19.7096 74.0783 19.4913 73.7166 19.1157C73.3668 18.7521 73.1346 17.6297 72.8853 15.0957C72.695 13.162 72.5152 11.5506 72.4856 11.5146C72.4561 11.4788 71.6467 12.2699 70.6867 13.2725ZM33.4171 19.3525C9.21622 23.2155 -3.96521 49.4096 7.25721 71.338C12.225 81.0451 22.073 88.2332 32.7919 89.9758C35.7505 90.4569 41.4307 90.4546 44.2303 89.9711C55.2999 88.0597 64.9056 80.8793 69.9599 70.7376C76.2117 58.1933 74.6106 43.3894 65.7836 32.1242L64.4338 30.4017L60.673 34.2064L56.9123 38.0114L58.2878 39.8844C59.8761 42.0467 61.6342 45.6676 62.3265 48.2028C63.0572 50.8775 63.2289 56.7787 62.6575 59.5744C61.055 67.4137 56.1703 73.7387 49.0527 77.1894C45.1014 79.1053 43.1036 79.5374 38.2939 79.5166C34.7596 79.5017 33.9128 79.3991 31.6894 78.7165C24.6755 76.5633 19.4002 72.0461 16.2991 65.5387C14.5978 61.9687 14.1087 60.003 13.9129 55.9499C13.6402 50.2997 14.914 45.5935 17.9763 40.9368C22.651 33.8288 29.9404 29.8955 38.4387 29.8955C43.9396 29.8955 48.9198 31.5119 53.0959 34.6529L54.8669 35.9848L58.5979 32.1863L62.3292 28.3878L61.3156 27.5021C57.6397 24.2898 52.2335 21.4857 47.1919 20.176C44.3291 19.4324 43.114 19.2775 39.4523 19.1884C37.0632 19.1301 34.3475 19.2042 33.4171 19.3525ZM33.0279 33.3893C25.561 35.427 19.9009 41.0025 17.5431 48.6423C16.6608 51.5015 16.5901 57.3767 17.4024 60.3616C19.4726 67.9692 25.4128 73.9798 32.9367 76.0793C35.4963 76.7936 41.3073 76.7913 43.9408 76.0746C51.7461 73.9514 57.5928 67.8737 59.6114 59.7848C60.4816 56.2974 60.2946 51.2964 59.1669 47.9098C58.3981 45.6017 56.7718 42.5392 55.4664 40.9421L54.8 40.1267L51.0983 43.8854L47.3969 47.6441L48.281 49.3882C49.4929 51.7799 49.9012 54.3101 49.4512 56.6443C48.7339 60.3681 46.4144 63.4125 43.072 65.0172C41.6696 65.6904 41.1165 65.7818 38.4387 65.7818C35.6926 65.7818 35.2377 65.7021 33.7423 64.9591C28.0546 62.1333 25.7762 55.4123 28.564 49.683C30.8056 45.0758 36.1956 42.528 41.0423 43.7844C42.0712 44.051 43.447 44.5859 44.1 44.9733L45.2873 45.677L49.0299 41.882L52.7724 38.087L51.9039 37.3806C50.2096 36.0027 47.9682 34.7927 45.4642 33.9041C43.2009 33.101 42.5059 32.9941 39.0179 32.9126C35.8525 32.8388 34.7124 32.9293 33.0279 33.3893ZM35.8918 46.8355C33.9511 47.5363 32.4453 48.7604 31.3677 50.5133C30.6727 51.6439 30.4996 52.2955 30.3913 54.1888C30.2772 56.1825 30.3548 56.7002 30.9707 58.0614C32.3555 61.1222 35.1158 62.9903 38.2603 62.9956C40.5141 62.9994 41.854 62.5614 43.5461 61.2676C46.4358 59.0576 47.5133 54.833 46.0373 51.4989C45.6985 50.7333 45.3139 50.1072 45.1825 50.1072C45.0513 50.1072 43.5802 51.4916 41.9137 53.1835C40.2472 54.8755 38.6733 56.2599 38.4164 56.2599C37.8103 56.2599 36.9908 55.337 36.9908 54.6549C36.9908 54.3613 38.3741 52.7013 40.0647 50.9654L43.1383 47.8096L41.9505 47.1964C40.2156 46.3008 37.7753 46.1555 35.8918 46.8355Z" fill="#17876E"/>
<path fill-rule="evenodd" clip-rule="evenodd" d="M72.6695 7.13183L65.8997 13.9636L66.3934 18.8775L66.8874 23.7912L65.6495 25.0674L64.4115 26.3436L62.9358 25.0864C57.8499 20.7532 50.8363 17.5609 44.1067 16.5164C40.3511 15.9336 33.846 16.1446 30.3304 16.9635C22.9621 18.6798 16.8476 22.1138 11.5062 27.5358C9.83303 29.2342 7.71533 31.7594 6.80025 33.1473C-1.42008 45.6149 -1.87502 61.4914 5.61905 74.3674C11.0629 83.7206 20.2577 90.3388 30.9866 92.6267C35.187 93.5224 41.7423 93.5247 45.8908 92.6323C53.5479 90.9848 59.9045 87.5297 65.3721 82.0424C70.7728 76.6222 74.3696 69.8687 75.9826 62.1195C76.6266 59.0248 76.7019 51.312 76.1199 48.0563C74.9977 41.7821 71.9516 35.1639 67.8347 30.0557L66.4319 28.3154L67.7107 27.1997C68.4141 26.5862 69.2501 26.0829 69.5687 26.0814C69.8872 26.08 72.0819 26.2971 74.4461 26.564L78.7443 27.0488L85.5226 20.1957C89.2506 16.4264 92.3008 13.1313 92.3008 12.8728C92.3008 11.8418 91.3411 11.5172 86.8037 11.0133C84.3376 10.7393 82.2981 10.4912 82.2714 10.4616C82.2448 10.432 82.0097 8.36442 81.7485 5.86673C81.3425 1.98177 81.1872 1.25137 80.6741 0.81277C80.3443 0.530627 79.9313 0.300049 79.7567 0.300049C79.5824 0.300049 76.3929 3.37432 72.6695 7.13183ZM76.8487 6.99735L75.166 8.71776L75.4947 12.1996C75.6754 14.1148 75.8784 15.9536 75.9458 16.2861C76.0573 16.8372 76.4155 16.9242 80.0142 17.2738L83.9603 17.6567L85.6752 15.9398C87.686 13.9264 87.746 13.985 83.3064 13.6293C79.6478 13.3363 79.4182 13.0943 79.1315 9.22754C78.8144 4.94706 78.8347 4.96669 76.8487 6.99735ZM70.6867 13.2725L68.9415 15.0957L69.3304 19.0296C69.5444 21.193 69.7558 23.0001 69.8001 23.0449C69.8444 23.0901 71.6348 23.3148 73.7789 23.5448L77.6769 23.9629L79.5059 22.1443L81.3349 20.3255L77.7685 19.9724C75.1113 19.7096 74.0783 19.4913 73.7166 19.1157C73.3668 18.7521 73.1346 17.6297 72.8853 15.0957C72.695 13.162 72.5152 11.5506 72.4856 11.5146C72.4561 11.4788 71.6467 12.2699 70.6867 13.2725ZM33.4171 19.3525C9.21622 23.2155 -3.96521 49.4096 7.25721 71.338C12.225 81.0451 22.073 88.2332 32.7919 89.9758C35.7505 90.4569 41.4307 90.4546 44.2303 89.9711C55.2999 88.0597 64.9056 80.8793 69.9599 70.7376C76.2117 58.1933 74.6106 43.3894 65.7836 32.1242L64.4338 30.4017L60.673 34.2064L56.9123 38.0114L58.2878 39.8844C59.8761 42.0467 61.6342 45.6676 62.3265 48.2028C63.0572 50.8775 63.2289 56.7787 62.6575 59.5744C61.055 67.4137 56.1703 73.7387 49.0527 77.1894C45.1014 79.1053 43.1036 79.5374 38.2939 79.5166C34.7596 79.5017 33.9128 79.3991 31.6894 78.7165C24.6755 76.5633 19.4002 72.0461 16.2991 65.5387C14.5978 61.9687 14.1087 60.003 13.9129 55.9499C13.6402 50.2997 14.914 45.5935 17.9763 40.9368C22.651 33.8288 29.9404 29.8955 38.4387 29.8955C43.9396 29.8955 48.9198 31.5119 53.0959 34.6529L54.8669 35.9848L58.5979 32.1863L62.3292 28.3878L61.3156 27.5021C57.6397 24.2898 52.2335 21.4857 47.1919 20.176C44.3291 19.4324 43.114 19.2775 39.4523 19.1884C37.0632 19.1301 34.3475 19.2042 33.4171 19.3525ZM33.0279 33.3893C25.561 35.427 19.9009 41.0025 17.5431 48.6423C16.6608 51.5015 16.5901 57.3767 17.4024 60.3616C19.4726 67.9692 25.4128 73.9798 32.9367 76.0793C35.4963 76.7936 41.3073 76.7913 43.9408 76.0746C51.7461 73.9514 57.5928 67.8737 59.6114 59.7848C60.4816 56.2974 60.2946 51.2964 59.1669 47.9098C58.3981 45.6017 56.7718 42.5392 55.4664 40.9421L54.8 40.1267L51.0983 43.8854L47.3969 47.6441L48.281 49.3882C49.4929 51.7799 49.9012 54.3101 49.4512 56.6443C48.7339 60.3681 46.4144 63.4125 43.072 65.0172C41.6696 65.6904 41.1165 65.7818 38.4387 65.7818C35.6926 65.7818 35.2377 65.7021 33.7423 64.9591C28.0546 62.1333 25.7762 55.4123 28.564 49.683C30.8056 45.0758 36.1956 42.528 41.0423 43.7844C42.0712 44.051 43.447 44.5859 44.1 44.9733L45.2873 45.677L49.0299 41.882L52.7724 38.087L51.9039 37.3806C50.2096 36.0027 47.9682 34.7927 45.4642 33.9041C43.2009 33.101 42.5059 32.9941 39.0179 32.9126C35.8525 32.8388 34.7124 32.9293 33.0279 33.3893ZM35.8918 46.8355C33.9511 47.5363 32.4453 48.7604 31.3677 50.5133C30.6727 51.6439 30.4996 52.2955 30.3913 54.1888C30.2772 56.1825 30.3548 56.7002 30.9707 58.0614C32.3555 61.1222 35.1158 62.9903 38.2603 62.9956C40.5141 62.9994 41.854 62.5614 43.5461 61.2676C46.4358 59.0576 47.5133 54.833 46.0373 51.4989C45.6985 50.7333 45.3139 50.1072 45.1825 50.1072C45.0513 50.1072 43.5802 51.4916 41.9137 53.1835C40.2472 54.8755 38.6733 56.2599 38.4164 56.2599C37.8103 56.2599 36.9908 55.337 36.9908 54.6549C36.9908 54.3613 38.3741 52.7013 40.0647 50.9654L43.1383 47.8096L41.9505 47.1964C40.2156 46.3008 37.7753 46.1555 35.8918 46.8355Z" stroke="#17876E" stroke-width="0.6" mask="url(#path-1-outside-1_4434_5836)"/>
</svg>
