<svg width="24" height="21" viewBox="0 0 24 21" fill="none" xmlns="http://www.w3.org/2000/svg">
<path fill-rule="evenodd" clip-rule="evenodd" d="M10.518 0.0846143C8.43166 0.432801 6.55346 1.38272 5.10636 2.82153C3.96743 3.95391 3.12248 5.3115 2.64872 6.77009C2.31777 7.78906 2.23767 8.26328 2.18237 9.53228L2.13323 10.6595L1.72428 10.8127C1.1414 11.0311 0.531846 11.6184 0.263376 12.2202C0.084058 12.6222 0.039599 12.8514 0.00746376 13.538C-0.0703005 15.2023 0.457747 16.2267 1.6785 16.7793C2.00196 16.9257 2.234 16.9545 3.32013 16.983L4.58502 17.0161L4.74913 17.3572C5.19505 18.2838 6.52741 18.3288 7.04821 17.4346L7.24211 17.1017V13.8299C7.24211 10.2457 7.23954 10.2236 6.78122 9.83557C6.34326 9.46479 5.87925 9.41095 5.27266 9.6605C5.15792 9.70766 5.13616 9.67251 5.13616 9.44046C5.13616 9.28854 5.18654 8.90519 5.24809 8.58847C5.77621 5.87086 7.71681 3.8351 10.44 3.14194C11.2079 2.94646 12.7433 2.94207 13.5095 3.13315C16.2178 3.80857 18.1882 5.84512 18.74 8.53903C18.8081 8.87168 18.8638 9.27276 18.8638 9.43026C18.8638 9.67204 18.8426 9.7079 18.7273 9.6605C18.1208 9.41095 17.6567 9.46479 17.2188 9.83557C16.7605 10.2236 16.7579 10.2457 16.7579 13.8299V17.1017L16.9518 17.4346C17.2169 17.8899 17.7145 18.1345 18.2463 18.0711L18.6298 18.0254V18.3395C18.6298 18.7451 18.452 19.0845 18.1385 19.2767C17.9081 19.4181 17.736 19.4299 15.8999 19.4293L13.911 19.4286L13.7429 19.1674C13.4817 18.7615 13.1517 18.6456 12.2612 18.647C11.2915 18.6487 10.9537 18.8061 10.7241 19.3634C10.5408 19.8084 10.5935 20.1853 10.888 20.5376C11.19 20.8986 11.5023 21 12.3126 21C13.1272 21 13.5352 20.8461 13.7668 20.4516L13.9056 20.2153H15.8246C18.0162 20.2153 18.3447 20.1588 18.812 19.7023C19.2942 19.2311 19.3623 19.0288 19.3955 17.9682L19.4254 17.0159L20.6851 16.9829C21.7659 16.9545 21.9983 16.9257 22.3215 16.7793C23.5423 16.2267 24.0703 15.2023 23.9925 13.538C23.9604 12.8514 23.9159 12.6222 23.7366 12.2202C23.4682 11.6184 22.8586 11.0311 22.2757 10.8127L21.8668 10.6595L21.8191 9.53228C21.7687 8.33987 21.6159 7.53709 21.2388 6.4824C20.085 3.25604 17.338 0.887163 13.911 0.163088C13.0624 -0.0161456 11.358 -0.0556178 10.518 0.0846143ZM10.245 0.911882C8.35592 1.30166 6.69885 2.21493 5.43474 3.56311C3.79365 5.31338 2.94456 7.41302 2.92132 9.77829L2.91321 10.6023L3.62276 10.6247L4.33239 10.6471L4.37903 9.64379C4.45196 8.07581 4.81442 6.92468 5.62973 5.67161C8.24556 1.65157 13.9467 1.03391 17.3296 4.40403C18.7783 5.84732 19.5109 7.53575 19.6191 9.6802L19.6675 10.6415H20.3601C20.9308 10.6415 21.0614 10.6188 21.1019 10.5125C21.1953 10.2676 20.9771 8.2603 20.7748 7.50256C19.9965 4.58797 17.7488 2.18551 14.9029 1.22625C13.4635 0.741045 11.6624 0.61949 10.245 0.911882ZM11.3264 3.90612C11.1484 3.99283 10.986 4.28146 10.986 4.51115C10.986 4.76179 10.8947 4.75292 10.6363 4.47733C10.3327 4.15339 10.1712 4.14224 9.64757 4.40921C8.93678 4.7716 8.70653 5.18476 8.97461 5.61668C9.10174 5.8215 9.00315 5.90044 8.75972 5.78885C8.27551 5.56693 7.96133 5.75126 7.59942 6.46985C7.33407 6.99664 7.34514 7.15916 7.66712 7.46458C7.94105 7.72456 7.94986 7.81645 7.70074 7.81645C7.46089 7.81645 7.18486 7.98289 7.09469 8.1819C7.04711 8.28714 7.00811 8.61351 7.00811 8.90731C7.00811 9.36552 7.03534 9.47099 7.19937 9.64912C7.32565 9.78614 7.4715 9.85676 7.62836 9.85676C7.92686 9.85676 7.92764 9.93971 7.6321 10.237C7.5034 10.3665 7.39811 10.547 7.39811 10.638C7.39811 10.8586 7.75432 11.5563 7.98582 11.7893C8.18877 11.9934 8.62525 12.0436 8.78647 11.8814C8.94668 11.7202 9.0473 11.9096 8.94551 12.1808C8.79895 12.5714 8.91392 12.8123 9.39439 13.1215C9.63205 13.2745 9.94537 13.4191 10.0907 13.4428C10.3127 13.479 10.3936 13.4468 10.5984 13.2408C10.9037 12.9337 10.986 12.9325 10.986 13.2347C10.986 13.3838 11.058 13.5461 11.1775 13.6663C11.3492 13.8391 11.434 13.8589 12 13.8589C12.566 13.8589 12.6508 13.8391 12.8225 13.6663C12.942 13.5461 13.014 13.3838 13.014 13.2347C13.014 12.9325 13.0963 12.9337 13.4015 13.2408C13.6064 13.4468 13.6873 13.479 13.9093 13.4428C14.0546 13.4191 14.3679 13.2745 14.6056 13.1215C15.0861 12.8123 15.201 12.5714 15.0545 12.1808C14.9527 11.9096 15.0533 11.7202 15.2135 11.8814C15.3747 12.0436 15.8112 11.9934 16.0142 11.7893C16.2465 11.5555 16.6019 10.8583 16.6019 10.6363C16.6019 10.5443 16.4966 10.3701 16.3679 10.2491C16.0706 9.96969 16.0716 9.85676 16.3714 9.85676C16.5197 9.85676 16.681 9.78433 16.8004 9.66411C16.9672 9.49633 16.9919 9.40083 16.9919 8.92238C16.9919 8.62026 16.9529 8.28714 16.9053 8.1819C16.8151 7.98289 16.5391 7.81645 16.2993 7.81645C16.0501 7.81645 16.0589 7.72456 16.3329 7.46458C16.6549 7.15916 16.6659 6.99664 16.4006 6.46985C16.0387 5.75126 15.7245 5.56693 15.2403 5.78885C14.9968 5.90044 14.8983 5.8215 15.0254 5.61668C15.1405 5.43117 15.1476 5.11155 15.0409 4.91105C14.94 4.7213 14.0302 4.20667 13.7957 4.20667C13.6934 4.20667 13.5091 4.32218 13.3637 4.47733C13.1053 4.75292 13.014 4.76179 13.014 4.51115C13.014 4.26984 12.8485 3.99212 12.6507 3.90141C12.4151 3.79343 11.5514 3.79649 11.3264 3.90612ZM11.766 4.82575C11.766 5.18272 11.5515 5.36423 10.998 5.47559L10.5031 5.57525L10.2932 5.3166C10.0986 5.07663 10.0681 5.06494 9.87174 5.15502C9.62932 5.26614 9.62316 5.2889 9.77955 5.49685C9.97462 5.75637 9.91246 5.9724 9.53276 6.35433C9.15314 6.73634 8.93841 6.79889 8.68047 6.60262C8.59725 6.53922 8.50701 6.48625 8.48002 6.48491C8.423 6.48201 8.22044 6.94791 8.26506 6.97953C8.28159 6.99122 8.39165 7.06146 8.50958 7.13577C8.75075 7.28754 8.76791 7.4266 8.61667 8.00408C8.50435 8.43278 8.33245 8.60119 8.00719 8.60119C7.81579 8.60119 7.7881 8.63093 7.7881 8.83661C7.7881 9.04229 7.81579 9.07203 8.00719 9.07203C8.33245 9.07203 8.50435 9.24043 8.61667 9.66913C8.76549 10.2374 8.74942 10.3471 8.48485 10.5658C8.26295 10.7494 8.25172 10.7815 8.34071 10.9778C8.45116 11.2217 8.47378 11.2279 8.68047 11.0706C8.93724 10.8752 9.14215 10.9382 9.52652 11.3308C9.91831 11.731 9.96877 11.9117 9.7691 12.1986C9.70038 12.2973 9.65647 12.3875 9.6716 12.399C10.0521 12.6893 10.0695 12.6894 10.2618 12.4047C10.4661 12.1023 10.5761 12.0824 11.1725 12.2406C11.5986 12.3536 11.766 12.5265 11.766 12.8537C11.766 13.0463 11.7956 13.0742 12 13.0742C12.2044 13.0742 12.234 13.0463 12.234 12.8537C12.234 12.5265 12.4014 12.3536 12.8275 12.2406C13.4239 12.0824 13.5339 12.1023 13.7382 12.4047C13.9305 12.6894 13.9479 12.6893 14.3284 12.399C14.3435 12.3875 14.2996 12.2973 14.2309 12.1986C14.0287 11.9082 14.0829 11.7179 14.4791 11.3252C14.8697 10.9381 15.0669 10.8784 15.3195 11.0706C15.5262 11.2279 15.5488 11.2217 15.6593 10.9778C15.7483 10.7815 15.7371 10.7494 15.5151 10.5658C15.2506 10.3471 15.2345 10.2374 15.3833 9.66913C15.4956 9.24043 15.6676 9.07203 15.9928 9.07203C16.1842 9.07203 16.2119 9.04229 16.2119 8.83661C16.2119 8.63093 16.1842 8.60119 15.9928 8.60119C15.6676 8.60119 15.4956 8.43278 15.3833 8.00408C15.2321 7.4266 15.2492 7.28754 15.4904 7.13577C15.6084 7.06146 15.7184 6.99122 15.7349 6.97953C15.7796 6.94791 15.577 6.48201 15.52 6.48491C15.493 6.48625 15.4028 6.53922 15.3195 6.60262C15.0616 6.79889 14.8469 6.73634 14.4672 6.35433C14.0875 5.9724 14.0254 5.75637 14.2205 5.49685C14.3768 5.2889 14.3707 5.26614 14.1283 5.15502C13.9319 5.06494 13.9014 5.07663 13.7068 5.3166L13.4969 5.57525L13.002 5.47559C12.4485 5.36423 12.234 5.18272 12.234 4.82575C12.234 4.62619 12.206 4.59904 12 4.59904C11.794 4.59904 11.766 4.62619 11.766 4.82575ZM11.0944 6.38494C10.5704 6.60843 10.1535 6.94343 9.86456 7.373C9.50476 7.90811 9.40165 8.30205 9.43815 9.00219C9.47574 9.72234 9.70272 10.2244 10.2209 10.7336C11.177 11.673 12.823 11.673 13.7791 10.7336C14.3658 10.1571 14.5349 9.73262 14.5349 8.83661C14.5349 8.21274 14.5051 8.03006 14.3517 7.71679C14.1164 7.23606 13.593 6.71092 13.1161 6.47714C12.6135 6.23074 11.5677 6.18303 11.0944 6.38494ZM11.4283 7.08061C10.4005 7.39834 9.85801 8.6857 10.3411 9.66058C10.9083 10.8048 12.4822 11.0457 13.3366 10.119C14.2655 9.1115 13.8333 7.46285 12.539 7.07613C12.0456 6.92868 11.9181 6.92923 11.4283 7.08061ZM5.57568 10.4118L5.37015 10.5744V13.7862C5.37015 16.8932 5.37522 17.003 5.52615 17.1548C5.73635 17.3663 6.15864 17.3621 6.35254 17.1466C6.49216 16.9915 6.50253 16.8035 6.52492 14.0273C6.53802 12.4025 6.52765 10.9582 6.50183 10.8177C6.44629 10.5152 6.18843 10.2491 5.95093 10.2491C5.85756 10.2491 5.6887 10.3223 5.57568 10.4118ZM17.7122 10.4058C17.6202 10.4919 17.524 10.6773 17.4982 10.8177C17.4724 10.9582 17.462 12.4025 17.4751 14.0273C17.4975 16.8035 17.5078 16.9915 17.6475 17.1466C17.8414 17.3621 18.2636 17.3663 18.4739 17.1548C18.6248 17.003 18.6298 16.8932 18.6298 13.7862V10.5744L18.4243 10.4118C18.1655 10.2069 17.9265 10.2049 17.7122 10.4058ZM2.27612 11.4219C1.87061 11.5209 1.35582 11.8673 1.13969 12.1864C0.822545 12.6547 0.746731 13.0368 0.78261 13.985C0.817943 14.9198 0.939464 15.2728 1.36557 15.6788C1.82841 16.1197 2.17815 16.2095 3.44079 16.2114L4.59243 16.2131L4.57176 13.8001L4.55117 11.387L3.53719 11.3743C2.97951 11.3674 2.41199 11.3888 2.27612 11.4219ZM19.4683 11.3925C19.4361 11.4254 19.4098 12.5235 19.4098 13.8328V16.2131L20.5603 16.2114C21.8218 16.2095 22.1717 16.1197 22.6344 15.6788C23.0656 15.268 23.1828 14.9221 23.2171 13.9599C23.2639 12.6439 23.0135 12.068 22.1986 11.6172C21.8096 11.4021 21.7314 11.3891 20.6578 11.3616C20.0358 11.3456 19.5005 11.3596 19.4683 11.3925ZM11.4696 19.5247C11.4181 19.5765 11.376 19.7107 11.376 19.8229C11.376 20.1589 11.5048 20.2153 12.273 20.2153C13.0412 20.2153 13.17 20.1589 13.17 19.8229C13.17 19.7107 13.1279 19.5765 13.0764 19.5247C12.9494 19.3969 11.5966 19.3969 11.4696 19.5247Z" fill="#192D4C"/>
</svg>
