<svg width="102" height="82" viewBox="0 0 102 82" fill="none" xmlns="http://www.w3.org/2000/svg">
<path fill-rule="evenodd" clip-rule="evenodd" d="M82.5142 0.204731C76.9583 1.90582 75.0703 9.03345 79.0899 13.1314C80.7094 14.7821 82.3992 15.5034 84.6744 15.515C88.593 15.535 91.6747 12.9481 92.3966 9.03297C92.6802 7.49304 92.3805 5.5162 91.6417 4.05709C91.0028 2.79508 88.8124 0.893271 87.4296 0.400146C86.2085 -0.0355598 83.6333 -0.137851 82.5142 0.204731ZM82.8728 3.32416C79.4053 4.90413 78.9129 9.48219 81.9774 11.6535C84.4594 13.412 88.0686 12.3288 89.1451 9.50173C90.0533 7.11741 89.0917 4.64575 86.8133 3.50703C85.3319 2.76686 84.2106 2.71475 82.8728 3.32416ZM67.8396 17.832C67.4013 18.2716 67.3585 18.6361 67.3585 21.9333C67.3585 25.2306 67.4013 25.5951 67.8396 26.0347C68.3114 26.5078 68.6414 26.5172 84.6256 26.5172C98.9936 26.5172 100.994 26.4726 101.465 26.1416C101.98 25.7804 102 25.6197 102 21.957C102 18.5734 101.951 18.1034 101.56 17.7488C101.16 17.3855 99.6429 17.3495 84.7204 17.3495C68.6414 17.3495 68.3114 17.3589 67.8396 17.832ZM70.4678 20.3425C70.4115 20.3982 70.4021 21.1049 70.4471 21.9124L70.5287 23.3809H84.8325H99.1361L99.0646 21.873L98.9929 20.3652L84.7815 20.3029C76.965 20.2687 70.5239 20.2865 70.4678 20.3425ZM7.53742 28.8938C2.0489 30.7958 0.497733 38.0554 4.74156 41.9785C6.40603 43.517 7.69138 44.0031 10.1038 44.0057C11.743 44.0077 12.367 43.9003 13.2494 43.4641C14.8639 42.6663 16.1591 41.4574 16.9676 39.9934C17.6258 38.8019 17.6816 38.5117 17.6816 36.288C17.6816 34.0354 17.632 33.7876 16.9349 32.5486C15.0438 29.1879 11.1069 27.6569 7.53742 28.8938ZM82.3689 28.7748C81.0703 29.2016 79.3156 30.4279 78.5342 31.4552C76.2452 34.4648 76.5103 39.1008 79.1205 41.7097C80.8364 43.4248 82.2195 43.9951 84.6792 44.0021C86.4412 44.0074 86.9148 43.9143 88.1018 43.3297C93.8855 40.4815 93.9066 32.0969 88.1374 29.2663C86.5477 28.4863 83.927 28.2631 82.3689 28.7748ZM83.7502 31.6219C80.0048 32.289 78.6499 37.0166 81.4345 39.702C83.4473 41.6431 86.311 41.5399 88.1949 39.4581C89.5762 37.9317 89.8673 36.178 89.0419 34.3558C88.6486 33.4873 87.0928 31.8337 86.6555 31.819C86.561 31.8159 86.1046 31.7283 85.6415 31.6241C85.1784 31.5201 84.3273 31.5191 83.7502 31.6219ZM8.05896 31.9254C5.78561 32.9432 4.69032 35.9259 5.74857 38.218C7.16911 41.295 10.9361 42.0308 13.3471 39.702C15.8119 37.3211 15.2649 33.6094 12.2183 32.0426C11.1692 31.503 9.13093 31.4455 8.05896 31.9254ZM0.398136 47.4651C0.051962 47.8487 0 48.6306 0 53.4591C0 58.5322 0.0380082 59.0463 0.439994 59.4111C0.841739 59.7758 2.5945 59.8103 20.6976 59.8103H40.5152L39.5257 60.8357C35.4659 65.0427 34.8378 71.5298 38.0193 76.3915C40.378 79.9957 44.114 82 48.4741 82C52.0123 82 54.7685 80.8651 57.2489 78.387C59.7636 75.8745 60.8553 73.1657 60.8603 69.4256C60.8649 66.0292 59.753 63.2509 57.4224 60.8357L56.4329 59.8103H76.2924C95.2264 59.8103 96.1704 59.7898 96.55 59.3691C96.8961 58.9855 96.9481 58.2036 96.9481 53.3751C96.9481 48.302 96.9101 47.7879 96.5081 47.4231C96.1021 47.0545 92.4204 47.0238 48.4322 47.0238C2.58873 47.0238 0.781358 47.0405 0.398136 47.4651ZM2.94044 53.3568L3.00708 56.7947H48.4741H93.941L94.0077 53.3568L94.0746 49.9189H48.4741H2.87356L2.94044 53.3568ZM45.7764 60.3877C43.5429 61.1182 41.0526 63.1824 40.0425 65.1404C38.0814 68.9421 38.9423 73.6854 42.1125 76.5438C45.1415 79.275 49.0555 79.8125 52.6782 77.9952C58.358 75.1455 59.7049 67.8381 55.4081 63.1838C53.4891 61.1052 51.5937 60.2195 48.8655 60.1269C47.57 60.0827 46.409 60.1809 45.7764 60.3877Z" fill="#17876E"/>
</svg>
