<svg width="27" height="27" viewBox="0 0 27 27" fill="none" xmlns="http://www.w3.org/2000/svg">
<path fill-rule="evenodd" clip-rule="evenodd" d="M13.0099 0.115815C12.7743 0.199206 12.4786 0.360385 12.3529 0.47404C11.5049 1.24037 11.68 2.64995 12.6851 3.14604L13.1408 3.37111L13.1773 4.37988C13.2131 5.3715 13.2186 5.38865 13.4944 5.38865C13.7702 5.38865 13.7757 5.3715 13.8115 4.37988L13.848 3.37111L14.3037 3.14604C15.3307 2.63908 15.4832 1.24519 14.5995 0.441759C14.3641 0.227788 14.1764 0.145293 13.6066 0.00552284C13.514 -0.0172305 13.2455 0.0324233 13.0099 0.115815ZM12.7597 1.01227C12.3928 1.37857 12.3899 1.96018 12.7529 2.38162C13.3435 3.06725 14.5046 2.61543 14.5046 1.69992C14.5046 0.834058 13.3815 0.391321 12.7597 1.01227ZM4.57068 3.59427C3.01717 4.14764 3.11774 6.31795 4.71918 6.797C5.11048 6.91402 5.25685 6.90886 5.62468 6.7645L6.06357 6.59244L6.72022 7.25543C7.40168 7.94352 7.79466 8.07298 7.85785 7.63035C7.87918 7.48061 7.6686 7.18762 7.22377 6.74835L6.55758 6.09053L6.72381 5.69341C7.24577 4.44601 5.89015 3.12441 4.57068 3.59427ZM21.2956 3.59427C20.4198 3.90621 19.9399 4.8568 20.2545 5.65653L20.4268 6.09478L19.7628 6.75048C19.3196 7.18818 19.1096 7.48072 19.1309 7.63035C19.194 8.07231 19.587 7.94363 20.2653 7.25868L20.9187 6.59906L21.4075 6.77458C21.8665 6.93935 21.9295 6.93643 22.4351 6.72717C23.4265 6.31694 23.8098 5.37632 23.3565 4.46675C22.9462 3.64359 22.1287 3.29758 21.2956 3.59427ZM4.79517 4.20323C4.09868 4.49533 3.91347 5.3437 4.43295 5.86243C5.06457 6.49325 6.13092 6.05488 6.13092 5.16448C6.13092 4.50205 5.37673 3.95922 4.79517 4.20323ZM21.5201 4.20323C20.4877 4.63622 20.75 6.16204 21.8568 6.16204C22.7265 6.16204 23.1902 5.09476 22.5808 4.49578C22.2636 4.18395 21.8427 4.06795 21.5201 4.20323ZM11.9229 6.29105C11.5216 6.3769 10.7298 6.67584 10.1633 6.95538C7.71979 8.16142 6.08995 10.786 6.08995 13.5148C6.08995 16.2506 7.70879 18.8636 10.1489 20.0665C11.4912 20.7282 12.548 20.9557 13.8872 20.8713C15.0582 20.7975 15.8359 20.5878 16.8735 20.066L17.6151 19.693L18.0171 20.1066C18.383 20.4831 18.4046 20.5397 18.2578 20.7377C18.1692 20.8574 18.0965 21.0316 18.0965 21.125C18.0965 21.3924 23.7185 26.9651 23.9883 26.9651C24.2959 26.9651 26.9641 24.2977 26.9641 23.9902C26.9641 23.7239 21.3804 18.1103 21.1155 18.1103C21.022 18.1103 20.8476 18.1829 20.7277 18.2714C20.5294 18.418 20.4727 18.3964 20.0957 18.031L19.6815 17.6296L20.055 16.8891C20.5775 15.8529 20.7876 15.0764 20.8615 13.9071C20.946 12.5698 20.7182 11.5146 20.0555 10.1742C18.5917 7.21328 15.1948 5.59141 11.9229 6.29105ZM12.054 6.96154C9.07495 7.60726 6.76344 10.4705 6.76344 13.5148C6.76344 16.5868 9.08225 19.4333 12.1058 20.073C14.3608 20.55 16.5463 19.8888 18.2119 18.2256C20.8916 15.5496 20.8916 11.48 18.2119 8.80411C16.5437 7.1383 14.3151 6.4715 12.054 6.96154ZM9.25702 10.0437L9.00446 10.1451V13.5141V16.883L9.29238 16.9923C9.45952 17.0557 11.2229 17.1016 13.4944 17.1016C15.7658 17.1016 17.5292 17.0557 17.6964 16.9923L17.9843 16.883V14.1993C17.9843 12.7233 17.9536 11.4359 17.9161 11.3384C17.8569 11.1842 17.5301 11.161 15.4164 11.161H12.9849L12.5466 10.6086C12.3056 10.3047 12.0035 10.028 11.8753 9.99367C11.5051 9.89437 9.53517 9.93203 9.25702 10.0437ZM9.67795 13.5148V16.317H13.4944H17.3108V14.0753V11.8336H15.0159H12.7211L12.2378 11.2731L11.7545 10.7128L10.7162 10.7127H9.67795V13.5148ZM0.804993 12.0861C0.0323917 12.606 -0.224431 13.5726 0.211876 14.3186C0.892546 15.4824 2.53529 15.4848 3.11056 14.323L3.33595 13.8679L4.34618 13.8315C5.33924 13.7957 5.35641 13.7902 5.35641 13.5148C5.35641 13.2394 5.33924 13.234 4.34618 13.1982L3.33595 13.1618L3.11056 12.7067C2.69625 11.8698 1.57501 11.5679 0.804993 12.0861ZM24.4938 12.0426C24.2595 12.168 24.0133 12.4335 23.8782 12.7067L23.6528 13.1618L22.6426 13.1982C21.6495 13.234 21.6323 13.2394 21.6323 13.5148C21.6323 13.7902 21.6495 13.7957 22.6426 13.8315L23.6528 13.8679L23.8782 14.323C24.4535 15.4848 26.0962 15.4824 26.7769 14.3186C27.6068 12.8996 25.9597 11.2575 24.4938 12.0426ZM0.973701 12.7812C0.351849 13.4021 0.795227 14.5236 1.66234 14.5236C2.57918 14.5236 3.03165 13.3642 2.34503 12.7744C1.92298 12.4119 1.34053 12.4148 0.973701 12.7812ZM24.6437 12.7744C23.9571 13.3642 24.4096 14.5236 25.3264 14.5236C26.1935 14.5236 26.6369 13.4021 26.015 12.7812C25.6482 12.4148 25.0658 12.4119 24.6437 12.7744ZM18.681 18.76L18.1992 19.2667L18.5638 19.6423L18.9284 20.018L19.4661 19.4892L20.0036 18.9605L19.6454 18.5914C19.4484 18.3885 19.2592 18.2294 19.2251 18.2379C19.1908 18.2463 18.946 18.4813 18.681 18.76ZM19.9757 19.9887L18.8834 21.0835L21.4379 23.6326L23.9926 26.1817L25.085 25.0868L26.1772 23.9919L23.6227 21.4429L21.0681 18.8937L19.9757 19.9887ZM6.72022 19.7742L6.06357 20.4372L5.62468 20.2652C4.44373 19.8019 3.16646 21.04 3.51723 22.3083C3.97128 23.9504 6.27146 23.9285 6.76681 22.2773C6.88399 21.8866 6.87883 21.7404 6.73425 21.3731L6.56195 20.9349L7.2259 20.2792C7.66916 19.8415 7.87918 19.549 7.85785 19.3993C7.79466 18.9567 7.40168 19.0862 6.72022 19.7742ZM4.79517 20.904C4.09868 21.196 3.91347 22.0444 4.43295 22.5632C5.06457 23.194 6.13092 22.7556 6.13092 21.8652C6.13092 21.2028 5.37673 20.6599 4.79517 20.904ZM13.2372 21.6549C13.1934 21.6986 13.1553 22.1674 13.1524 22.6965L13.1472 23.6586L12.6882 23.8836C12.1412 24.1517 11.8104 24.7002 11.8111 25.338C11.8121 26.3989 12.8891 27.2228 13.9132 26.9459C15.3866 26.5475 15.6421 24.5444 14.3037 23.8836L13.848 23.6586L13.8115 22.6498C13.7784 21.7338 13.7539 21.638 13.5459 21.6083C13.4198 21.5903 13.281 21.6113 13.2372 21.6549ZM13.0855 24.382C12.4632 24.6437 12.2841 25.5426 12.7597 26.0174C13.3815 26.6384 14.5046 26.1956 14.5046 25.3298C14.5046 24.6366 13.7222 24.1141 13.0855 24.382Z" fill="black"/>
</svg>
