<svg width="94" height="89" viewBox="0 0 94 89" fill="none" xmlns="http://www.w3.org/2000/svg">
<path fill-rule="evenodd" clip-rule="evenodd" d="M62.6558 0.479574C62.2175 0.742277 61.7111 1.21014 61.5304 1.51928C60.998 2.4306 59.5207 7.33426 59.532 8.15293C59.5523 9.62121 60.5033 10.7266 62.2418 11.3028L63.4576 11.7058L62.4925 14.6792L61.5276 17.6527L58.2065 17.6529C53.1776 17.6529 52.191 17.9124 52.1989 19.2329C52.2057 20.3539 52.8478 20.6496 54.7892 20.426C66.4732 19.0795 78.6573 24.6816 85.4485 34.5227C89.3974 40.245 91.3086 46.3604 91.3086 53.273C91.3086 56.5163 91.0839 58.3632 90.3188 61.4063C87.2127 73.7593 77.1748 83.1912 64.443 85.7202C61.3692 86.3308 56.8114 86.4621 53.7898 86.0272C43.5391 84.5518 35.0399 78.9975 29.7808 70.3368C21.6466 56.9417 24.1679 39.5799 35.7842 28.998C38.9294 26.1328 42.674 23.8248 46.4916 22.3982C48.4033 21.6837 48.9418 21.1881 48.728 20.3399C48.6595 20.0676 48.3706 19.693 48.0861 19.5073C47.5922 19.1851 47.5055 19.1912 46.175 19.6422C45.4085 19.9022 43.7947 20.5887 42.589 21.1679L40.3965 22.2209H34.84C29.5493 22.2209 29.2646 22.2399 28.8853 22.6177C28.3119 23.1887 28.3694 24.0844 29.0118 24.5874C29.4959 24.9667 29.799 24.9987 32.9073 24.9987H36.2777L35.1218 25.9703C30.9603 29.468 27.5356 34.009 25.3799 38.8878L24.5471 40.7728L19.5273 40.872C14.8517 40.9645 14.4882 40.9976 14.2251 41.3563C13.8332 41.8907 13.872 42.7312 14.3069 43.123C14.6235 43.4084 15.2663 43.4514 19.2096 43.4514C23.4507 43.4514 23.7388 43.4742 23.6117 43.7986C23.3234 44.535 22.7026 47.8582 22.486 49.8249C22.2708 51.7793 22.3443 56.0381 22.6354 58.4814L22.7595 59.5231H15.377H7.99433L7.58151 60.046C7.06489 60.6999 7.06489 60.9257 7.58151 61.5797L7.99433 62.1025L15.7004 62.1063L23.4063 62.1101L24.0741 64.2393C25.5696 69.0064 27.862 72.927 31.9904 77.7774C32.2147 78.0409 31.5285 78.0751 25.989 78.0751C19.1844 78.0751 19.3 78.0562 19.0171 79.206C18.9145 79.6227 18.998 79.8539 19.3934 80.2477L19.9015 80.7537H27.5538H35.206L35.9805 81.3765C37.5391 82.6297 40.3954 84.3932 42.533 85.4218C56.2956 92.0444 72.6428 89.3108 83.4767 78.5751C88.7927 73.3071 92.1566 66.8731 93.5562 59.2957C93.9981 56.9022 94.1394 52.0629 93.8455 49.3735C92.7774 39.5978 87.4743 30.4325 79.4913 24.5653C78.6695 23.9614 77.7175 23.3084 77.3758 23.1143L76.7548 22.7615L77.7626 19.7371L78.7703 16.7126L79.8593 17.0856C81.657 17.7017 82.6634 17.5313 83.8267 16.4138C84.7022 15.5729 86.573 10.0653 86.3642 8.94362C86.1783 7.944 85.5391 6.98942 84.8016 6.60945C83.793 6.09 77.863 4.16496 77.271 4.16496C76.2173 4.16496 75.6261 5.28561 76.2448 6.11083C76.5426 6.50806 77.3649 6.86521 79.9872 7.73566C81.8357 8.34936 83.4354 8.98945 83.5422 9.15811C83.8317 9.61486 82.1079 14.558 81.6283 14.6467C81.0773 14.7485 62.3544 8.55611 62.2291 8.23031C62.0936 7.87872 63.6819 3.08081 64.0286 2.7941C64.2135 2.64132 65.2513 2.9072 67.8462 3.7715C69.806 4.42449 71.5526 4.95862 71.7271 4.95862C72.7015 4.95862 73.2807 3.36415 72.5465 2.70263C72.0048 2.21433 65.2053 -0.00218097 64.2559 1.61076e-06C63.7638 0.00119211 63.1442 0.18691 62.6558 0.479574ZM65.1045 15.2914L64.1975 18.016L66.1164 18.4569C68.4307 18.9884 71.5743 20.0569 73.1421 20.8452C73.7738 21.1627 74.3279 21.3566 74.3737 21.276C74.7351 20.6389 76.1119 16.0003 75.9772 15.8735C75.8828 15.7848 73.6019 15.0044 70.9084 14.1394L66.0114 12.5667L65.1045 15.2914ZM6.57079 24.205C6.34943 24.4255 6.17231 24.8663 6.17231 25.1971C6.17231 25.5279 6.34943 25.9687 6.57079 26.1892C6.95451 26.5713 7.23484 26.586 14.1197 26.586C20.772 26.586 21.3017 26.5604 21.7239 26.2201C22.284 25.7685 22.3288 24.7733 21.8148 24.2076C21.4637 23.8213 21.2143 23.8082 14.2105 23.8082C7.23484 23.8082 6.95471 23.8227 6.57079 24.205ZM53.7898 25.4892C44.9674 26.9461 37.2329 32.4943 33.2021 40.2573C30.9529 44.5887 30.0167 48.4124 30.0145 53.273C30.0131 56.6616 30.3461 58.882 31.3 61.8482C34.5476 71.9444 43.1912 79.3618 53.6842 81.0567C56.0888 81.4452 60.6039 81.4319 62.9694 81.0295C71.7753 79.5312 79.5105 73.7907 83.447 65.832C85.5479 61.5847 86.3325 58.1699 86.3325 53.273C86.3325 49.6112 86.0022 47.4745 84.9492 44.3236C82.7345 37.6971 77.5559 31.6377 71.3422 28.4013C69.2739 27.3243 66.1762 26.2195 63.7516 25.6943C61.6571 25.2406 56.0005 25.1241 53.7898 25.4892ZM56.081 27.9315C51.4857 28.2537 46.6862 30.1008 42.6728 33.0917L41.2188 34.1752L42.623 35.6175C43.3953 36.4108 44.0272 37.1545 44.0272 37.2699C44.0272 38.1204 42.9956 39.0009 42.2863 38.7559C42.0932 38.6892 41.3433 38.0598 40.6197 37.357L39.3043 36.0794L38.305 37.3348C35.1586 41.2873 33.4159 45.5038 32.7632 50.7432L32.6333 51.7849H34.6135C36.8336 51.7849 37.2532 51.9954 37.2532 53.1091C37.2532 54.1383 36.7748 54.3643 34.5976 54.3643C32.3506 54.3643 32.4994 54.1099 32.961 57.1588C33.6193 61.5087 35.6964 66.1383 38.5166 69.5432L39.0097 70.1384L40.4033 68.7991C41.9175 67.3437 42.5152 67.1445 43.2303 67.8566C43.9607 68.584 43.7517 69.2106 42.2839 70.6938L40.9391 72.0527L41.736 72.7539C45.2561 75.8514 50.5265 78.0695 55.7125 78.6362L56.5393 78.7265L56.6805 76.7611C56.8089 74.9752 56.868 74.7597 57.3295 74.3982C57.8736 73.972 58.4077 74.0226 59.0198 74.5577C59.3077 74.8095 59.3684 75.2046 59.3684 76.8229V78.7832L60.4144 78.6638C64.0019 78.2542 67.0335 77.361 70.0107 75.8355C71.6492 74.996 74.6949 72.9256 74.9896 72.4506C75.0589 72.3388 71.9947 69.1021 68.1803 65.2578L61.2449 58.2681L60.3565 58.5987C59.8679 58.7807 59.0272 58.9553 58.488 58.9868L57.5082 59.0442L56.7718 61.0027C56.0153 63.0151 55.6469 63.4915 54.8476 63.4915C54.2604 63.4915 53.5902 62.8293 53.592 62.2514C53.5928 62.0057 53.9112 60.966 54.2995 59.9406L55.0058 58.0765L54.3108 57.506C53.4485 56.7983 52.6227 55.1568 52.4661 53.8397C52.3123 52.5462 52.7791 50.9363 53.6352 49.8081C53.9942 49.335 54.368 48.8418 54.4656 48.712C54.58 48.5606 53.8859 46.4485 52.5231 42.8004C51.3569 39.6787 50.4028 36.941 50.4028 36.7166C50.4028 35.7215 51.9824 35.1183 52.6408 35.862C52.81 36.0531 53.7129 38.2628 54.6471 40.7728C55.5814 43.2828 56.5311 45.8282 56.7576 46.4294L57.1697 47.5227L58.3189 47.5396C58.9997 47.5497 59.8335 47.7178 60.3646 47.9519L61.2612 48.3471L68.2907 41.5034C72.1566 37.7392 75.2874 34.5618 75.2478 34.4423C75.0874 33.9596 71.5597 31.5224 69.6618 30.5833C66.6334 29.0847 62.7092 27.9749 60.4381 27.9749H59.7669V29.6746C59.7669 30.6093 59.6715 31.5518 59.5547 31.769C59.0742 32.6633 57.6317 32.5605 57.1926 31.6008C57.0581 31.3069 56.9722 30.4012 56.9955 29.5236C57.0182 28.6678 57.0011 27.9469 56.9573 27.9218C56.9137 27.8964 56.5194 27.9009 56.081 27.9315ZM0.792928 34.0766C-0.0837122 34.5127 -0.264021 35.4173 0.405613 36.0209C0.815641 36.3906 1.23583 36.41 9.94446 36.463C18.9984 36.5179 19.0577 36.5156 19.5975 36.0927C20.3944 35.4685 20.2685 34.5475 19.3219 34.0766C18.6905 33.7623 17.8151 33.7296 10.0574 33.7296C2.29975 33.7296 1.42431 33.7623 0.792928 34.0766ZM70.1862 43.4123L63.1721 50.2968L63.5118 50.892C63.9995 51.7472 63.9877 54.8066 63.4932 55.7104L63.1366 56.362L70.0688 63.3617C77.948 71.3178 76.9845 70.7487 78.6916 68.4556C80.7224 65.7274 82.1326 62.7105 83.0268 59.1807C83.5273 57.2056 83.5675 56.7485 83.5569 53.1738C83.5462 49.4948 83.5151 49.1898 82.925 46.966C82.0204 43.5576 80.2307 40.0075 78.0271 37.2509C77.7 36.8418 77.38 36.5116 77.3163 36.5173C77.2523 36.5231 74.0438 39.6259 70.1862 43.4123ZM1.03659 50.5065C0.72718 50.7222 0.593692 51.0178 0.593692 51.4873C0.593692 52.7611 0.685142 52.777 8.00987 52.777C14.2747 52.777 14.5564 52.7609 14.9387 52.3801C15.4609 51.8601 15.445 51.1067 14.9011 50.6021C14.4809 50.212 14.231 50.1976 7.97221 50.1976C2.4181 50.1976 1.41534 50.2422 1.03659 50.5065ZM56.8218 50.5162C55.8716 50.999 55.3245 51.8754 55.2359 53.0563C54.9956 56.2556 58.8702 57.5245 60.8432 54.8927C61.1331 54.506 61.247 54.0494 61.247 53.273C61.247 52.1149 60.9063 51.4619 59.9189 50.7277C59.2063 50.198 57.6568 50.0922 56.8218 50.5162ZM8.3165 69.0616C7.41475 69.5848 7.51258 70.762 8.49481 71.2079C8.80901 71.3503 10.7255 71.4281 13.925 71.4281C18.6258 71.4281 18.8956 71.4079 19.3946 71.0168C20.0651 70.4918 20.1047 69.5955 19.4767 69.1576C19.103 68.8969 18.2261 68.8497 13.8483 68.8547C10.7213 68.8584 8.5253 68.9406 8.3165 69.0616Z" fill="#17876E"/>
</svg>
