<svg width="24" height="22" viewBox="0 0 24 22" fill="none" xmlns="http://www.w3.org/2000/svg">
<path fill-rule="evenodd" clip-rule="evenodd" d="M6.38382 0.0421018C5.85844 0.148453 5.37499 0.493889 5.12614 0.940777L4.97064 1.22008L4.95623 2.64613L4.94182 4.07213L3.00502 4.08562L1.06822 4.09907L0.824519 4.20598C0.488611 4.35333 0.160558 4.67745 0.0666993 4.95478C0.000708377 5.14978 -0.00709651 5.97858 0.00441063 11.578L0.0175688 17.9784L0.134391 18.1718C0.307549 18.4583 0.577916 18.6764 0.880454 18.7736C1.13741 18.8562 1.2733 18.8593 4.64734 18.8593C7.41526 18.8593 8.14721 18.8705 8.14561 18.913C8.14456 18.9426 7.97966 19.4791 7.77923 20.1054L7.41486 21.2441L6.56113 21.2558C5.7155 21.2675 5.7062 21.2687 5.57667 21.3799C5.36448 21.5621 5.41231 21.8235 5.68028 21.9461C5.83743 22.018 18.1626 22.018 18.3197 21.9461C18.5877 21.8235 18.6355 21.5621 18.4233 21.3799C18.2938 21.2687 18.2845 21.2675 17.4389 21.2558L16.5851 21.2441L16.2208 20.1054C16.0203 19.4791 15.8554 18.9426 15.8544 18.913C15.8528 18.8705 16.5847 18.8593 19.3527 18.8593C22.7267 18.8593 22.8626 18.8562 23.1195 18.7736C23.4221 18.6764 23.6925 18.4583 23.8656 18.1718L23.9824 17.9784L23.9956 11.578C24.0071 5.97858 23.9993 5.14978 23.9333 4.95478C23.8394 4.67745 23.5114 4.35333 23.1755 4.20598L22.9318 4.09907L20.9961 4.08562C19.3776 4.07437 19.0579 4.06221 19.0449 4.01137C19.0253 3.9348 15.0098 0.0880368 14.8938 0.0347539C14.7833 -0.0160796 6.63642 -0.00903253 6.38382 0.0421018ZM6.52586 0.779296C6.27235 0.836833 5.92098 1.13642 5.85024 1.35539C5.81331 1.46957 5.7966 3.5885 5.79645 8.19197L5.79615 14.8631H12H18.2038V9.57775V4.29244H16.8304C16.0527 4.29244 15.3499 4.27272 15.21 4.24693C14.8915 4.18828 14.5754 3.95805 14.4202 3.67178C14.3043 3.45805 14.3024 3.43235 14.3019 2.09023L14.3014 0.725927L10.5116 0.730353C8.07617 0.733232 6.65173 0.750721 6.52586 0.779296ZM15.1622 2.36807C15.1746 3.22158 15.1896 3.39802 15.2549 3.45401C15.3212 3.51086 15.4843 3.51906 16.3514 3.50914L17.37 3.49749L16.356 2.50918C15.7983 1.96561 15.2982 1.4822 15.2447 1.43493C15.1484 1.34977 15.1476 1.3581 15.1622 2.36807ZM1.07998 4.94795C1.00388 5.00101 0.919478 5.11196 0.892361 5.19451C0.861342 5.28896 0.843081 7.10981 0.843081 10.1038V14.8631H2.89435H4.94562V9.85706V4.85105L3.08197 4.85126C1.22512 4.85148 1.21781 4.85182 1.07998 4.94795ZM19.0544 9.85706V14.8631H21.1056H23.1569L23.1566 10.1041C23.1565 6.97304 23.1388 5.29072 23.1048 5.18591C23.075 5.09362 22.993 4.98971 22.9098 4.93884C22.7714 4.85423 22.6991 4.85105 20.9103 4.85105H19.0544V9.85706ZM9.84867 5.49904C8.24422 5.94782 7.85128 6.07269 7.75987 6.16284L7.6473 6.27387V8.69687V11.1199L7.75987 11.2285C7.85003 11.3155 8.27544 11.4486 9.89565 11.8969C11.0084 12.2048 11.9586 12.4567 12.0072 12.4567C12.0557 12.4567 13.0026 12.2047 14.1115 11.8967C15.7193 11.45 16.1504 11.3146 16.2401 11.2282L16.3527 11.1199V8.69687V6.27387L16.2401 6.16314C16.1485 6.07299 15.7531 5.94876 14.1124 5.4947C13.004 5.18793 12.0359 4.93909 11.961 4.94163C11.8861 4.94421 10.9356 5.19502 9.84867 5.49904ZM10.6777 6.05292L9.48044 6.3883L10.7402 6.73838L12 7.08846L13.2596 6.73842L14.5191 6.38843L13.2971 6.04957C12.625 5.86317 12.03 5.71221 11.975 5.7141C11.92 5.71595 11.3362 5.86841 10.6777 6.05292ZM8.49783 8.818V10.7223L9.93622 11.123C10.7274 11.3434 11.4028 11.5327 11.4372 11.5436C11.4866 11.5594 11.4997 11.1624 11.4997 9.64805V7.73258L10.0347 7.32307C9.22903 7.09787 8.55361 6.91361 8.5338 6.91361C8.51404 6.91361 8.49783 7.77056 8.49783 8.818ZM13.8897 7.33639L12.4023 7.75153L12.4013 9.66971L12.4002 11.5878L13.6885 11.2276C14.3971 11.0295 15.0951 10.8347 15.2395 10.7948L15.5022 10.7223V8.81791C15.5022 7.3211 15.4888 6.91443 15.4396 6.91744C15.4053 6.91954 14.7078 7.10805 13.8897 7.33639ZM0.852537 16.7C0.869797 17.9265 0.885207 17.9871 1.20405 18.0826C1.42159 18.1477 22.5784 18.1477 22.7959 18.0826C23.1148 17.9871 23.1302 17.9265 23.1475 16.7L23.1631 15.5936H12H0.836927L0.852537 16.7ZM8.69325 20.0517L8.31772 21.2441L10.1589 21.2554C11.1715 21.2616 12.8285 21.2616 13.8411 21.2554L15.6823 21.2441L15.3068 20.0517L14.9312 18.8593H12H9.06883L8.69325 20.0517Z" fill="black"/>
</svg>
