<svg width="22" height="24" viewBox="0 0 22 24" fill="none" xmlns="http://www.w3.org/2000/svg">
<path fill-rule="evenodd" clip-rule="evenodd" d="M8.82993 2.14434C7.45119 3.32247 6.29312 4.35496 6.25653 4.43881C6.1585 4.66293 6.2611 4.77757 7.59524 5.93435L8.79252 6.97245L6.0488 7.01141L3.30509 7.05037L2.98407 7.28549C2.78375 7.43215 2.58433 7.67739 2.4539 7.93729L2.2449 8.35398V13.7247C2.2449 19.6459 2.22619 19.3997 2.7164 19.9377C3.12812 20.3896 3.43784 20.4895 4.43367 20.4915C4.9173 20.4924 5.31292 20.5044 5.31292 20.5182C5.31292 20.5319 5.17875 21.2367 5.01488 22.0843C4.80528 23.1679 4.73801 23.6668 4.78829 23.7646C4.85497 23.8943 5.02199 24 5.16042 24C5.19327 24 6.27644 23.211 7.56755 22.2467L9.91497 20.4933L14.1803 20.4915C18.9413 20.4895 18.7633 20.5088 19.2836 19.9377C19.7738 19.3997 19.7551 19.6459 19.7551 13.7247V8.35398L19.5461 7.93729C19.2359 7.31892 18.8436 7.06058 18.1603 7.02458L17.6224 6.99629L17.2728 6.23718C16.2826 4.08781 14.4839 2.85201 12.0906 2.67683L11.4021 2.62641L11.6102 1.64333C11.8628 0.450542 11.8742 0.187608 11.6784 0.078429C11.5988 0.0340872 11.4893 -0.00121483 11.4352 3.20407e-05C11.381 0.00127891 10.2087 0.9662 8.82993 2.14434ZM9.03818 2.98169C8.06562 3.80501 7.26935 4.51378 7.2686 4.55664C7.26726 4.6348 10.7928 7.71605 10.8358 7.67436C10.8484 7.66212 10.7869 7.33365 10.6991 6.94439C10.6113 6.55513 10.561 6.16627 10.5872 6.08023C10.6601 5.84091 11.1551 5.73072 12.1599 5.7301C13.1861 5.72939 13.7189 5.84925 14.5852 6.27529C15.3086 6.63111 15.9726 7.12994 16.6192 7.80333C17.1853 8.39286 17.1802 8.39676 16.9492 7.55692C16.3914 5.52951 15.0779 4.16224 13.2031 3.65764C12.8214 3.55486 12.2759 3.4855 11.6775 3.4636C10.4418 3.4184 10.465 3.44412 10.6828 2.35973C10.7745 1.90314 10.8399 1.51942 10.828 1.50711C10.8161 1.49472 10.0107 2.15828 9.03818 2.98169ZM11.5946 6.52848L11.4034 6.5828L11.6461 7.71277C11.8643 8.72928 11.8777 8.86036 11.7794 9.01809C11.5927 9.31734 11.3791 9.22608 10.551 8.49339L9.76531 7.79826L6.67745 7.79444L3.58967 7.7907L3.3101 8.05746L3.03061 8.32421L3.01041 13.6302C2.98803 19.497 2.9688 19.2464 3.46455 19.5611C3.67437 19.6944 3.84543 19.7133 4.84352 19.7136C6.35321 19.714 6.29118 19.622 5.94239 21.342C5.79992 22.0446 5.69261 22.6279 5.70391 22.6383C5.71521 22.6487 6.60838 21.995 7.68863 21.1855L9.65284 19.7139L13.9743 19.7136C18.1285 19.7133 18.3052 19.7074 18.5354 19.5611C19.0312 19.2464 19.012 19.497 18.9896 13.6302L18.9694 8.32421L18.6899 8.05746C18.4659 7.84377 18.3489 7.7907 18.1012 7.7907C17.817 7.7907 17.7958 7.80481 17.8377 7.96604C17.8627 8.06252 17.9233 8.53485 17.9722 9.01583C18.055 9.8298 18.0517 9.90118 17.9237 10.0484C17.6653 10.3458 17.478 10.2552 17.0881 9.64449C16.6468 8.95325 15.9181 8.13967 15.3108 7.66025C14.7979 7.25541 13.8414 6.76624 13.2938 6.62878C12.84 6.51492 11.8485 6.4564 11.5946 6.52848ZM0.117558 6.66626C0.0143673 6.7738 0 7.1954 0 10.1185C0 12.6045 0.0227484 13.4721 0.089796 13.5419C0.205558 13.6624 0.542741 13.6624 0.658503 13.5419C0.725551 13.4721 0.748299 12.6045 0.748299 10.1185C0.748299 7.1954 0.733932 6.7738 0.630742 6.66626C0.566014 6.59893 0.450551 6.54383 0.37415 6.54383C0.297748 6.54383 0.182286 6.59893 0.117558 6.66626ZM5.77687 10.2221C5.66111 10.3427 5.66111 10.6938 5.77687 10.8144C5.90677 10.9496 16.0932 10.9496 16.2231 10.8144C16.3389 10.6938 16.3389 10.3427 16.2231 10.2221C16.0932 10.0868 5.90677 10.0868 5.77687 10.2221ZM21.408 12.9925C21.249 13.1283 21.2485 13.1414 21.2688 16.4769L21.2891 19.8249L21.4898 19.9421C21.6731 20.0493 21.7037 20.0468 21.8453 19.9135C21.9971 19.7704 22 19.7054 22 16.4332V13.0987L21.8337 12.9774C21.625 12.8252 21.6029 12.8259 21.408 12.9925ZM5.81803 13.4078C5.66762 13.4991 5.64225 13.8693 5.77687 14.0095C5.90677 14.1447 16.0932 14.1447 16.2231 14.0095C16.3654 13.8613 16.3322 13.4958 16.1682 13.4043C15.9701 13.2939 6.00031 13.2973 5.81803 13.4078ZM7.72245 16.6902C7.59022 16.8279 7.6132 17.0997 7.76952 17.247C7.89224 17.3627 8.22725 17.376 11.013 17.376C13.9276 17.376 14.1273 17.3672 14.2435 17.2335C14.389 17.0661 14.4042 16.8222 14.2776 16.6902C14.1484 16.5557 7.8516 16.5557 7.72245 16.6902Z" fill="black"/>
</svg>
