<svg width="57" height="57" viewBox="0 0 57 57" fill="none" xmlns="http://www.w3.org/2000/svg">
<circle cx="28.5" cy="28.5" r="28.5" fill="#192D4C"/>
<path fill-rule="evenodd" clip-rule="evenodd" d="M26.6998 15.0391C20.2497 15.4294 14.4462 19.0092 11.9378 24.1451C9.29953 29.5469 10.4703 35.6367 14.9835 39.9866C15.7296 40.7056 15.9493 40.9645 15.9493 41.1243C15.9493 41.8794 15.4241 43.4144 14.9102 44.161L14.6505 44.5383L15.0802 44.4801C16.2953 44.3156 17.5654 43.8169 18.438 43.1614C18.6731 42.9848 18.9017 42.8565 18.946 42.8762C18.9903 42.896 19.4358 43.097 19.9361 43.323C22.4616 44.464 25.0448 45 28.0186 45C33.1511 45 37.6515 43.2627 41.086 39.9558C43.1609 37.958 44.526 35.5735 45.1741 32.8147C45.3868 31.9091 45.3994 31.7536 45.3994 30.0181C45.3994 28.2797 45.3871 28.1284 45.1732 27.2227C44.5698 24.6667 43.3953 22.4868 41.6066 20.6026C37.9092 16.7079 32.4978 14.6884 26.6998 15.0391ZM7.67305 19.0676L7.47682 19.2637V22.3525V25.4412L7.91811 24.993C8.16078 24.7464 8.50247 24.45 8.67744 24.3343L8.99548 24.1239V21.7435V19.3631L8.78854 19.1173C8.61445 18.9106 8.52501 18.8715 8.22544 18.8715C7.95376 18.8715 7.8226 18.9181 7.67305 19.0676ZM47.3545 18.9739C47.0619 19.1985 47.0417 19.3789 47.0417 21.7749V24.1295L47.296 24.2904C47.4359 24.3789 47.7776 24.6768 48.0553 24.9524L48.5604 25.4535V22.4382C48.5604 18.8485 48.5645 18.8672 47.7745 18.874C47.6133 18.8754 47.4243 18.9204 47.3545 18.9739ZM18.8268 21.7332C18.1245 21.9167 17.6647 22.202 17.1016 22.8039C15.7592 24.2389 14.7286 26.3032 14.4001 28.215C14.2326 29.1898 14.2326 30.8463 14.4001 31.8211C14.6429 33.2339 15.2177 34.6283 16.0964 35.9358C16.9886 37.2635 17.658 37.8855 18.5683 38.2327L19.0266 38.4075L27.7279 38.4301C33.4815 38.445 36.5809 38.4246 36.8768 38.3699C37.123 38.3244 37.5566 38.1786 37.8405 38.0458C39.0472 37.4813 40.5484 35.3659 41.2693 33.2142C41.6635 32.0374 41.7962 31.0276 41.7411 29.6253C41.6554 27.4453 41.1505 25.9055 39.9164 24.0603C38.9604 22.6312 38.0669 21.9044 36.9867 21.6773C36.6896 21.6148 33.9936 21.5896 27.9547 21.5928C20.1211 21.597 19.2995 21.6096 18.8268 21.7332ZM10.0914 24.4563C7.95728 25.528 6.99237 27.2725 7.00005 30.0451C7.00332 31.2326 7.13225 32.0454 7.43966 32.8164C7.86048 33.8719 8.48577 34.6238 9.43029 35.21C9.9388 35.5257 10.7316 35.891 10.908 35.891C10.9455 35.891 10.8327 35.5255 10.6574 35.0788C9.39696 31.8693 9.39696 28.1668 10.6574 24.9573C11.0336 23.9991 11.0221 23.9888 10.0914 24.4563ZM45.1663 24.4348C45.4995 25.209 45.8522 26.348 46.054 27.3013C46.2518 28.236 46.2742 28.5041 46.2774 29.9781C46.2803 31.3811 46.2544 31.7474 46.0963 32.5313C45.8972 33.5182 45.5383 34.7117 45.2323 35.4039C45.1274 35.6414 45.0591 35.8533 45.0807 35.8748C45.1023 35.8964 45.2845 35.8512 45.4857 35.7744C46.7689 35.2845 47.8355 34.3635 48.3806 33.2748C48.8718 32.2936 49 31.628 49 30.058C49 28.4995 48.8783 27.8594 48.3904 26.8507C47.831 25.6942 46.3873 24.464 45.258 24.1815L45.033 24.1251L45.1663 24.4348ZM20.6081 27.0857C19.5937 27.4488 18.7735 28.2888 18.6874 29.0527C18.6513 29.3723 18.6733 29.4375 18.8905 29.6546C19.1781 29.9421 19.2516 29.9472 20.1206 29.7389C21.0195 29.5235 22.0196 29.5272 22.9487 29.7493C23.7983 29.9525 24.0433 29.9167 24.2671 29.5564C24.661 28.9223 23.947 27.7871 22.8019 27.227C22.1898 26.9276 21.2234 26.8654 20.6081 27.0857ZM33.6536 27.0489C32.8533 27.3135 32.1091 27.9297 31.8043 28.5798C31.5514 29.1192 31.5621 29.3778 31.8491 29.6646C32.1246 29.9401 32.2481 29.9473 33.0941 29.7384C33.5045 29.6371 34.0055 29.5805 34.4929 29.5805C34.9802 29.5805 35.4813 29.6371 35.8916 29.7384C36.7377 29.9473 36.8612 29.9401 37.1367 29.6646C37.5335 29.2678 37.3961 28.6694 36.7469 27.9684C36.1325 27.3052 35.4858 27.0001 34.6251 26.9676C34.2322 26.9529 33.8463 26.9851 33.6536 27.0489ZM26.2248 31.6739C26.0513 31.9214 26.0667 32.0118 26.3346 32.3168C26.6788 32.7086 27.3096 33.0235 27.8444 33.0704C28.8977 33.1627 30.1907 32.2549 29.8173 31.6852C29.6387 31.4127 29.3437 31.4443 28.9541 31.7776C28.3095 32.3292 27.6803 32.3271 27.0648 31.7712C26.708 31.449 26.4068 31.4141 26.2248 31.6739Z" fill="#78C0FF"/>
</svg>
