<svg width="53" height="54" viewBox="0 0 53 54" fill="none" xmlns="http://www.w3.org/2000/svg">
<path fill-rule="evenodd" clip-rule="evenodd" d="M31.0507 1.43856C30.2496 3.13684 29.0996 4.11234 27.2361 4.67439C26.583 4.87134 26.0483 5.09155 26.0481 5.16399C26.0481 5.23623 26.3518 5.3521 26.7233 5.42166C27.4665 5.56037 28.8041 6.24384 29.5868 6.88471C30.4751 7.61201 31.1672 8.70524 31.541 9.97174L31.9055 11.2066L32.1545 10.3722C32.9167 7.81761 34.8872 5.83059 37.0484 5.43689C37.9437 5.27369 37.9018 5.02323 36.9447 4.81742C35.0756 4.41549 33.5607 3.16174 32.7437 1.3406C32.4134 0.604031 32.0501 0.000823994 31.9365 7.84138e-07C31.8228 -0.000822426 31.4243 0.646632 31.0507 1.43856ZM19.3579 6.89603C11.5391 8.44325 4.72542 13.9847 1.78441 21.188C0.283945 24.863 -0.363391 29.9121 0.203157 33.5244C0.997193 38.5886 3.16483 43.0065 6.6102 46.5828C14.7148 54.9956 27.2869 56.4088 37.1612 50.0172C40.0004 48.1794 43.3579 44.4282 45.1024 41.145C46.619 38.291 47.7399 33.9605 47.742 30.9479C47.7426 29.9064 47.6628 29.6228 47.2647 29.2501C46.588 28.617 45.6134 28.659 45.0718 29.345C44.7623 29.7366 44.6435 30.1863 44.6435 30.9644C44.6435 34.3828 43.2387 38.6618 41.0632 41.8711C38.1817 46.1213 33.7219 49.132 28.3347 50.4634C25.658 51.1248 21.9037 51.0752 19.0575 50.3409C11.0467 48.274 5.1837 42.1644 3.51877 34.1484C3.14499 32.3488 3.08983 31.5674 3.18508 29.4201C3.40926 24.3684 5.06055 20.2656 8.36769 16.5445C11.6707 12.8277 16.7717 10.1582 21.3902 9.72952C22.4992 9.62641 22.9364 9.48811 23.3015 9.12425C23.8895 8.53874 23.9056 7.82584 23.3467 7.11829C22.9779 6.65112 22.7705 6.57868 21.8487 6.59535C21.2605 6.60605 20.1396 6.74126 19.3579 6.89603ZM43.7224 9.14853C43.005 12.1399 42.1118 13.8596 40.5636 15.229C39.3535 16.2993 37.0395 17.4366 35.7162 17.6115C35.1715 17.6836 34.7258 17.8132 34.7258 17.8997C34.7258 18.118 35.2771 18.3067 35.9157 18.3067C36.2106 18.3067 37.2042 18.6694 38.1235 19.1127C40.8626 20.4331 42.8557 22.8467 43.4232 25.5302C43.7685 27.1628 43.9499 27.3767 44.1233 26.3551C44.8251 22.217 48.1852 18.8877 52.3459 18.2078C53.3434 18.0448 53.1822 17.7828 51.9839 17.6192C50.3962 17.4022 48.4034 16.3275 47.0029 14.9324C45.5458 13.4811 44.7768 12.1076 44.2437 10.0038C43.9036 8.66202 43.8573 8.58608 43.7224 9.14853ZM23.6798 16.3821C23.0922 20.2071 21.6611 23.1186 19.1391 25.6208C16.8672 27.8747 14.4427 29.1459 11.2655 29.7489C9.34397 30.1136 8.56543 30.4481 9.63199 30.4505C10.7527 30.4532 13.5652 31.2418 15.114 31.9877C17.9699 33.3628 20.4937 35.8115 21.9888 38.6573C22.6593 39.9335 23.3785 42.2519 23.6885 44.1349C23.8569 45.1576 24.0005 44.8431 24.4488 42.4714C25.2693 38.1317 28.2361 34.2933 32.4631 32.1027C34.018 31.297 36.9088 30.4534 38.1247 30.4505C39.1935 30.4481 38.4113 30.1134 36.4821 29.7477C30.2558 28.568 25.3927 23.6646 24.3154 17.4802C24.1552 16.5622 23.9744 15.7612 23.9131 15.7003C23.8519 15.6391 23.7469 15.946 23.6798 16.3821Z" fill="#F8F8F8"/>
</svg>
