<svg width="21" height="27" viewBox="0 0 21 27" fill="none" xmlns="http://www.w3.org/2000/svg">
<path fill-rule="evenodd" clip-rule="evenodd" d="M13.0322 0.0929513C12.8828 0.147707 1.02537 14.0751 0.234033 15.1251C-0.113465 15.5862 -0.0711536 16.1266 0.342099 16.5034L0.692885 16.8234H4.622C6.7829 16.8234 8.57871 16.8675 8.61245 16.9212C8.64632 16.9749 8.10671 18.9843 7.41343 21.3864C6.72015 23.7885 6.14951 25.8519 6.14536 25.9719C6.14122 26.092 6.30432 26.3706 6.50787 26.5911C6.97073 27.0929 7.66458 27.1375 8.1859 26.699C8.46021 26.4683 16.8075 16.6442 20.321 12.4166C21.1141 11.4625 21.1957 10.9895 20.6531 10.4946L20.3023 10.1746H16.3732C14.2123 10.1746 12.4182 10.1306 12.3863 10.0768C12.3544 10.0231 12.8939 8.0137 13.5853 5.61164C14.2766 3.20957 14.8457 1.14608 14.8498 1.02614C14.854 0.906068 14.6909 0.627468 14.4873 0.406882C14.1275 0.0168153 13.568 -0.103777 13.0322 0.0929513Z" fill="#1767E4"/>
</svg>
