<svg width="17" height="24" viewBox="0 0 17 24" fill="none" xmlns="http://www.w3.org/2000/svg">
<path fill-rule="evenodd" clip-rule="evenodd" d="M10.5498 0.0826234C10.4289 0.131295 0.830065 12.5112 0.189455 13.4445C-0.0918528 13.8544 -0.0576005 14.3348 0.276938 14.6697L0.560907 14.9542H3.74162C5.49092 14.9542 6.94467 14.9933 6.97198 15.0411C6.9994 15.0888 6.56257 16.875 6.00135 19.0101C5.44012 21.1453 4.97817 22.9795 4.97482 23.0861C4.97146 23.1929 5.1035 23.4405 5.26828 23.6366C5.64297 24.0826 6.20466 24.1222 6.62668 23.7324C6.84874 23.5274 13.606 14.7948 16.4504 11.0369C17.0924 10.1889 17.1584 9.76847 16.7192 9.32857L16.4352 9.04407H13.2545C11.5052 9.04407 10.0528 9.00502 10.027 8.95716C10.0012 8.90942 10.4379 7.12329 10.9977 4.98812C11.5573 2.85295 12.0179 1.01874 12.0213 0.912123C12.0247 0.805394 11.8926 0.557749 11.7278 0.361673C11.4366 0.0149469 10.9837 -0.092246 10.5498 0.0826234Z" fill="#17876E"/>
</svg>
