<svg width="31" height="31" viewBox="0 0 31 31" fill="none" xmlns="http://www.w3.org/2000/svg">
<path d="M21.8608 16.6588L18.1388 22.6588C17.8888 23.0571 17.5392 23.2146 17.09 23.1313C16.6411 23.048 16.3564 22.7841 16.2358 22.3396L14.9304 17.0896L2.63875 29.3534C2.37014 29.622 2.04833 29.7585 1.67333 29.763C1.29833 29.7677 0.971945 29.6312 0.694167 29.3534C0.425833 29.0848 0.291667 28.7607 0.291667 28.3813C0.291667 28.0016 0.425833 27.6774 0.694167 27.4088L12.9583 15.1313L7.70833 13.8255C7.26389 13.7052 7 13.4205 6.91667 12.9713C6.83333 12.5224 6.99069 12.173 7.38875 11.923L13.3888 8.18671L12.8888 1.14504C12.8518 0.681986 13.0417 0.344069 13.4583 0.131291C13.875 -0.0817648 14.2546 -0.0355141 14.5971 0.270042L20 4.81171L26.5417 2.18671C26.9767 2.02004 27.3517 2.09407 27.6667 2.40879C27.9814 2.72379 28.0554 3.09879 27.8888 3.53379L25.2358 10.0755L29.7775 15.4646C30.0831 15.8071 30.134 16.1867 29.9304 16.6034C29.7268 17.02 29.3935 17.2099 28.9304 17.173L21.8608 16.6588ZM0.222083 5.52004C0.0740279 5.37199 0 5.20532 0 5.02004C0 4.83476 0.0740279 4.6681 0.222083 4.52004L2.22208 2.52004C2.37014 2.37199 2.53681 2.29796 2.72208 2.29796C2.90736 2.29796 3.07403 2.37199 3.22208 2.52004L5.19417 4.49213C5.3425 4.64046 5.41667 4.80713 5.41667 4.99213C5.41667 5.1774 5.3425 5.34407 5.19417 5.49213L3.19417 7.49213C3.04611 7.64046 2.87944 7.71462 2.69417 7.71462C2.50917 7.71462 2.3425 7.64046 2.19417 7.49213L0.222083 5.52004ZM17.9583 17.7005L20.375 13.77L25 14.1171L22 10.5755L23.7358 6.29796L19.4583 8.03379L15.9167 5.04796L16.2638 9.65879L12.3333 12.1171L16.8333 13.2284L17.9583 17.7005ZM24.5833 29.8534L22.5833 27.8534C22.435 27.7053 22.3656 27.5387 22.375 27.3534C22.3842 27.1681 22.4628 27.0014 22.6108 26.8534L24.5833 24.8813C24.7314 24.733 24.8981 24.6588 25.0833 24.6588C25.2683 24.6588 25.435 24.733 25.5833 24.8813L27.5833 26.8813C27.7314 27.0293 27.8008 27.196 27.7917 27.3813C27.7822 27.5663 27.7035 27.733 27.5554 27.8813L25.5833 29.8534C25.435 30.0014 25.2683 30.0755 25.0833 30.0755C24.8981 30.0755 24.7314 30.0014 24.5833 29.8534Z" fill="#E8EAED"/>
</svg>
