<svg width="32" height="32" viewBox="0 0 32 32" fill="none" xmlns="http://www.w3.org/2000/svg">
<path d="M8.16667 16.6113V8.88875C8.16667 8.31014 8.36958 7.81833 8.77542 7.41333C9.18153 7.00806 9.67458 6.80542 10.2546 6.80542C10.8349 6.80542 11.3264 7.00806 11.7292 7.41333C12.1319 7.81833 12.3333 8.31014 12.3333 8.88875V16.6113C12.3333 17.1899 12.1303 17.6817 11.7242 18.0867C11.3181 18.4919 10.825 18.6946 10.245 18.6946C9.665 18.6946 9.17361 18.4919 8.77083 18.0867C8.36806 17.6817 8.16667 17.1899 8.16667 16.6113ZM16.3333 17.5696V2.08333C16.3333 1.50472 16.5363 1.01278 16.9421 0.607501C17.3482 0.202501 17.8413 0 18.4213 0C19.0015 0 19.4931 0.202501 19.8958 0.607501C20.2986 1.01278 20.5 1.50472 20.5 2.08333V17.5696C20.5 18.264 20.2864 18.7849 19.8592 19.1321C19.4319 19.4793 18.9528 19.6529 18.4217 19.6529C17.8906 19.6529 17.4097 19.4793 16.9792 19.1321C16.5486 18.7849 16.3333 18.264 16.3333 17.5696ZM0 22.2637V15.7221C0 15.1435 0.202917 14.6517 0.60875 14.2467C1.01486 13.8414 1.50792 13.6388 2.08792 13.6388C2.66819 13.6388 3.15972 13.8414 3.5625 14.2467C3.96528 14.6517 4.16667 15.1435 4.16667 15.7221V22.2637C4.16667 22.9582 3.95306 23.479 3.52583 23.8262C3.09861 24.1735 2.61944 24.3471 2.08833 24.3471C1.55722 24.3471 1.07639 24.1735 0.645833 23.8262C0.215278 23.479 0 22.9582 0 22.2637ZM3.23958 31.75C2.63542 31.75 2.21528 31.4607 1.97917 30.8821C1.74306 30.3032 1.8425 29.7962 2.2775 29.3612L9.38875 22.25C9.63875 22 9.94667 21.8657 10.3125 21.8471C10.6781 21.8287 10.9997 21.9446 11.2775 22.1946L16.4167 26.6946L26.8054 16.3054H24.8608C24.4675 16.3054 24.1376 16.1719 23.8713 15.905C23.6051 15.6378 23.4721 15.3067 23.4721 14.9117C23.4721 14.5169 23.6051 14.1876 23.8713 13.9237C24.1376 13.6599 24.4675 13.5279 24.8608 13.5279H30.1667C30.56 13.5279 30.8899 13.661 31.1562 13.9271C31.4224 14.1932 31.5554 14.5231 31.5554 14.9167V20.1946C31.5554 20.5879 31.4218 20.9178 31.1546 21.1842C30.8876 21.4503 30.5567 21.5833 30.1617 21.5833C29.7667 21.5833 29.4372 21.4503 29.1733 21.1842C28.9094 20.9178 28.7775 20.5879 28.7775 20.1946V18.25L17.4442 29.5833C17.1942 29.8333 16.8864 29.9676 16.5208 29.9862C16.155 30.0046 15.8332 29.8888 15.5554 29.6388L10.4167 25.1667L4.25 31.3333C4.11111 31.4722 3.95444 31.5764 3.78 31.6458C3.60583 31.7153 3.42569 31.75 3.23958 31.75Z" fill="#E8EAED"/>
</svg>
