<svg width="28" height="26" viewBox="0 0 28 26" fill="none" xmlns="http://www.w3.org/2000/svg">
<path fill-rule="evenodd" clip-rule="evenodd" d="M25.4693 0.0494794C25.0374 0.16802 24.7012 0.386969 24.4055 0.742277C24.1357 1.06651 23.977 1.39451 23.8592 1.87116C23.822 2.02159 23.8135 2.13235 23.812 2.48693C23.81 2.93316 23.8122 2.94998 23.9237 3.34289C23.984 3.55523 24.1152 3.86243 24.1736 3.92807C24.18 3.93528 24.2142 3.98731 24.2497 4.0437C24.5074 4.45404 24.935 4.78091 25.4053 4.92715C25.6327 4.99784 26.1463 5.00392 26.3576 4.93839C26.8165 4.79609 27.0965 4.60756 27.4065 4.23202C27.8054 3.74903 28.0016 3.17184 28 2.48693C27.9983 1.7788 27.7894 1.19891 27.3575 0.703366C27.0385 0.337342 26.7685 0.167391 26.3146 0.0470685C26.0743 -0.0166039 25.7063 -0.0155555 25.4693 0.0494794ZM22.1185 2.23871C22.1121 2.24631 22.114 2.29926 22.1228 2.35638C22.1416 2.47849 22.1253 2.50131 22.0014 2.5261C21.9529 2.53579 21.8824 2.55487 21.8448 2.56847C21.8072 2.58207 21.7229 2.60431 21.6574 2.61791C21.5918 2.63149 21.4688 2.6612 21.3839 2.68392C21.2989 2.70664 21.1798 2.73611 21.1192 2.74942C21.0585 2.76274 20.9394 2.79282 20.8545 2.81629C20.7696 2.83977 20.6604 2.86823 20.6119 2.87957C20.5634 2.89092 20.4442 2.92034 20.3472 2.94497C20.2502 2.96958 20.1261 3.00003 20.0715 3.0126C20.0169 3.02518 19.9028 3.05392 19.8178 3.07646C19.7329 3.09902 19.5692 3.14029 19.4539 3.16819C19.3387 3.1961 19.1749 3.23716 19.09 3.25946C18.8898 3.31202 18.6308 3.37679 18.5055 3.40564C18.4509 3.41822 18.3368 3.44712 18.2518 3.46989C18.1669 3.49266 18.0478 3.52219 17.9872 3.5355C17.9265 3.54881 17.8074 3.57819 17.7225 3.60077C17.4951 3.6613 17.3826 3.68963 17.2593 3.7174C17.1564 3.74056 17.0909 3.75728 16.6858 3.86374C16.6009 3.88607 16.4818 3.91523 16.4212 3.92854C16.3605 3.94185 16.2414 3.9712 16.1565 3.99376C15.9588 4.04632 15.8045 4.0856 15.6933 4.11178C15.5608 4.14293 15.2936 4.21038 15.1198 4.25655C15.0349 4.27908 14.9183 4.30874 14.8607 4.32242C14.803 4.33612 14.7087 4.3585 14.6511 4.37221C14.5935 4.38588 14.4769 4.4157 14.392 4.43847C14.307 4.46124 14.1879 4.4914 14.1273 4.5055C14.0666 4.51959 13.9475 4.54884 13.8626 4.57048C13.7777 4.59212 13.656 4.62092 13.5921 4.63447C13.5282 4.64804 13.4678 4.66515 13.4577 4.67251C13.4477 4.6799 13.3858 4.69769 13.3202 4.71208C13.1263 4.75461 12.9899 4.78754 12.826 4.83151C12.741 4.85428 12.6219 4.88381 12.5613 4.89712C12.4585 4.91971 12.396 4.93559 11.9878 5.04286C11.9029 5.06519 11.7838 5.09466 11.7231 5.10834C11.6625 5.12205 11.5731 5.14403 11.5246 5.15716C11.4081 5.18873 11.1062 5.26509 10.9953 5.29103C10.8707 5.32014 10.6199 5.38334 10.3115 5.46334C10.1659 5.50109 10.022 5.53762 9.9917 5.54448C9.96137 5.55135 9.84227 5.58106 9.72702 5.61054C9.61178 5.64005 9.47779 5.67327 9.42926 5.68443C9.38074 5.69559 9.26659 5.72371 9.17561 5.74693C9.08463 5.77014 8.96056 5.80064 8.89991 5.81469C8.83925 5.82876 8.72511 5.85823 8.64626 5.88017C8.56741 5.9021 8.45326 5.93095 8.39261 5.94423C8.33195 5.95752 8.20788 5.98828 8.1169 6.01254C8.02592 6.03683 7.91178 6.06592 7.86325 6.07721C7.81473 6.08848 7.69562 6.1179 7.59858 6.14261C7.50153 6.16729 7.38242 6.19659 7.3339 6.2077C7.28538 6.21881 7.05213 6.27776 6.81557 6.33871C6.57902 6.39966 6.34577 6.4588 6.29725 6.47014C6.24872 6.48152 6.13458 6.50979 6.0436 6.533C5.95261 6.55622 5.82855 6.58648 5.76789 6.60029C5.70724 6.6141 5.58813 6.64455 5.50321 6.66792C5.4183 6.69132 5.32401 6.71621 5.29368 6.72326C5.26335 6.73031 5.14425 6.76018 5.029 6.78966C4.91376 6.81916 4.77976 6.85239 4.73124 6.86352C4.61194 6.89093 4.36625 6.95277 4.04749 7.03565C3.90192 7.07349 3.74311 7.11358 3.69459 7.12474C3.64606 7.13587 3.52696 7.1652 3.42991 7.18988C3.33286 7.21459 3.21376 7.24425 3.16523 7.2558C3.06135 7.28057 2.82466 7.33976 2.54765 7.41027C2.35733 7.45872 2.17591 7.50462 1.84185 7.58884C1.75693 7.61025 1.64775 7.63705 1.59922 7.6484C1.5507 7.65977 1.4316 7.68925 1.33455 7.71393C1.2375 7.73864 1.11839 7.76814 1.06987 7.77952C1.02135 7.79091 0.857577 7.83239 0.705939 7.87172C0.376129 7.95725 0.169107 8.0096 0.0717501 8.03216L0 8.04877L0.00558075 12.3491L0.0111608 16.6494L0.245511 16.6569C0.473332 16.664 0.480235 16.6626 0.493271 16.6045C0.500637 16.5715 0.506791 14.7471 0.506923 12.5502C0.507056 10.3533 0.514665 8.54807 0.52384 8.53866C0.537493 8.52464 1.03304 8.39507 1.42277 8.30359C1.4713 8.2922 1.5904 8.26269 1.68745 8.23798C1.7845 8.2133 1.9036 8.18416 1.95213 8.17326C2.00065 8.16234 2.13464 8.12929 2.24989 8.09979C2.36513 8.07031 2.4892 8.03866 2.52559 8.02946C2.56199 8.02027 2.65628 7.99558 2.73513 7.97465C2.81398 7.95371 2.92813 7.92523 2.98878 7.91139C3.04944 7.89753 3.16854 7.86761 3.25346 7.84489C3.33837 7.82217 3.45748 7.79249 3.51813 7.77891C3.57879 7.76534 3.69293 7.73628 3.77178 7.71435C3.85064 7.69242 3.96478 7.66294 4.02543 7.64887C4.08609 7.63483 4.21016 7.60433 4.30114 7.58111C4.39212 7.55789 4.50626 7.52962 4.55479 7.51828C4.60331 7.5069 4.72242 7.47743 4.81947 7.45274C4.91651 7.42803 5.03562 7.39861 5.08414 7.38734C5.13267 7.37605 5.24681 7.34633 5.33779 7.32131C5.42877 7.29629 5.54292 7.26676 5.59144 7.2557C5.63996 7.24464 5.75907 7.2154 5.85612 7.19072C5.95317 7.16601 6.07227 7.13653 6.12079 7.12521C6.25463 7.09392 6.51058 7.0292 6.80454 6.95233C6.95012 6.91425 7.10892 6.87398 7.15745 6.86282C7.20597 6.85168 7.32508 6.82236 7.42212 6.79768C7.51917 6.77297 7.63828 6.74349 7.6868 6.73217C7.73533 6.72083 7.85443 6.69135 7.95148 6.66666C8.04853 6.64196 8.16763 6.61245 8.21616 6.60108C8.26468 6.58968 8.42845 6.5482 8.58009 6.50887C8.92452 6.41957 9.11141 6.37257 9.25281 6.33968C9.31346 6.32558 9.43257 6.29545 9.51749 6.27273C9.6024 6.25002 9.72151 6.22054 9.78216 6.20723C9.84282 6.19392 9.96192 6.16457 10.0468 6.14201C10.1318 6.11942 10.2509 6.08848 10.3115 6.07323C10.3722 6.05798 10.4863 6.02902 10.5652 6.0089C10.644 5.98875 10.7582 5.96074 10.8188 5.94664C10.8795 5.93254 10.9986 5.90241 11.0835 5.87969C11.1684 5.85698 11.2875 5.8275 11.3482 5.81419C11.4088 5.80088 11.5279 5.7715 11.6128 5.74892C11.8402 5.68839 11.9528 5.66006 12.076 5.63229C12.1789 5.60913 12.2444 5.59241 12.6495 5.48595C12.7344 5.46362 12.8535 5.43446 12.9142 5.42115C12.9748 5.40784 13.0939 5.37846 13.1789 5.35588C13.3571 5.30842 13.4111 5.29477 13.7854 5.2023C13.937 5.16483 14.1306 5.11578 14.2155 5.09325C14.3004 5.07074 14.4195 5.04142 14.4802 5.02811C14.5408 5.0148 14.6599 4.98542 14.7449 4.96284C14.9238 4.91523 14.9789 4.90126 15.3514 4.80932C15.5031 4.77187 15.7164 4.7185 15.8256 4.6907C15.9348 4.6629 16.0986 4.62168 16.1896 4.59912C16.2805 4.57653 16.4245 4.53974 16.5094 4.51734C16.5943 4.49494 16.7084 4.46633 16.763 4.45375C16.8176 4.44117 16.9417 4.41072 17.0387 4.38612C17.1358 4.36149 17.2549 4.33201 17.3034 4.32061C17.3519 4.30921 17.5356 4.26302 17.7115 4.21792C17.8874 4.17286 18.0809 4.12328 18.1416 4.10777C18.2022 4.09226 18.2915 4.07022 18.3401 4.0588C18.3886 4.0474 18.5077 4.01787 18.6047 3.99316C18.7018 3.96848 18.8209 3.93915 18.8694 3.92799C18.9552 3.90826 19.3289 3.81317 19.6414 3.73152C19.7263 3.70936 19.8256 3.68462 19.862 3.67658C19.8983 3.66853 19.9877 3.64658 20.0605 3.62779C20.1333 3.609 20.2524 3.57926 20.3251 3.56171C20.4519 3.53113 20.6442 3.48181 20.8324 3.43153C20.881 3.41859 21.0001 3.38872 21.0971 3.36513C21.1942 3.34158 21.3133 3.3121 21.3618 3.29963C21.4103 3.28718 21.5294 3.2577 21.6265 3.23412C21.8002 3.19196 21.8527 3.17878 22.108 3.11322C22.2523 3.07617 22.2762 3.09239 22.2768 3.22796C22.277 3.26805 22.2916 3.30744 22.3092 3.31548C22.3561 3.33683 22.3349 3.35753 22.9447 2.69537L23.0543 2.57628L22.969 2.53441C22.8403 2.47128 22.1976 2.2249 22.1616 2.2249C22.1443 2.2249 22.1249 2.23111 22.1185 2.23871ZM21.0199 6.86098C20.25 6.99598 19.6068 7.80538 19.5194 8.74935C19.5071 8.88275 19.4986 12.3666 19.4984 17.4371C19.4981 24.2107 19.5036 25.9111 19.5259 25.9473C19.5518 25.9895 19.673 25.9924 21.3389 25.9912C22.729 25.9901 23.128 25.9826 23.1415 25.9575C23.1699 25.9045 23.1497 8.76217 23.121 8.59214C23.0914 8.41632 23.0611 8.30695 22.9918 8.12633C22.9627 8.05027 22.9388 7.98287 22.9388 7.97656C22.9388 7.94441 22.7987 7.70966 22.6965 7.57063C22.4742 7.26823 22.162 7.0367 21.7974 6.90388C21.6626 6.85475 21.2007 6.82928 21.0199 6.86098ZM15.6933 8.99872C15.1089 9.09717 14.6613 9.4667 14.3767 10.0857C14.3469 10.1505 14.3066 10.2626 14.2871 10.3346C14.2677 10.4067 14.2387 10.5128 14.2228 10.5704C14.1991 10.6558 14.1928 12.0868 14.1883 18.3002C14.1853 22.4939 14.191 25.9404 14.201 25.959C14.2156 25.9861 14.57 25.9926 16.0039 25.9918C16.9855 25.9913 17.7961 25.9908 17.8053 25.9908C17.8326 25.9906 17.8128 10.6404 17.7853 10.518C17.7315 10.2789 17.5804 9.92687 17.4443 9.72396C17.2857 9.48748 16.9905 9.23575 16.7299 9.1148C16.6019 9.05535 16.5112 9.02983 16.3109 8.99689C16.0496 8.95395 15.9574 8.95421 15.6933 8.99872ZM10.1902 10.7942C9.77299 10.9087 9.51952 11.0864 9.25665 11.4486C9.19897 11.528 9.13778 11.6224 9.12069 11.6582C8.99111 11.9297 8.93723 12.0995 8.8898 12.3863C8.8591 12.5717 8.85754 25.9546 8.8882 25.9771C8.89995 25.9857 9.71134 25.9924 10.6913 25.992C12.3431 25.9913 12.4751 25.988 12.5006 25.9467C12.5374 25.8872 12.5412 12.9355 12.5046 12.517C12.4916 12.3687 12.461 12.1826 12.4367 12.1033C12.4123 12.024 12.3867 11.9356 12.3797 11.9068C12.3728 11.8779 12.3237 11.7739 12.2706 11.6757C12.0104 11.1935 11.6473 10.8988 11.1827 10.7927C11.0587 10.7644 10.2945 10.7655 10.1902 10.7942ZM4.70918 12.5906C4.64853 12.6101 4.57905 12.6369 4.55479 12.6502C4.53053 12.6635 4.47097 12.6948 4.42245 12.7198C4.29457 12.7857 4.08337 12.9694 3.97508 13.109C3.87379 13.2395 3.69812 13.551 3.67776 13.6361C3.67085 13.665 3.64216 13.7534 3.61399 13.8327L3.56273 13.9768L3.55631 19.9379C3.55179 24.1202 3.55689 25.9146 3.57336 25.9514C3.59661 26.0032 3.61648 26.0037 5.387 25.997C6.78419 25.9918 7.18094 25.9831 7.1945 25.9577C7.20407 25.9398 7.21206 23.3 7.21226 20.0913C7.21254 14.9341 7.20864 14.2336 7.17849 14.0516C7.1175 13.6833 6.98225 13.3607 6.7901 13.1252C6.68498 12.9963 6.4999 12.8108 6.4765 12.8108C6.4684 12.8108 6.42478 12.7837 6.37952 12.7505C6.33428 12.7174 6.23769 12.6687 6.16491 12.6424C6.09212 12.6159 6.00976 12.5841 5.98191 12.5716C5.89791 12.5337 4.83689 12.5497 4.70918 12.5906ZM0.00891129 16.778C0.00238259 16.7982 0.000198611 16.8542 0.0041026 16.9024L0.0111608 16.9901L0.248268 16.9975L0.485374 17.005V16.8731V16.7412H0.253098C0.0739554 16.7412 0.0180868 16.7496 0.00891129 16.778ZM0.0230715 17.1198C0.00844807 17.1408 -0.000109819 17.1791 0.00405885 17.205C0.0105434 17.2452 0.0391943 17.2532 0.198883 17.2598C0.438239 17.2697 0.485374 17.2559 0.485374 17.1758C0.485374 17.0943 0.451606 17.0818 0.232629 17.0818C0.0995848 17.0818 0.0423929 17.0922 0.0230715 17.1198ZM0.0250787 17.379C-0.0160125 17.4378 0.0201376 17.4486 0.257465 17.4486C0.437556 17.4486 0.485374 17.441 0.485374 17.4121C0.485374 17.3576 0.43449 17.3438 0.232629 17.3438C0.106466 17.3438 0.042018 17.3547 0.0250787 17.379Z" fill="#4AD991"/>
</svg>
