<svg width="30" height="23" viewBox="0 0 30 23" fill="none" xmlns="http://www.w3.org/2000/svg">
<path fill-rule="evenodd" clip-rule="evenodd" d="M27.2886 0.0437702C26.8258 0.148633 26.4656 0.342319 26.1488 0.65663C25.8597 0.94345 25.6896 1.23361 25.5634 1.65526C25.5236 1.78833 25.5145 1.88631 25.5128 2.19997C25.5107 2.59472 25.5131 2.6096 25.6326 2.95717C25.6971 3.14501 25.8377 3.41677 25.9003 3.47483C25.9072 3.48121 25.9438 3.52724 25.9818 3.57712C26.2579 3.94011 26.716 4.22927 27.22 4.35863C27.4636 4.42117 28.0139 4.42655 28.2403 4.36858C28.7319 4.24269 29.0319 4.07592 29.3641 3.74371C29.7915 3.31645 30.0018 2.80586 30 2.19997C29.9982 1.57355 29.7744 1.06057 29.3116 0.622208C28.9699 0.298418 28.6805 0.148077 28.1942 0.0416375C27.9368 -0.0146881 27.5425 -0.0137606 27.2886 0.0437702ZM23.6984 1.9804C23.6915 1.98712 23.6936 2.03396 23.703 2.08449C23.7231 2.19251 23.7057 2.2127 23.573 2.23463C23.521 2.2432 23.4455 2.26008 23.4052 2.27211C23.3649 2.28414 23.2745 2.30382 23.2043 2.31585C23.1341 2.32785 23.0023 2.35414 22.9113 2.37423C22.8203 2.39433 22.6927 2.42041 22.6277 2.43218C22.5627 2.44396 22.4351 2.47057 22.3441 2.49134C22.2531 2.5121 22.1361 2.53728 22.0842 2.54731C22.0322 2.55735 21.9046 2.58338 21.8006 2.60517C21.6966 2.62693 21.5637 2.65387 21.5052 2.665C21.4467 2.67612 21.3244 2.70155 21.2334 2.72148C21.1424 2.74144 20.967 2.77795 20.8435 2.80263C20.72 2.82732 20.5445 2.86364 20.4536 2.88337C20.239 2.92986 19.9616 2.98716 19.8273 3.01268C19.7688 3.02381 19.6465 3.04938 19.5555 3.06952C19.4646 3.08966 19.3369 3.11579 19.272 3.12756C19.207 3.13934 19.0794 3.16532 18.9884 3.1853C18.7448 3.23884 18.6242 3.2639 18.4921 3.28847C18.3819 3.30896 18.3117 3.32375 17.8777 3.41793C17.7867 3.43768 17.6591 3.46347 17.5941 3.47525C17.5291 3.48702 17.4015 3.51298 17.3105 3.53294C17.0987 3.57944 16.9334 3.61419 16.8142 3.63734C16.6723 3.6649 16.386 3.72457 16.1998 3.76541C16.1088 3.78534 15.9839 3.81158 15.9221 3.82368C15.8604 3.8358 15.7594 3.8556 15.6976 3.86772C15.6359 3.87982 15.5109 3.9062 15.42 3.92634C15.329 3.94648 15.2014 3.97316 15.1364 3.98563C15.0714 3.9981 14.9438 4.02397 14.8528 4.04312C14.7618 4.06226 14.6314 4.08774 14.563 4.09972C14.4945 4.11173 14.4298 4.12686 14.419 4.13338C14.4082 4.13991 14.3419 4.15565 14.2716 4.16838C14.0639 4.206 13.9177 4.23513 13.7421 4.27403C13.6511 4.29417 13.5235 4.32029 13.4585 4.33207C13.3484 4.35205 13.2815 4.3661 12.8441 4.46099C12.7531 4.48074 12.6255 4.50682 12.5605 4.51892C12.4955 4.53104 12.3998 4.55049 12.3478 4.5621C12.223 4.59003 11.8995 4.65758 11.7806 4.68052C11.6472 4.70628 11.3785 4.76218 11.0481 4.83295C10.8921 4.86635 10.7379 4.89866 10.7054 4.90474C10.6729 4.91081 10.5453 4.93709 10.4218 4.96317C10.2983 4.98927 10.1548 5.01866 10.1028 5.02854C10.0508 5.03841 9.92849 5.06328 9.83101 5.08382C9.73353 5.10436 9.6006 5.13134 9.53561 5.14376C9.47063 5.15621 9.34833 5.18228 9.26385 5.20169C9.17936 5.22109 9.05707 5.24661 8.99208 5.25836C8.92709 5.27011 8.79416 5.29732 8.69668 5.31879C8.5992 5.34027 8.4769 5.366 8.42491 5.37599C8.37292 5.38596 8.24531 5.41199 8.14133 5.43385C8.03735 5.45568 7.90974 5.4816 7.85775 5.49143C7.80576 5.50125 7.55585 5.55341 7.3024 5.60732C7.04895 5.66124 6.79904 5.71355 6.74705 5.72359C6.69506 5.73365 6.57276 5.75866 6.47528 5.7792C6.3778 5.79973 6.24487 5.82651 6.17988 5.83872C6.1149 5.85094 5.98728 5.87787 5.8963 5.89855C5.80532 5.91925 5.70429 5.94127 5.6718 5.9475C5.6393 5.95374 5.51169 5.98016 5.38822 6.00624C5.26474 6.03234 5.12117 6.06173 5.06918 6.07158C4.94136 6.09583 4.67812 6.15053 4.3366 6.22384C4.18063 6.25732 4.01048 6.29278 3.95849 6.30265C3.9065 6.3125 3.77888 6.33844 3.6749 6.36028C3.57092 6.38214 3.44331 6.40837 3.39132 6.4186C3.28001 6.4405 3.02642 6.49286 2.72963 6.55524C2.52571 6.5981 2.33133 6.63871 1.97341 6.7132C1.88242 6.73214 1.76544 6.75585 1.71345 6.76589C1.66146 6.77595 1.53385 6.80203 1.42987 6.82386C1.32589 6.84572 1.19828 6.87182 1.14629 6.88188C1.0943 6.89196 0.918832 6.92866 0.756363 6.96345C0.402995 7.0391 0.181186 7.08542 0.0768751 7.10537L0 7.12007L0.00597937 10.9242L0.011958 14.7284L0.263047 14.7349C0.507141 14.7413 0.514538 14.74 0.528504 14.6886C0.536397 14.6594 0.54299 13.0455 0.543132 11.1021C0.543274 9.15866 0.551427 7.56175 0.561258 7.55343C0.575886 7.54103 1.10682 7.42641 1.5244 7.34549C1.57639 7.3354 1.704 7.30931 1.80798 7.28745C1.91196 7.26561 2.03958 7.23984 2.09157 7.2302C2.14356 7.22053 2.28712 7.1913 2.4106 7.1652C2.53407 7.13912 2.667 7.11112 2.70599 7.10299C2.74499 7.09485 2.84601 7.07302 2.9305 7.0545C3.01498 7.03598 3.13728 7.01078 3.20226 6.99854C3.26725 6.98628 3.39486 6.95981 3.48585 6.93971C3.57683 6.91962 3.70444 6.89335 3.76943 6.88135C3.83442 6.86934 3.95671 6.84363 4.0412 6.82423C4.12568 6.80483 4.24798 6.77876 4.31296 6.76631C4.37795 6.75388 4.51088 6.7269 4.60836 6.70637C4.70584 6.68583 4.82814 6.66082 4.88013 6.65078C4.93212 6.64072 5.05973 6.61465 5.16371 6.59281C5.26769 6.57095 5.39531 6.54492 5.4473 6.53496C5.49929 6.52497 5.62158 6.49868 5.71906 6.47654C5.81654 6.45441 5.93884 6.42829 5.99083 6.4185C6.04282 6.40872 6.17043 6.38285 6.27441 6.36102C6.37839 6.33916 6.506 6.31308 6.55799 6.30307C6.70139 6.27539 6.97562 6.21814 7.29058 6.15013C7.44655 6.11646 7.6167 6.08083 7.66869 6.07095C7.72068 6.0611 7.8483 6.03517 7.95228 6.01333C8.05626 5.99147 8.18387 5.9654 8.23586 5.95538C8.28785 5.94535 8.41546 5.91927 8.51944 5.89743C8.62342 5.87558 8.75103 5.84948 8.80303 5.83942C8.85502 5.82933 9.03048 5.79264 9.19295 5.75785C9.56199 5.67885 9.76222 5.63727 9.91372 5.60818C9.97871 5.59571 10.1063 5.56905 10.1973 5.54896C10.2883 5.52886 10.4159 5.50278 10.4809 5.49101C10.5459 5.47923 10.6735 5.45327 10.7645 5.43332C10.8555 5.41334 10.9831 5.38596 11.0481 5.37247C11.113 5.35898 11.2353 5.33337 11.3198 5.31557C11.4043 5.29774 11.5266 5.27296 11.5916 5.26049C11.6566 5.24802 11.7842 5.22136 11.8752 5.20127C11.9662 5.18117 12.0938 5.1551 12.1588 5.14332C12.2237 5.13155 12.3514 5.10556 12.4423 5.08558C12.686 5.03204 12.8065 5.00698 12.9386 4.98241C13.0488 4.96192 13.119 4.94713 13.553 4.85295C13.644 4.8332 13.7716 4.80741 13.8366 4.79563C13.9016 4.78386 14.0292 4.75787 14.1202 4.73789C14.3112 4.69591 14.369 4.68384 14.7701 4.60204C14.9325 4.56889 15.1399 4.5255 15.2309 4.50557C15.3219 4.48566 15.4495 4.45972 15.5145 4.44794C15.5795 4.43617 15.7071 4.41018 15.7981 4.3902C15.9898 4.34809 16.0488 4.33573 16.4479 4.2544C16.6104 4.22127 16.8391 4.17406 16.956 4.14946C17.073 4.12487 17.2485 4.08841 17.346 4.06845C17.4434 4.04847 17.5976 4.01593 17.6886 3.99611C17.7796 3.97629 17.9019 3.95098 17.9604 3.93985C18.0189 3.92873 18.1518 3.90179 18.2558 3.88003C18.3598 3.85824 18.4874 3.83216 18.5394 3.82208C18.5914 3.812 18.7881 3.77113 18.9766 3.73124C19.165 3.69137 19.3724 3.64752 19.4374 3.6338C19.5024 3.62007 19.5981 3.60058 19.6501 3.59047C19.7021 3.58039 19.8297 3.55427 19.9336 3.53241C20.0376 3.51057 20.1652 3.48464 20.2172 3.47476C20.3092 3.45731 20.7095 3.37319 21.0443 3.30096C21.1353 3.28135 21.2417 3.25947 21.2807 3.25236C21.3197 3.24524 21.4154 3.22582 21.4934 3.2092C21.5713 3.19258 21.699 3.16627 21.7769 3.15074C21.9128 3.12369 22.1188 3.08007 22.3205 3.03558C22.3725 3.02413 22.5001 2.99771 22.6041 2.97685C22.708 2.95601 22.8356 2.92993 22.8876 2.9189C22.9396 2.90789 23.0672 2.88181 23.1712 2.86095C23.3573 2.82366 23.4136 2.812 23.6871 2.754C23.8418 2.72123 23.8673 2.73558 23.868 2.85551C23.8682 2.89097 23.8838 2.92581 23.9027 2.93292C23.953 2.95182 23.9302 2.97013 24.5836 2.38436L24.7011 2.27901L24.6096 2.24197C24.4718 2.18614 23.7832 1.96818 23.7446 1.96818C23.726 1.96818 23.7052 1.97367 23.6984 1.9804ZM22.5213 6.06933C21.6964 6.18875 21.0073 6.90476 20.9137 7.73981C20.9004 7.85782 20.8914 10.9397 20.8912 15.4251C20.8908 21.4171 20.8967 22.9214 20.9206 22.9533C20.9484 22.9907 21.0782 22.9933 22.8631 22.9922C24.3525 22.9912 24.78 22.9846 24.7945 22.9624C24.8249 22.9155 24.8033 7.75115 24.7725 7.60074C24.7408 7.44521 24.7083 7.34845 24.6341 7.18868C24.6029 7.12139 24.5773 7.06177 24.5773 7.05619C24.5773 7.02775 24.4272 6.82008 24.3177 6.6971C24.0795 6.42958 23.745 6.22477 23.3543 6.10728C23.2099 6.06382 22.7151 6.04129 22.5213 6.06933ZM16.8142 7.96041C16.1882 8.0475 15.7086 8.37439 15.4037 8.92196C15.3717 8.97932 15.3285 9.07841 15.3076 9.14216C15.2868 9.2059 15.2557 9.29978 15.2387 9.35077C15.2134 9.42631 15.2065 10.6922 15.2018 16.1886C15.1986 19.8985 15.2047 22.9473 15.2154 22.9637C15.231 22.9877 15.6108 22.9934 17.1471 22.9928C18.1988 22.9923 19.0673 22.9919 19.0771 22.9918C19.1064 22.9917 19.0851 9.41268 19.0557 9.30441C18.9981 9.09288 18.8361 8.78147 18.6903 8.60197C18.5204 8.39277 18.2041 8.17009 17.9249 8.0631C17.7878 8.0105 17.6906 7.98792 17.4759 7.95879C17.196 7.9208 17.0972 7.92103 16.8142 7.96041ZM10.9181 9.5487C10.4711 9.65004 10.1995 9.80722 9.91784 10.1276C9.85604 10.1979 9.79048 10.2813 9.77217 10.313C9.63333 10.5532 9.5756 10.7034 9.52479 10.9571C9.49189 11.1212 9.49022 22.9598 9.52307 22.9797C9.53566 22.9874 10.405 22.9933 11.455 22.9929C13.2248 22.9923 13.3661 22.9894 13.3935 22.9528C13.4329 22.9002 13.437 11.4429 13.3978 11.0727C13.3839 10.9416 13.3511 10.7769 13.325 10.7068C13.2989 10.6366 13.2714 10.5584 13.264 10.5329C13.2565 10.5074 13.2039 10.4154 13.1471 10.3285C12.8683 9.90197 12.4793 9.64128 11.9815 9.54742C11.8486 9.52237 11.0299 9.52336 10.9181 9.5487ZM5.04555 11.1379C4.98057 11.1551 4.90612 11.1788 4.88013 11.1906C4.85413 11.2024 4.79033 11.2301 4.73834 11.2522C4.60132 11.3104 4.37504 11.4729 4.25901 11.5964C4.15049 11.7119 3.96227 11.9874 3.94045 12.0627C3.93306 12.0882 3.90231 12.1665 3.87213 12.2366L3.81721 12.3641L3.81034 17.6374C3.80549 21.3371 3.81095 22.9245 3.82861 22.957C3.85351 23.0028 3.87481 23.0033 5.77179 22.9974C7.26877 22.9927 7.69386 22.9851 7.7084 22.9626C7.71865 22.9468 7.72721 20.6115 7.72742 17.7731C7.72773 13.2109 7.72354 12.5913 7.69124 12.4303C7.6259 12.1045 7.48098 11.8191 7.2751 11.6107C7.16247 11.4968 6.96418 11.3326 6.93911 11.3326C6.93043 11.3326 6.88369 11.3086 6.8352 11.2793C6.78673 11.25 6.68324 11.207 6.60526 11.1836C6.52727 11.1603 6.43903 11.1321 6.40918 11.121C6.31919 11.0875 5.18238 11.1016 5.04555 11.1379ZM0.00954781 14.8421C0.00255277 14.8599 0.000212797 14.9095 0.00439564 14.9522L0.011958 15.0297L0.266001 15.0363L0.520044 15.0429V14.9262V14.8095H0.271176C0.0792379 14.8095 0.0193787 14.8169 0.00954781 14.8421ZM0.0247195 15.1445C0.0090515 15.163 -0.000117663 15.1969 0.00434877 15.2198C0.0112965 15.2554 0.0419939 15.2625 0.213089 15.2683C0.469542 15.2771 0.520044 15.2648 0.520044 15.194C0.520044 15.1219 0.483863 15.1108 0.249246 15.1108C0.106698 15.1108 0.045421 15.12 0.0247195 15.1445ZM0.02687 15.3737C-0.0171562 15.4257 0.021576 15.4353 0.275855 15.4353C0.46881 15.4353 0.520044 15.4286 0.520044 15.403C0.520044 15.3548 0.465525 15.3426 0.249246 15.3426C0.114071 15.3426 0.0450193 15.3523 0.02687 15.3737Z" fill="#17876E"/>
</svg>
