<svg width="33" height="34" viewBox="0 0 33 34" fill="none" xmlns="http://www.w3.org/2000/svg">
<path d="M13.7908 33.3333C13.2816 33.3333 12.8348 33.1667 12.4503 32.8333C12.0662 32.5 11.837 32.0833 11.7628 31.5833L11.2212 28.0554C10.749 27.8796 10.2652 27.6482 9.76993 27.3613C9.27465 27.074 8.82785 26.7731 8.42951 26.4583L5.17952 27.9304C4.68896 28.1435 4.19827 28.1667 3.70743 28C3.2166 27.8333 2.83229 27.5232 2.55452 27.0696L0.290765 23.0417C0.0129875 22.5881 -0.0657625 22.1113 0.0545153 21.6113C0.175071 21.1113 0.443682 20.6992 0.860348 20.375L3.81868 18.1804C3.77229 17.949 3.74452 17.6968 3.73535 17.4238C3.7259 17.1504 3.72118 16.8981 3.72118 16.6667C3.72118 16.4353 3.7259 16.1829 3.73535 15.9096C3.74452 15.6365 3.77229 15.3843 3.81868 15.1529L0.860348 12.9583C0.443682 12.6342 0.175071 12.2221 0.0545153 11.7221C-0.0657625 11.2221 0.0129875 10.7453 0.290765 10.2917L2.55452 6.26375C2.83229 5.81014 3.2166 5.5 3.70743 5.33333C4.19827 5.16667 4.68896 5.18986 5.17952 5.40292L8.42951 6.875C8.82785 6.56028 9.27702 6.25931 9.77702 5.97208C10.277 5.68514 10.7584 5.46292 11.2212 5.30542L11.7628 1.75C11.837 1.25 12.0662 0.833333 12.4503 0.5C12.8348 0.166667 13.2816 0 13.7908 0H18.3741C18.8833 0 19.3301 0.166667 19.7145 0.5C20.0987 0.833333 20.3278 1.25 20.402 1.75L20.9437 5.27792C21.4159 5.45375 21.9042 5.68056 22.4087 5.95833C22.9134 6.23611 23.3556 6.54167 23.7353 6.875L26.9853 5.40292C27.4759 5.18986 27.962 5.16667 28.4437 5.33333C28.9251 5.5 29.3047 5.81014 29.5824 6.26375L31.8741 10.2917C32.1519 10.7453 32.2306 11.2268 32.1104 11.7363C31.9898 12.2454 31.7212 12.6528 31.3045 12.9583L28.3462 15.0971C28.3926 15.3471 28.4204 15.6088 28.4295 15.8821C28.439 16.1551 28.4437 16.4167 28.4437 16.6667C28.4437 16.9167 28.439 17.1736 28.4295 17.4375C28.4204 17.7014 28.388 17.9583 28.3324 18.2083L31.2908 20.375C31.7074 20.6806 31.9759 21.0879 32.0962 21.5971C32.2167 22.1065 32.1381 22.5881 31.8603 23.0417L29.5824 27.0696C29.3047 27.5232 28.9204 27.8333 28.4295 28C27.939 28.1667 27.4483 28.1435 26.9574 27.9304L23.7353 26.4583C23.337 26.7731 22.8926 27.0786 22.402 27.375C21.9112 27.6714 21.4251 27.8982 20.9437 28.0554L20.402 31.5833C20.3278 32.0833 20.0987 32.5 19.7145 32.8333C19.3301 33.1667 18.8833 33.3333 18.3741 33.3333H13.7908ZM14.3045 30.5554H17.8462L18.4295 25.9721C19.3279 25.7499 20.1728 25.4096 20.9645 24.9513C21.7562 24.4929 22.476 23.9397 23.1241 23.2917L27.4437 25.1388L29.0962 22.1946L25.2908 19.375C25.411 18.9306 25.5037 18.4838 25.5687 18.0346C25.6334 17.5857 25.6658 17.1297 25.6658 16.6667C25.6658 16.2036 25.638 15.7476 25.5824 15.2988C25.5269 14.8496 25.4297 14.4028 25.2908 13.9583L29.0962 11.1388L27.4437 8.19458L23.1241 10.0554C22.4944 9.36097 21.7884 8.78 21.0062 8.3125C20.2237 7.845 19.3648 7.52792 18.4295 7.36125L17.8603 2.77792H14.3187L13.7353 7.36125C12.8187 7.56486 11.9645 7.89583 11.1728 8.35417C10.3812 8.8125 9.67049 9.375 9.04077 10.0417L4.72118 8.19458L3.06868 11.1388L6.8741 13.9446C6.75382 14.3982 6.66118 14.8472 6.59618 15.2917C6.53146 15.7361 6.4991 16.1944 6.4991 16.6667C6.4991 17.1297 6.53146 17.5835 6.59618 18.0279C6.66118 18.4724 6.75382 18.9214 6.8741 19.375L3.06868 22.1946L4.72118 25.1388L9.04077 23.2779C9.68882 23.9351 10.4087 24.4929 11.2003 24.9513C11.992 25.4096 12.837 25.7499 13.7353 25.9721L14.3045 30.5554ZM16.1103 22.2221C17.6473 22.2221 18.9574 21.6804 20.0408 20.5971C21.1241 19.5138 21.6658 18.2036 21.6658 16.6667C21.6658 15.1297 21.1241 13.8196 20.0408 12.7363C18.9574 11.6529 17.6473 11.1113 16.1103 11.1113C14.564 11.1113 13.2515 11.6529 12.1728 12.7363C11.094 13.8196 10.5545 15.1297 10.5545 16.6667C10.5545 18.2036 11.094 19.5138 12.1728 20.5971C13.2515 21.6804 14.564 22.2221 16.1103 22.2221Z" fill="#E8EAED"/>
</svg>
