<svg width="34" height="34" viewBox="0 0 34 34" fill="none" xmlns="http://www.w3.org/2000/svg">
<path d="M16.7508 26.4721C17.2411 26.4721 17.6551 26.3029 17.9929 25.9646C18.331 25.626 18.5 25.2115 18.5 24.7213C18.5 24.2313 18.3307 23.8172 17.9921 23.4792C17.6538 23.1411 17.2394 22.9721 16.7492 22.9721C16.2589 22.9721 15.8449 23.1414 15.5071 23.48C15.169 23.8183 15 24.2326 15 24.7229C15 25.2132 15.1693 25.6274 15.5079 25.9654C15.8463 26.3032 16.2606 26.4721 16.7508 26.4721ZM16.6742 33.3333C14.3733 33.3333 12.2113 32.8958 10.1879 32.0208C8.16459 31.1458 6.3982 29.9538 4.88875 28.4446C3.37958 26.9351 2.1875 25.1681 1.3125 23.1433C0.4375 21.1186 0 18.9551 0 16.6529C0 14.3507 0.4375 12.1871 1.3125 10.1621C2.1875 8.13736 3.37958 6.375 4.88875 4.875C6.3982 3.375 8.16528 2.1875 10.19 1.3125C12.2147 0.4375 14.3782 0 16.6804 0C18.9826 0 21.1463 0.4375 23.1713 1.3125C25.196 2.1875 26.9583 3.375 28.4583 4.875C29.9583 6.375 31.1458 8.13889 32.0208 10.1667C32.8958 12.1944 33.3333 14.3586 33.3333 16.6592C33.3333 18.96 32.8958 21.1221 32.0208 23.1454C31.1458 25.1688 29.9583 26.9333 28.4583 28.4392C26.9583 29.945 25.1944 31.1372 23.1667 32.0158C21.1389 32.8942 18.9747 33.3333 16.6742 33.3333ZM16.6804 30.5554C20.5415 30.5554 23.8193 29.2036 26.5138 26.5C29.2082 23.7964 30.5554 20.514 30.5554 16.6529C30.5554 12.7918 29.21 9.51403 26.5192 6.81958C23.8281 4.12514 20.5439 2.77792 16.6667 2.77792C12.8147 2.77792 9.53695 4.12333 6.83333 6.81417C4.12972 9.50528 2.77792 12.7894 2.77792 16.6667C2.77792 20.5186 4.12972 23.7964 6.83333 26.5C9.53695 29.2036 12.8193 30.5554 16.6804 30.5554ZM16.7992 9.27792C17.5906 9.27792 18.2849 9.5232 18.8821 10.0138C19.4793 10.5046 19.7779 11.1268 19.7779 11.8804C19.7779 12.5713 19.5706 13.1753 19.1558 13.6925C18.7408 14.2097 18.2722 14.6965 17.75 15.1529C17.1111 15.6899 16.5532 16.286 16.0763 16.9413C15.5996 17.5965 15.3613 18.3338 15.3613 19.1529C15.3613 19.4863 15.4876 19.7571 15.7404 19.9654C15.9932 20.1738 16.2881 20.2779 16.625 20.2779C16.9861 20.2779 17.2882 20.1575 17.5313 19.9167C17.7743 19.6758 17.9306 19.3749 18 19.0138C18.0925 18.4304 18.324 17.905 18.6946 17.4375C19.0649 16.97 19.4836 16.5392 19.9508 16.145C20.6225 15.5669 21.1829 14.9075 21.6321 14.1667C22.081 13.4258 22.3054 12.6146 22.3054 11.7329C22.3054 10.3276 21.7661 9.16431 20.6875 8.24292C19.6089 7.32181 18.3385 6.86125 16.8763 6.86125C15.8663 6.86125 14.896 7.07417 13.9654 7.5C13.0349 7.92583 12.2918 8.56014 11.7363 9.40292C11.5418 9.69903 11.4607 10.0161 11.4929 10.3542C11.5254 10.6922 11.6757 10.9585 11.9438 11.1529C12.2846 11.3751 12.6378 11.4446 13.0033 11.3613C13.3686 11.2779 13.6731 11.0696 13.9167 10.7363C14.2547 10.2657 14.6772 9.905 15.1842 9.65417C15.6911 9.40333 16.2294 9.27792 16.7992 9.27792Z" fill="#E8EAED"/>
</svg>
