<svg width="27" height="30" viewBox="0 0 27 30" fill="none" xmlns="http://www.w3.org/2000/svg">
<path d="M0 26.5275V10.6942C0 10.2544 0.0983334 9.83778 0.295 9.44417C0.491945 9.05083 0.764028 8.72681 1.11125 8.47208L11.6667 0.555417C12.1514 0.18514 12.7054 0 13.3288 0C13.9521 0 14.5092 0.18514 15 0.555417L25.5554 8.47208C25.9026 8.72681 26.1747 9.05083 26.3717 9.44417C26.5683 9.83778 26.6667 10.2544 26.6667 10.6942V26.5275C26.6667 27.2914 26.3947 27.9454 25.8508 28.4896C25.3067 29.0335 24.6526 29.3054 23.8888 29.3054H18.0554C17.6621 29.3054 17.3322 29.1724 17.0658 28.9062C16.7997 28.6399 16.6667 28.31 16.6667 27.9167V19.0275C16.6667 18.6342 16.5336 18.3043 16.2675 18.0379C16.0011 17.7718 15.6712 17.6388 15.2779 17.6388H11.3888C10.9954 17.6388 10.6656 17.7718 10.3992 18.0379C10.1331 18.3043 10 18.6342 10 19.0275V27.9167C10 28.31 9.86695 28.6399 9.60083 28.9062C9.33444 29.1724 9.00458 29.3054 8.61125 29.3054H2.77792C2.01403 29.3054 1.36 29.0335 0.815833 28.4896C0.271945 27.9454 0 27.2914 0 26.5275Z" fill="#E8EAED"/>
</svg>
