<svg width="33" height="33" viewBox="0 0 33 33" fill="none" xmlns="http://www.w3.org/2000/svg">
<path d="M9.77792 32.5H2.77792C2.02792 32.5 1.37736 32.2246 0.82625 31.6737C0.275417 31.1226 0 30.4721 0 29.7221V22.7221C1.25917 22.6296 2.34708 22.169 3.26375 21.3404C4.18042 20.5115 4.63875 19.4814 4.63875 18.25C4.63875 17.0186 4.18042 15.9885 3.26375 15.1596C2.34708 14.331 1.25917 13.8704 0 13.7779V6.77792C0 6.02792 0.275417 5.37736 0.82625 4.82625C1.37736 4.27542 2.02792 4 2.77792 4H9.91667C10.1203 2.87028 10.6203 1.92125 11.4167 1.15292C12.2131 0.384305 13.176 0 14.3054 0C15.4351 0 16.3982 0.384305 17.1946 1.15292C17.9907 1.92125 18.4907 2.87028 18.6946 4H25.7221C26.4721 4 27.1226 4.27542 27.6737 4.82625C28.2246 5.37736 28.5 6.02792 28.5 6.77792V13.8054C29.6297 14.0093 30.5649 14.5279 31.3054 15.3612C32.0463 16.1946 32.4167 17.176 32.4167 18.3054C32.4167 19.4351 32.0463 20.3843 31.3054 21.1529C30.5649 21.9213 29.6297 22.4074 28.5 22.6113V29.7221C28.5 30.4721 28.2246 31.1226 27.6737 31.6737C27.1226 32.2246 26.4721 32.5 25.7221 32.5H18.7221C18.6296 31.1481 18.1551 30.0369 17.2987 29.1667C16.4421 28.2964 15.4258 27.8612 14.25 27.8612C13.0742 27.8612 12.0579 28.2964 11.2013 29.1667C10.3449 30.0369 9.87042 31.1481 9.77792 32.5ZM2.77792 29.7221H7.56958C8.25458 27.9815 9.25819 26.7732 10.5804 26.0971C11.9024 25.4212 13.1246 25.0833 14.2471 25.0833C15.3693 25.0833 16.5925 25.4212 17.9167 26.0971C19.2408 26.7732 20.2454 27.9815 20.9304 29.7221H25.7221V19.8613H28.0833C28.5278 19.8613 28.8982 19.7131 29.1946 19.4167C29.4907 19.1203 29.6388 18.7499 29.6388 18.3054C29.6388 17.861 29.4907 17.4907 29.1946 17.1946C28.8982 16.8982 28.5278 16.75 28.0833 16.75H25.7221V6.77792H15.8613V4.33333C15.8613 3.88889 15.7131 3.51847 15.4167 3.22208C15.1203 2.92597 14.7499 2.77792 14.3054 2.77792C13.861 2.77792 13.4907 2.92597 13.1946 3.22208C12.8982 3.51847 12.75 3.88889 12.75 4.33333V6.77792H2.77792V11.6112C4.16958 12.1262 5.29056 12.989 6.14083 14.1996C6.99139 15.4101 7.41667 16.7624 7.41667 18.2563C7.41667 19.7243 6.99069 21.0649 6.13875 22.2779C5.28708 23.4907 4.16681 24.361 2.77792 24.8887V29.7221Z" fill="#E8EAED"/>
</svg>
