<svg width="28" height="37" viewBox="0 0 28 37" fill="none" xmlns="http://www.w3.org/2000/svg">
<path d="M12.7781 36.0833C11.982 36.0833 11.2205 35.9167 10.4935 35.5833C9.7666 35.25 9.15785 34.7685 8.66729 34.1388L0.292294 23.4863C0.088405 23.2363 -0.00881728 22.9515 0.00062717 22.6321C0.00979384 22.3126 0.125488 22.0418 0.347711 21.8196L0.458961 21.7083C0.903405 21.2361 1.44507 20.949 2.08396 20.8471C2.72285 20.7454 3.32007 20.8565 3.87563 21.1804L7.65313 23.2779V8.58333C7.65313 8.18972 7.78674 7.85986 8.05396 7.59375C8.32118 7.32764 8.65215 7.19458 9.04688 7.19458C9.44188 7.19458 9.77368 7.32764 10.0423 7.59375C10.3106 7.85986 10.4448 8.18972 10.4448 8.58333V25.6667C10.4448 26.1944 10.2156 26.5903 9.75729 26.8542C9.29896 27.1181 8.83841 27.1204 8.37563 26.8613L5.09771 25.0833L10.8756 32.4304C11.1162 32.7176 11.4009 32.9353 11.7298 33.0833C12.0587 33.2314 12.4081 33.3054 12.7781 33.3054H21.5423C22.5515 33.3054 23.4056 32.956 24.1048 32.2571C24.8037 31.5579 25.1531 30.7038 25.1531 29.6946V22.75C25.1531 22.1203 24.9402 21.5925 24.5144 21.1667C24.0885 20.7408 23.5608 20.5279 22.931 20.5279H15.1673C14.7737 20.5279 14.4438 20.3943 14.1777 20.1271C13.9113 19.8599 13.7781 19.5289 13.7781 19.1342C13.7781 18.7392 13.9113 18.4097 14.1777 18.1458C14.4438 17.8819 14.7737 17.75 15.1673 17.75H22.931C24.3199 17.75 25.5005 18.2361 26.4727 19.2083C27.4449 20.1806 27.931 21.3611 27.931 22.75V29.6946C27.931 31.4724 27.3106 32.9815 26.0698 34.2221C24.8292 35.4629 23.3201 36.0833 21.5423 36.0833H12.7781ZM9.02521 0C11.416 0 13.4495 0.837639 15.1256 2.51292C16.8015 4.18847 17.6394 6.22292 17.6394 8.61625C17.6394 9.21458 17.5745 9.79847 17.4448 10.3679C17.3154 10.9374 17.1302 11.5046 16.8894 12.0696C16.7874 12.301 16.6184 12.4583 16.3823 12.5417C16.1462 12.625 15.9031 12.6065 15.6531 12.4862C15.4031 12.3657 15.2342 12.1712 15.1465 11.9029C15.0584 11.6343 15.0745 11.3657 15.1948 11.0971C15.3615 10.6835 15.4865 10.2699 15.5698 9.85625C15.6531 9.44292 15.6948 9.02639 15.6948 8.60667C15.6948 6.75611 15.0467 5.18306 13.7506 3.8875C12.4542 2.59222 10.8801 1.94458 9.02813 1.94458C7.17646 1.94458 5.60243 2.59264 4.30604 3.88875C3.00966 5.18514 2.36146 6.75931 2.36146 8.61125C2.36146 9.04569 2.40091 9.47375 2.47979 9.89542C2.55841 10.3171 2.67174 10.7269 2.81979 11.125C2.94035 11.3936 2.9566 11.6575 2.86854 11.9167C2.78049 12.1758 2.61146 12.3657 2.36146 12.4862C2.11146 12.6065 1.86841 12.6226 1.63229 12.5346C1.39618 12.4468 1.22729 12.2871 1.12563 12.0554C0.902016 11.5179 0.727988 10.9622 0.603544 10.3883C0.479377 9.81417 0.417294 9.22181 0.417294 8.61125C0.417294 6.21931 1.2541 4.18611 2.92771 2.51167C4.6016 0.837223 6.6341 0 9.02521 0ZM9.02813 3.61125C10.4092 3.61125 11.5879 4.09931 12.564 5.07542C13.5401 6.05153 14.0281 7.23014 14.0281 8.61125C14.0281 8.8518 14.0073 9.08792 13.9656 9.31958C13.924 9.55097 13.8753 9.78236 13.8198 10.0138C13.7315 10.2979 13.5659 10.5056 13.3231 10.6367C13.0803 10.7678 12.8292 10.7871 12.5698 10.6946C12.3106 10.6018 12.114 10.4351 11.9798 10.1946C11.8454 9.95375 11.8245 9.70375 11.9173 9.44458C11.9451 9.36125 11.9867 9.08347 12.0423 8.61125C12.0423 7.77097 11.7428 7.05153 11.144 6.45292C10.5451 5.85458 9.82507 5.55542 8.98396 5.55542C8.14313 5.55542 7.4241 5.85181 6.82688 6.44458C6.22965 7.03708 5.93104 7.75931 5.93104 8.61125C5.93104 8.76153 5.94257 8.91944 5.96563 9.085C5.98896 9.25056 6.02841 9.40278 6.08396 9.54167C6.14868 9.7825 6.12091 10.0096 6.00063 10.2229C5.88007 10.4362 5.69952 10.5749 5.45896 10.6388C5.19952 10.7038 4.96104 10.6853 4.74354 10.5833C4.52604 10.4814 4.37091 10.3008 4.27813 10.0417C4.18563 9.81028 4.1209 9.57653 4.08396 9.34042C4.04674 9.10431 4.02813 8.86125 4.02813 8.61125C4.04674 7.23153 4.54146 6.0532 5.51229 5.07625C6.48313 4.09958 7.65507 3.61125 9.02813 3.61125Z" fill="#E8EAED"/>
</svg>
