<svg width="34" height="32" viewBox="0 0 34 32" fill="none" xmlns="http://www.w3.org/2000/svg">
<path d="M6.66667 26.6667L2.36125 30.9721C1.92597 31.4074 1.42361 31.5056 0.854167 31.2667C0.284722 31.0275 0 30.6007 0 29.9862V2.77792C0 2.02792 0.275417 1.37736 0.82625 0.826251C1.37736 0.275417 2.02792 0 2.77792 0H30.5554C31.3054 0 31.956 0.275417 32.5071 0.826251C33.0579 1.37736 33.3333 2.02792 33.3333 2.77792V23.8887C33.3333 24.6387 33.0579 25.2893 32.5071 25.8404C31.956 26.3913 31.3054 26.6667 30.5554 26.6667H6.66667ZM5.47208 23.8887H30.5554V2.77792H2.77792V26.7362L5.47208 23.8887ZM8.05542 20.0279H18.4167C18.8103 20.0279 19.1401 19.8943 19.4063 19.6271C19.6724 19.3599 19.8054 19.0289 19.8054 18.6342C19.8054 18.2392 19.6724 17.9097 19.4063 17.6458C19.1401 17.3819 18.8103 17.25 18.4167 17.25H8.05542C7.66208 17.25 7.33222 17.3836 7.06583 17.6508C6.79972 17.9178 6.66667 18.2488 6.66667 18.6438C6.66667 19.0388 6.79972 19.3682 7.06583 19.6321C7.33222 19.896 7.66208 20.0279 8.05542 20.0279ZM8.05542 14.75H25.2779C25.6713 14.75 26.0011 14.6164 26.2675 14.3492C26.5336 14.0822 26.6667 13.7512 26.6667 13.3562C26.6667 12.9613 26.5336 12.6318 26.2675 12.3679C26.0011 12.104 25.6713 11.9721 25.2779 11.9721H8.05542C7.66208 11.9721 7.33222 12.1057 7.06583 12.3729C6.79972 12.6401 6.66667 12.9711 6.66667 13.3658C6.66667 13.7608 6.79972 14.0903 7.06583 14.3542C7.33222 14.6181 7.66208 14.75 8.05542 14.75ZM8.05542 9.47208H25.2779C25.6713 9.47208 26.0011 9.33861 26.2675 9.07167C26.5336 8.80444 26.6667 8.47333 26.6667 8.07833C26.6667 7.68361 26.5336 7.3543 26.2675 7.09042C26.0011 6.82653 25.6713 6.69458 25.2779 6.69458H8.05542C7.66208 6.69458 7.33222 6.82806 7.06583 7.095C6.79972 7.36222 6.66667 7.69333 6.66667 8.08833C6.66667 8.48306 6.79972 8.81236 7.06583 9.07625C7.33222 9.34014 7.66208 9.47208 8.05542 9.47208Z" fill="#E8EAED"/>
</svg>
