<svg width="24" height="19" viewBox="0 0 24 19" fill="none" xmlns="http://www.w3.org/2000/svg">
<path fill-rule="evenodd" clip-rule="evenodd" d="M1.88091 0.0472741C1.19839 0.211095 0.559753 0.727628 0.24253 1.3725C-0.00932926 1.88442 4.49975e-05 1.7219 4.49975e-05 5.57853C4.49975e-05 8.87386 0.00365587 9.06938 0.0692014 9.32246C0.158054 9.66559 0.284696 9.92548 0.509928 10.227C0.844878 10.6755 1.42654 11.0343 1.99862 11.1454C2.18074 11.1808 2.29512 11.2197 2.28611 11.2432C2.27783 11.2646 2.05588 11.9306 1.79286 12.723C1.52984 13.5155 1.22473 14.4307 1.11487 14.7568C1.00497 15.0829 0.923007 15.3575 0.932746 15.3671C0.942448 15.3767 1.05253 15.2869 1.17735 15.1676C1.3022 15.0482 1.65874 14.725 1.96969 14.4492C2.28064 14.1734 2.54326 13.9393 2.55329 13.9291C2.56332 13.9188 2.82594 13.6848 3.13689 13.4089C3.44784 13.133 3.80894 12.8091 3.93934 12.689C4.06974 12.569 4.49478 12.1872 4.88386 11.8405L5.59129 11.2102L10.3551 11.1922L15.1189 11.1742L15.356 11.0898C16.1708 10.8 16.7234 10.2558 16.9895 9.4812L17.0886 9.19304L17.0987 5.68869C17.1086 2.26862 17.1071 2.17691 17.0345 1.87506C16.8289 1.02008 16.2512 0.406974 15.3378 0.0742532C15.1633 0.0107132 14.8725 0.00754372 8.62637 0.00156433C3.04844 -0.0037667 2.06584 0.00289698 1.88091 0.0472741ZM18.4753 3.63358C18.4656 3.66016 18.4525 4.95434 18.4463 6.50952C18.4353 9.27268 18.4332 9.34368 18.3565 9.62529C18.0033 10.9212 17.0519 11.9348 15.8064 12.3419C15.2481 12.5244 15.2345 12.5249 10.9195 12.5249C7.44695 12.5249 6.89381 12.532 6.89381 12.5766C6.89381 12.7304 7.01881 13.175 7.12557 13.4008C7.4204 14.0245 7.94954 14.4876 8.62637 14.7144L8.91817 14.8122L13.6629 14.8302L18.4076 14.8482L20.0991 16.3611C21.0293 17.1932 22.0765 18.1298 22.4262 18.4425C22.7758 18.7552 23.067 19.006 23.0732 18.9999C23.0794 18.9938 23.0451 18.8757 22.997 18.7376C22.7398 17.9986 21.7013 14.8556 21.7111 14.8459C21.7174 14.8397 21.8371 14.8108 21.977 14.7818C22.5217 14.6686 22.9135 14.4601 23.2797 14.0882C23.5359 13.8281 23.6484 13.6675 23.7892 13.3609C24.0026 12.8962 23.9992 12.962 23.9999 9.20781C24.0005 5.89148 23.9979 5.75431 23.9282 5.48539C23.7033 4.61683 23.0548 3.9547 22.1766 3.69683C21.9149 3.62 21.8305 3.61589 20.1982 3.60091C18.7943 3.58801 18.49 3.59381 18.4753 3.63358ZM3.8421 4.63523C3.59702 4.75716 3.40549 4.94277 3.27571 5.18415C3.20608 5.31364 3.19244 5.39461 3.19208 5.68105C3.19153 6.08091 3.26247 6.26429 3.51452 6.5146C3.75022 6.74866 4.00645 6.84995 4.3588 6.84836C4.7222 6.84671 4.99606 6.72906 5.22162 6.47775C5.44612 6.22762 5.51896 6.03927 5.52275 5.69906C5.52545 5.45844 5.51006 5.37732 5.42941 5.20745C5.31167 4.95949 5.10621 4.75007 4.86664 4.63386C4.72935 4.56726 4.61409 4.54403 4.37704 4.53506C4.0906 4.52425 4.0499 4.53185 3.8421 4.63523ZM8.22515 4.57454C7.72963 4.77413 7.43506 5.18555 7.43663 5.67583C7.43816 6.15382 7.67087 6.5298 8.09183 6.73443C8.6894 7.02497 9.37622 6.7899 9.67379 6.19297C9.90135 5.73648 9.81283 5.22226 9.44392 4.85795C9.21285 4.62976 9.0087 4.54821 8.64461 4.53863C8.46435 4.53387 8.28876 4.54893 8.22515 4.57454ZM12.3825 4.62929C11.4755 5.06042 11.46 6.29732 12.3562 6.73285C12.5687 6.83612 12.6368 6.85153 12.875 6.8502C13.3538 6.84757 13.7295 6.61787 13.9375 6.20072C14.1543 5.76581 14.0832 5.27232 13.7522 4.91461C13.4999 4.64197 13.2955 4.5499 12.9122 4.53607C12.6322 4.52598 12.5808 4.53499 12.3825 4.62929Z" fill="#17876E"/>
</svg>
