<svg width="24" height="21" viewBox="0 0 24 21" fill="none" xmlns="http://www.w3.org/2000/svg">
<path fill-rule="evenodd" clip-rule="evenodd" d="M1.88091 0.0522504C1.19839 0.233316 0.559753 0.80422 0.24253 1.51698C-0.00932926 2.08278 4.49975e-05 1.90315 4.49975e-05 6.16575C4.49975e-05 9.80795 0.00365587 10.0241 0.0692014 10.3038C0.158054 10.683 0.284696 10.9703 0.509928 11.3036C0.844878 11.7993 1.42654 12.1958 1.99862 12.3186C2.18074 12.3577 2.29512 12.4007 2.28611 12.4267C2.27783 12.4504 2.05588 13.1864 1.79286 14.0623C1.52984 14.9382 1.22473 15.9497 1.11487 16.3101C1.00497 16.6705 0.923007 16.9741 0.932746 16.9847C0.942448 16.9953 1.05253 16.8961 1.17735 16.7642C1.3022 16.6323 1.65874 16.2749 1.96969 15.9701C2.28064 15.6653 2.54326 15.4066 2.55329 15.3953C2.56332 15.384 2.82594 15.1253 3.13689 14.8203C3.44784 14.5154 3.80894 14.1574 3.93934 14.0247C4.06974 13.8921 4.49478 13.4701 4.88386 13.0869L5.59129 12.3902L10.3551 12.3703L15.1189 12.3504L15.356 12.2572C16.1708 11.9368 16.7234 11.3354 16.9895 10.4792L17.0886 10.1607L17.0987 6.2875C17.1086 2.50742 17.1071 2.40606 17.0345 2.07243C16.8289 1.12745 16.2512 0.449813 15.3378 0.0820693C15.1633 0.0118409 14.8725 0.00833779 8.62637 0.00172899C3.04844 -0.00416319 2.06584 0.00320193 1.88091 0.0522504ZM18.4753 4.01606C18.4656 4.04544 18.4525 5.47585 18.4463 7.19473C18.4353 10.2488 18.4332 10.3272 18.3565 10.6385C18.0033 12.0708 17.0519 13.1911 15.8064 13.6411C15.2481 13.8428 15.2345 13.8433 10.9195 13.8433C7.44695 13.8433 6.89381 13.8512 6.89381 13.9005C6.89381 14.0704 7.01881 14.5618 7.12557 14.8114C7.4204 15.5008 7.94954 16.0127 8.62637 16.2633L8.91817 16.3714L13.6629 16.3913L18.4076 16.4112L20.0991 18.0833C21.0294 19.003 22.0765 20.0382 22.4262 20.3838C22.7758 20.7294 23.067 21.0066 23.0732 20.9999C23.0794 20.9931 23.0451 20.8626 22.997 20.7099C22.7398 19.8931 21.7013 16.4193 21.7111 16.4087C21.7174 16.4018 21.8371 16.3699 21.977 16.3377C22.5217 16.2127 22.9135 15.9822 23.2797 15.5711C23.5359 15.2837 23.6484 15.1062 23.7892 14.7673C24.0026 14.2536 23.9992 14.3264 23.9999 10.1771C24.0005 6.51164 23.9979 6.36003 23.9282 6.0628C23.7033 5.10281 23.0548 4.37098 22.1766 4.08597C21.9149 4.00105 21.8305 3.99651 20.1982 3.97995C18.7943 3.9657 18.49 3.9721 18.4753 4.01606ZM3.8421 5.12315C3.59702 5.25792 3.40549 5.46307 3.27571 5.72985C3.20608 5.87297 3.19244 5.96247 3.19208 6.27905C3.19153 6.72101 3.26247 6.92369 3.51452 7.20035C3.75022 7.45904 4.00645 7.571 4.3588 7.56924C4.7222 7.56741 4.99606 7.43739 5.22162 7.15962C5.44612 6.88316 5.51896 6.67499 5.52275 6.29896C5.52545 6.03302 5.51006 5.94336 5.42941 5.75561C5.31167 5.48154 5.10621 5.25007 4.86664 5.12164C4.72935 5.04803 4.61409 5.02235 4.37704 5.01243C4.0906 5.00049 4.0499 5.00889 3.8421 5.12315ZM8.22515 5.05607C7.72963 5.27667 7.43506 5.7314 7.43663 6.27328C7.43816 6.80159 7.67087 7.21715 8.09183 7.44332C8.6894 7.76444 9.37622 7.50463 9.67379 6.84486C9.90135 6.34033 9.81283 5.77197 9.44392 5.36931C9.21285 5.1171 9.0087 5.02697 8.64461 5.01638C8.46435 5.01112 8.28876 5.02776 8.22515 5.05607ZM12.3825 5.11658C11.4755 5.59309 11.46 6.9602 12.3562 7.44157C12.5687 7.55571 12.6368 7.57275 12.875 7.57127C13.3538 7.56837 13.7295 7.31449 13.9375 6.85342C14.1543 6.37273 14.0832 5.82731 13.7522 5.43193C13.4999 5.1306 13.2955 5.02884 12.9122 5.01355C12.6322 5.0024 12.5808 5.01235 12.3825 5.11658Z" fill="#C26F65"/>
</svg>
