<svg width="32" height="34" viewBox="0 0 32 34" fill="none" xmlns="http://www.w3.org/2000/svg">
<path d="M15.4513 22.2638C17.3263 22.2638 18.9165 21.6658 20.2221 20.47C21.5276 19.2742 22.1804 17.8258 22.1804 16.125C22.1804 14.6342 21.7006 13.3633 20.7408 12.3125C19.7811 11.2617 18.6175 10.7363 17.25 10.7363C16.0369 10.7363 15.0022 11.1297 14.1458 11.9167C13.2894 12.7036 12.8613 13.6629 12.8613 14.7946C12.8613 15.2835 12.9468 15.771 13.1179 16.2571C13.2893 16.7432 13.5788 17.1621 13.9863 17.5138C14.3379 17.8471 14.7038 17.985 15.0838 17.9275C15.4635 17.8703 15.7719 17.7151 16.0092 17.4621C16.2467 17.2093 16.3832 16.9047 16.4188 16.5483C16.4543 16.1919 16.3147 15.861 16 15.5554C15.8889 15.4443 15.801 15.3332 15.7363 15.2221C15.6713 15.111 15.6388 14.9814 15.6388 14.8333C15.6388 14.4722 15.7824 14.169 16.0696 13.9238C16.3565 13.6782 16.75 13.5554 17.25 13.5554C17.8611 13.5554 18.3796 13.8032 18.8054 14.2988C19.2315 14.794 19.4446 15.4167 19.4446 16.1667C19.4446 17.1053 19.0672 17.9001 18.3125 18.5513C17.5578 19.2024 16.6203 19.5279 15.5 19.5279C14.1167 19.5279 12.9468 18.9769 11.9904 17.875C11.0337 16.7731 10.5554 15.4119 10.5554 13.7917C10.5554 13.1894 10.6365 12.6032 10.7988 12.0329C10.9607 11.4624 11.2038 10.9236 11.5279 10.4167C11.7315 10.0742 11.8288 9.71542 11.8196 9.34042C11.8101 8.96542 11.6665 8.63903 11.3888 8.36125C11.111 8.08347 10.7824 7.94681 10.4029 7.95125C10.0232 7.95597 9.71764 8.1157 9.48625 8.43042C8.91208 9.18986 8.47681 10.0232 8.18042 10.9304C7.88431 11.8379 7.73625 12.7778 7.73625 13.75C7.73625 16.1172 8.48625 18.1281 9.98625 19.7825C11.4865 21.4367 13.3082 22.2638 15.4513 22.2638ZM5 26.1667C3.41667 24.7222 2.1875 23.0347 1.3125 21.1042C0.4375 19.1736 0 17.1389 0 15C0 10.8333 1.45833 7.29167 4.375 4.375C7.29167 1.45833 10.8333 0 15 0C18.4722 0 21.5486 1.02083 24.2292 3.0625C26.9097 5.10417 28.6528 7.76389 29.4583 11.0417L31.7083 19.9446C31.8286 20.3796 31.7499 20.7754 31.4721 21.1321C31.1943 21.4885 30.824 21.6667 30.3612 21.6667H26.6667V27.2221C26.6667 27.986 26.3947 28.64 25.8508 29.1842C25.3067 29.7281 24.6526 30 23.8888 30H20V31.9446C20 32.3379 19.8664 32.6678 19.5992 32.9342C19.3322 33.2003 19.0012 33.3333 18.6063 33.3333C18.2113 33.3333 17.8818 33.2003 17.6179 32.9342C17.354 32.6678 17.2221 32.3379 17.2221 31.9446V28.6113C17.2221 28.2176 17.3553 27.8878 17.6217 27.6217C17.8878 27.3553 18.2176 27.2221 18.6112 27.2221H23.8888V20.2779C23.8888 19.8843 24.0219 19.5544 24.2883 19.2883C24.5544 19.0219 24.8843 18.8888 25.2779 18.8888H28.5554L26.7779 11.7363C26.1204 9.09736 24.6944 6.94458 22.5 5.27792C20.3056 3.61125 17.8056 2.77792 15 2.77792C11.6111 2.77792 8.72681 3.95375 6.34708 6.30542C3.96764 8.65736 2.77792 11.5235 2.77792 14.9038C2.77792 16.6524 3.135 18.3135 3.84917 19.8871C4.56361 21.4607 5.57681 22.8594 6.88875 24.0833L7.77792 24.9167V31.9446C7.77792 32.3379 7.64431 32.6678 7.37708 32.9342C7.10986 33.2003 6.77889 33.3333 6.38417 33.3333C5.98917 33.3333 5.65972 33.2003 5.39583 32.9342C5.13194 32.6678 5 32.3379 5 31.9446V26.1667Z" fill="#E8EAED"/>
</svg>
